# Blender v2.76 (sub 0) OBJ File: 'guurahk2.blend'
# www.blender.org
mtllib guurahk_staff.mtl
o 3.002
v 0.050290 1.154613 -0.090927
v 0.050290 1.400706 -0.090927
v 0.050290 1.447581 -0.020615
v 0.050290 1.400706 0.049698
v 0.050290 1.154613 0.049698
v -0.090335 1.154613 0.049698
v -0.090335 1.154613 -0.090927
v -0.090335 1.400706 0.049698
v -0.090335 1.154613 0.049698
v 0.050290 1.154613 0.049698
v 0.050290 1.400706 0.049698
v -0.090335 1.447581 -0.020615
v 0.050290 1.447581 -0.020615
v -0.090335 1.400706 -0.090927
v 0.050290 1.400706 -0.090927
v -0.090335 1.154613 -0.090927
v 0.050290 1.154613 -0.090927
v -0.090335 1.400706 0.049698
v -0.090335 1.447581 -0.020615
v -0.090335 1.400706 -0.090927
v -0.066898 1.728831 -0.079209
v -0.066898 1.400706 -0.079209
v -0.066898 1.400706 0.037979
v -0.066898 1.728831 0.037979
v -0.020023 2.092113 -0.079209
v -0.020023 2.092113 0.037979
v 0.026852 1.728831 0.037979
v 0.026852 1.400706 0.037979
v 0.026852 1.400706 -0.079209
v 0.026852 1.728831 -0.079209
v 0.026852 1.728831 -0.079209
v 0.026852 1.400706 -0.079209
v -0.066898 1.400706 -0.079209
v -0.066898 1.728831 -0.079209
v -0.020023 2.092113 -0.079209
v -0.066898 1.728831 0.037979
v -0.066898 1.400706 0.037979
v 0.026852 1.400706 0.037979
v 0.026852 1.728831 0.037979
v -0.020023 2.092113 0.037979
v -0.050694 1.785561 -0.170199
v -0.039593 1.728831 -0.079209
v -0.020023 2.092113 -0.020615
v -0.027254 2.138988 -0.090927
v -0.065243 1.864153 -0.240583
v -0.035728 2.197581 -0.149521
v -0.025117 2.244456 -0.090927
v -0.020023 2.279613 -0.055771
v -0.020023 2.373363 -0.067490
v -0.012792 2.138988 -0.090927
v -0.000452 1.728831 -0.079209
v 0.010648 1.785561 -0.170199
v 0.025197 1.864153 -0.240583
v -0.004318 2.197581 -0.149521
v -0.014929 2.244456 -0.090927
v 0.010648 1.785561 -0.170199
v -0.000452 1.728831 -0.079209
v -0.039593 1.728831 -0.079209
v -0.050694 1.785561 -0.170199
v 0.025197 1.864153 -0.240583
v -0.065243 1.864153 -0.240583
v -0.027254 2.138988 -0.090927
v -0.020023 2.092113 -0.020615
v -0.012792 2.138988 -0.090927
v -0.014929 2.244456 -0.090927
v -0.025117 2.244456 -0.090927
v -0.004318 2.197581 -0.149521
v -0.035728 2.197581 -0.149521
v -0.020023 2.373363 -0.067490
v -0.020023 2.279613 -0.055771
v 0.010720 1.785561 0.128969
v -0.000452 1.728831 0.037979
v -0.012792 2.138988 0.049698
v 0.025197 1.864153 0.199354
v -0.004318 2.197581 0.108291
v -0.014929 2.244456 0.049698
v -0.020023 2.279613 0.014541
v -0.020023 2.373363 0.026260
v -0.027254 2.138988 0.049698
v -0.039593 1.728831 0.037979
v -0.050766 1.785561 0.128969
v -0.065243 1.864153 0.199354
v -0.035728 2.197581 0.108291
v -0.025117 2.244456 0.049698
v -0.050766 1.785561 0.128969
v -0.039593 1.728831 0.037979
v -0.000452 1.728831 0.037979
v 0.010720 1.785561 0.128969
v -0.065243 1.864153 0.199354
v 0.025197 1.864153 0.199354
v -0.012792 2.138988 0.049698
v -0.027254 2.138988 0.049698
v -0.025117 2.244456 0.049698
v -0.014929 2.244456 0.049698
v -0.035728 2.197581 0.108291
v -0.004318 2.197581 0.108291
v -0.020023 2.373363 0.026260
v -0.020023 2.279613 0.014541
v 0.003415 1.342113 -0.079209
v 0.032136 1.424144 -0.172959
v -0.000274 1.635081 -0.079209
v -0.072181 1.424144 -0.172959
v -0.043460 1.342113 -0.079209
v -0.039771 1.635081 -0.079209
v 0.032136 1.424144 -0.172959
v -0.072181 1.424144 -0.172959
v -0.039771 1.635081 -0.079209
v -0.000274 1.635081 -0.079209
v 0.003415 1.342113 -0.079209
v -0.043460 1.342113 -0.079209
v -0.043460 1.342113 0.037979
v -0.072181 1.424144 0.131729
v -0.039771 1.635081 0.037979
v 0.032136 1.424144 0.131729
v 0.003415 1.342113 0.037979
v -0.000274 1.635081 0.037979
v -0.072181 1.424144 0.131729
v 0.032136 1.424144 0.131729
v -0.000274 1.635081 0.037979
v -0.039771 1.635081 0.037979
v -0.043460 1.342113 0.037979
v 0.003415 1.342113 0.037979
v 0.006431 1.154613 0.025204
v -0.046476 1.154613 0.025204
v -0.046476 -0.673513 0.025204
v 0.006431 -0.673513 0.025204
v 0.032884 1.154613 -0.020615
v 0.032884 -0.673513 -0.020615
v 0.006431 1.154613 -0.066434
v 0.006431 -0.673513 -0.066434
v -0.046476 1.154613 -0.066434
v -0.046476 -0.673513 -0.066434
v -0.072930 1.154613 -0.020615
v -0.072930 -0.673513 -0.020615
v -0.046476 1.154613 0.025204
v -0.046476 -0.673513 0.025204
v 0.050290 -0.673513 -0.090927
v 0.050290 -0.673513 0.049698
v 0.050290 -0.919606 0.049698
v 0.050290 -0.966481 -0.020615
v 0.050290 -0.919606 -0.090927
v -0.090335 -0.673513 -0.090927
v -0.090335 -0.673513 0.049698
v 0.050290 -0.919606 0.049698
v 0.050290 -0.673513 0.049698
v -0.090335 -0.673513 0.049698
v -0.090335 -0.919606 0.049698
v 0.050290 -0.966481 -0.020615
v -0.090335 -0.966481 -0.020615
v 0.050290 -0.919606 -0.090927
v -0.090335 -0.919606 -0.090927
v 0.050290 -0.673513 -0.090927
v -0.090335 -0.673513 -0.090927
v -0.090335 -0.919606 -0.090927
v -0.090335 -0.966481 -0.020615
v -0.090335 -0.919606 0.049698
v -0.066898 -1.247731 0.037979
v -0.066898 -0.919606 0.037979
v -0.066898 -0.919606 -0.079209
v -0.066898 -1.247731 -0.079209
v -0.020023 -1.611013 0.037979
v -0.020023 -1.611013 -0.079209
v 0.026852 -1.247731 -0.079209
v 0.026852 -0.919606 -0.079209
v 0.026852 -0.919606 0.037979
v 0.026852 -1.247731 0.037979
v -0.066898 -1.247731 -0.079209
v -0.066898 -0.919606 -0.079209
v 0.026852 -0.919606 -0.079209
v 0.026852 -1.247731 -0.079209
v -0.020023 -1.611013 -0.079209
v 0.026852 -1.247731 0.037979
v 0.026852 -0.919606 0.037979
v -0.066898 -0.919606 0.037979
v -0.066898 -1.247731 0.037979
v -0.020023 -1.611013 0.037979
v -0.027254 -1.657888 -0.090927
v -0.020023 -1.611013 -0.020615
v -0.039593 -1.247731 -0.079209
v -0.050694 -1.304461 -0.170199
v -0.065243 -1.383053 -0.240583
v -0.035728 -1.716481 -0.149521
v -0.025117 -1.763356 -0.090927
v -0.020023 -1.892263 -0.067490
v -0.020023 -1.798513 -0.055771
v 0.010648 -1.304461 -0.170199
v -0.000452 -1.247731 -0.079209
v -0.012792 -1.657888 -0.090927
v 0.025197 -1.383053 -0.240583
v -0.004318 -1.716481 -0.149521
v -0.014929 -1.763356 -0.090927
v -0.050694 -1.304461 -0.170199
v -0.039593 -1.247731 -0.079209
v -0.000452 -1.247731 -0.079209
v 0.010648 -1.304461 -0.170199
v -0.065243 -1.383053 -0.240583
v 0.025197 -1.383053 -0.240583
v -0.020023 -1.611013 -0.020615
v -0.027254 -1.657888 -0.090927
v -0.012792 -1.657888 -0.090927
v -0.025117 -1.763356 -0.090927
v -0.014929 -1.763356 -0.090927
v -0.035728 -1.716481 -0.149521
v -0.004318 -1.716481 -0.149521
v -0.020023 -1.892263 -0.067490
v -0.020023 -1.798513 -0.055771
v -0.012792 -1.657888 0.049698
v -0.000452 -1.247731 0.037979
v 0.010720 -1.304461 0.128969
v 0.025197 -1.383053 0.199354
v -0.004318 -1.716481 0.108291
v -0.014929 -1.763356 0.049698
v -0.020023 -1.892263 0.026260
v -0.020023 -1.798513 0.014541
v -0.050766 -1.304461 0.128969
v -0.039593 -1.247731 0.037979
v -0.027254 -1.657888 0.049698
v -0.065243 -1.383053 0.199354
v -0.035728 -1.716481 0.108291
v -0.025117 -1.763356 0.049698
v 0.010720 -1.304461 0.128969
v -0.000452 -1.247731 0.037979
v -0.039593 -1.247731 0.037979
v -0.050766 -1.304461 0.128969
v 0.025197 -1.383053 0.199354
v -0.065243 -1.383053 0.199354
v -0.012792 -1.657888 0.049698
v -0.027254 -1.657888 0.049698
v -0.014929 -1.763356 0.049698
v -0.025117 -1.763356 0.049698
v -0.004318 -1.716481 0.108291
v -0.035728 -1.716481 0.108291
v -0.020023 -1.892263 0.026260
v -0.020023 -1.798513 0.014541
v 0.032136 -0.943044 -0.172959
v 0.003415 -0.861013 -0.079209
v -0.000274 -1.153981 -0.079209
v -0.043460 -0.861013 -0.079209
v -0.072181 -0.943044 -0.172959
v -0.039771 -1.153981 -0.079209
v 0.032136 -0.943044 -0.172959
v -0.000274 -1.153981 -0.079209
v -0.039771 -1.153981 -0.079209
v -0.072181 -0.943044 -0.172959
v 0.003415 -0.861013 -0.079209
v -0.043460 -0.861013 -0.079209
v -0.072181 -0.943044 0.131729
v -0.043460 -0.861013 0.037979
v -0.039771 -1.153981 0.037979
v 0.003415 -0.861013 0.037979
v 0.032136 -0.943044 0.131729
v -0.000274 -1.153981 0.037979
v -0.072181 -0.943044 0.131729
v -0.039771 -1.153981 0.037979
v -0.000274 -1.153981 0.037979
v 0.032136 -0.943044 0.131729
v -0.043460 -0.861013 0.037979
v 0.003415 -0.861013 0.037979
vt 0.009782 1.237686
vt 0.207755 1.242314
vt 0.245464 1.181123
vt 0.207755 1.124560
vt 0.009782 1.124560
vt 0.208151 1.453149
vt 0.010447 1.453149
vt 0.010447 1.340176
vt 0.208151 1.340176
vt 0.245809 1.453149
vt 0.245809 1.340176
vt 0.471718 1.232888
vt 0.207755 1.232888
vt 0.207755 1.133987
vt 0.471718 1.133987
vt 0.763964 1.232888
vt 0.763964 1.133987
vt 0.471757 1.359004
vt 0.208151 1.359004
vt 0.208151 1.434320
vt 0.471757 1.434320
vt 0.763606 1.396662
vt 0.517355 1.306085
vt 0.763964 1.181123
vt 0.801673 1.246168
vt 0.580579 1.362707
vt 0.848809 1.289451
vt 0.886518 1.242315
vt 0.914800 1.214033
vt 0.990218 1.223460
vt 0.517332 1.372022
vt 0.471757 1.380940
vt 0.471757 1.412385
vt 0.517332 1.421302
vt 0.580470 1.360334
vt 0.580470 1.432991
vt 0.801264 1.402472
vt 0.801264 1.390853
vt 0.885994 1.392570
vt 0.885994 1.400755
vt 0.848336 1.384046
vt 0.848336 1.409279
vt 0.989553 1.396662
vt 0.914237 1.396662
vt 0.517355 1.060789
vt 0.801673 1.120707
vt 0.580579 1.004167
vt 0.848809 1.077423
vt 0.886518 1.124560
vt 0.914800 1.152842
vt 0.990218 1.143414
vt 0.160618 1.232888
vt 0.226609 1.308305
vt 0.396300 1.232888
vt 0.226980 1.354760
vt 0.226980 1.438565
vt 0.396441 1.412528
vt 0.396441 1.380797
vt 0.161078 1.377833
vt 0.161078 1.415491
vt 0.160618 1.133987
vt 0.226609 1.058569
vt 0.396300 1.133987
vt 0.978336 1.993291
vt 0.993932 1.993291
vt 0.993933 1.504643
vt 0.978336 1.504643
vt 0.962739 1.993291
vt 0.962740 1.504643
vt 0.947143 1.993291
vt 0.947143 1.504643
vn 0.948700 -0.316200 -0.000000
vn 1.000000 0.000000 0.000000
vn 0.447200 -0.894400 0.000000
vn -0.707100 -0.707100 0.000000
vn -0.832000 -0.554700 -0.000200
vn 0.000000 0.309700 0.950800
vn -0.000000 0.000500 1.000000
vn 0.000000 0.000600 1.000000
vn 0.000000 0.619300 0.785100
vn 0.000000 0.976200 0.216900
vn 0.000000 0.976200 -0.217000
vn 0.000000 0.619300 -0.785100
vn 0.000000 0.309700 -0.950800
vn -0.000000 -0.000600 -1.000000
vn -0.000000 -0.000500 -1.000000
vn -1.000000 0.000000 0.000000
vn -0.999100 0.042700 0.000000
vn -0.996300 0.085500 -0.000000
vn -0.932600 0.361000 0.000000
vn 0.932600 0.361000 0.000000
vn 0.999100 0.042700 0.000000
vn 0.996300 0.085500 -0.000000
vn -0.986400 0.027900 0.162000
vn -0.989700 0.030700 0.139900
vn -0.000600 1.000000 -0.004000
vn -0.984700 0.027700 0.172200
vn -0.979500 0.026700 0.199600
vn -0.984900 0.021800 0.171700
vn -0.987900 0.014500 0.154300
vn 0.000000 0.124000 0.992300
vn 0.000000 0.078300 0.996900
vn 0.985800 0.028100 0.165600
vn 0.990500 0.033600 0.133000
vn 0.983300 0.024700 0.180500
vn 0.979500 0.026700 0.199600
vn 0.984900 0.021800 0.171700
vn 0.987900 0.014500 0.154300
vn -0.000000 -0.795100 -0.606400
vn 0.000000 -0.848600 -0.529100
vn -0.000000 -0.734100 -0.679000
vn -0.000000 -0.399900 -0.916600
vn -0.000000 -0.052300 -0.998600
vn 0.000000 1.000000 -0.000000
vn -0.000000 0.471800 0.881700
vn 0.000000 -0.252200 0.967700
vn 0.000000 -0.382700 0.923900
vn 0.000000 0.317600 -0.948200
vn 0.000000 0.344400 -0.938800
vn 0.000000 0.422900 -0.906200
vn 0.000000 -0.707100 0.707100
vn 0.986400 0.028000 -0.162100
vn 0.989600 0.030600 -0.140600
vn 0.984700 0.027800 -0.172100
vn 0.979600 0.026900 -0.199300
vn 0.984900 0.021800 -0.171700
vn 0.987900 0.014500 -0.154300
vn 0.000000 0.124000 -0.992300
vn -0.000000 0.078300 -0.996900
vn -0.985800 0.028200 -0.165700
vn -0.990500 0.033600 -0.133400
vn -0.983200 0.024900 -0.180600
vn -0.979600 0.026900 -0.199300
vn -0.984900 0.021800 -0.171700
vn -0.987900 0.014500 -0.154300
vn -0.000000 -0.795100 0.606400
vn -0.000100 -0.849100 0.528300
vn -0.000000 -0.734100 0.679000
vn 0.000000 -0.399900 0.916600
vn 0.000000 -0.052300 0.998600
vn 0.000000 0.471900 -0.881700
vn -0.000000 -0.252700 -0.967500
vn -0.000000 -0.382700 -0.923900
vn -0.000000 0.317600 0.948200
vn -0.000000 0.344400 0.938800
vn 0.000000 0.422900 0.906200
vn 0.000000 -0.707100 -0.707100
vn 0.953100 0.012000 0.302500
vn -0.953100 0.012000 0.302500
vn -0.000000 0.024000 -0.999700
vn -0.000000 -0.441900 -0.897000
vn 0.000000 0.406100 -0.913800
vn 0.000000 -0.752600 -0.658500
vn -0.953100 0.012000 -0.302500
vn 0.953100 0.012000 -0.302500
vn 0.000000 0.024000 0.999700
vn 0.000000 -0.441900 0.897000
vn 0.000000 0.406100 0.913800
vn 0.000000 -0.752600 0.658500
vn 0.327300 0.000000 0.944900
vn 0.654700 0.000000 0.755900
vn 0.982000 -0.000000 0.189000
vn 0.982000 -0.000000 -0.189000
vn 0.654700 -0.000000 -0.755900
vn 0.327300 -0.000000 -0.944900
vn -0.327300 -0.000000 -0.944900
vn -0.654700 -0.000000 -0.755900
vn -0.982000 -0.000000 -0.189000
vn -0.982000 -0.000000 0.189000
vn -0.866000 0.000000 0.500000
vn 0.948700 0.316200 0.000000
vn 0.447200 0.894400 0.000300
vn -0.832000 0.554700 0.000000
vn -0.707100 0.707100 0.000000
vn 0.000000 -0.309700 0.950800
vn 0.000000 -0.619300 0.785100
vn 0.000000 -0.976200 0.216900
vn 0.000000 -0.976200 -0.217000
vn 0.000000 -0.619300 -0.785100
vn 0.000000 -0.309700 -0.950800
vn -0.999100 -0.042700 -0.000000
vn -0.996300 -0.085500 0.000000
vn -0.932600 -0.361000 -0.000000
vn 0.932600 -0.361000 -0.000000
vn 0.999100 -0.042700 -0.000000
vn 0.996300 -0.085500 0.000000
vn -0.985800 -0.028200 0.165600
vn 0.000600 -1.000000 -0.004000
vn -0.990500 -0.033600 0.133000
vn -0.983300 -0.024700 0.180600
vn -0.979500 -0.026700 0.199600
vn -0.984900 -0.021800 0.171700
vn -0.987900 -0.014500 0.154300
vn -0.000000 -0.078300 0.996900
vn 0.000000 -0.124000 0.992300
vn 0.986400 -0.027900 0.162100
vn 0.989700 -0.030800 0.139900
vn 0.984700 -0.027700 0.172200
vn 0.979500 -0.026700 0.199600
vn 0.984900 -0.021800 0.171700
vn 0.987900 -0.014500 0.154300
vn 0.000000 0.795100 -0.606400
vn 0.000000 0.848600 -0.529100
vn 0.000000 0.734100 -0.679000
vn 0.000000 0.399900 -0.916600
vn 0.000000 0.052300 -0.998600
vn -0.000000 -1.000000 -0.000000
vn -0.000000 -0.471800 0.881700
vn 0.000000 0.382700 0.923900
vn 0.000000 0.252200 0.967700
vn -0.000000 -0.317600 -0.948200
vn -0.000000 -0.344400 -0.938800
vn 0.000000 -0.422900 -0.906200
vn 0.000000 0.707100 0.707100
vn 0.985800 -0.028200 -0.165700
vn 0.990500 -0.033600 -0.133400
vn 0.983200 -0.024900 -0.180600
vn 0.979600 -0.026900 -0.199300
vn 0.984900 -0.021800 -0.171700
vn 0.987900 -0.014500 -0.154300
vn -0.000000 -0.078300 -0.996900
vn 0.000000 -0.124000 -0.992300
vn -0.986400 -0.028000 -0.162100
vn -0.989600 -0.030600 -0.140600
vn -0.984700 -0.027800 -0.172100
vn -0.979600 -0.026900 -0.199300
vn -0.984900 -0.021800 -0.171700
vn -0.987900 -0.014500 -0.154300
vn 0.000000 0.795100 0.606400
vn 0.000000 0.848600 0.529100
vn 0.000000 0.734100 0.679000
vn -0.000000 0.399900 0.916600
vn -0.000000 0.052300 0.998600
vn 0.000000 -0.471900 -0.881700
vn -0.000000 0.382700 -0.923900
vn -0.000000 0.252700 -0.967500
vn 0.000000 -0.317600 0.948200
vn 0.000000 -0.344400 0.938800
vn 0.000000 -0.422900 0.906200
vn 0.000000 0.707100 -0.707100
vn 0.953100 -0.012000 0.302500
vn -0.953100 -0.012000 0.302500
vn -0.000000 -0.024000 -0.999700
vn 0.000000 -0.406100 -0.913800
vn -0.000000 0.441900 -0.897000
vn 0.000000 0.752600 -0.658500
vn -0.953100 -0.012000 -0.302500
vn 0.953100 -0.012000 -0.302500
vn 0.000000 -0.024000 0.999700
vn 0.000000 -0.406100 0.913800
vn 0.000000 0.441900 0.897000
vn 0.000000 0.752600 0.658500
usemtl Material02
s 1
f 1/1/1 2/2/2 3/3/2
f 3/3/2 4/4/2 1/1/1
f 5/5/3 1/1/1 4/4/2
f 5/5/3 6/5/4 7/1/5
f 7/1/5 1/1/1 5/5/3
f 8/6/6 9/7/7 10/8/8
f 10/8/8 11/9/9 8/6/6
f 12/10/10 8/6/6 11/9/9
f 11/9/9 13/11/11 12/10/10
f 14/6/12 12/10/10 13/11/11
f 13/11/11 15/9/13 14/6/12
f 16/7/14 14/6/12 15/9/13
f 15/9/13 17/8/15 16/7/14
f 7/1/5 6/5/4 18/4/16
f 18/4/16 19/3/16 7/1/5
f 20/2/16 7/1/5 19/3/16
f 21/12/17 22/13/16 23/14/16
f 23/14/16 24/15/18 21/12/17
f 25/16/19 21/12/17 24/15/18
f 24/15/18 26/17/20 25/16/19
f 27/15/21 28/14/2 29/13/2
f 29/13/2 30/12/22 27/15/21
f 26/17/20 27/15/21 30/12/22
f 30/12/22 25/16/19 26/17/20
f 31/18/15 32/19/15 33/20/15
f 33/20/15 34/21/15 31/18/15
f 35/22/15 31/18/15 34/21/15
f 36/21/7 37/20/7 38/19/7
f 38/19/7 39/18/7 36/21/7
f 40/22/7 36/21/7 39/18/7
f 41/23/23 42/12/24 43/24/25
f 43/24/25 44/25/26 41/23/23
f 45/26/27 41/23/23 44/25/26
f 44/25/26 46/27/28 45/26/27
f 47/28/29 46/27/28 44/25/26
f 48/29/30 49/30/31 47/28/29
f 49/30/31 46/27/28 47/28/29
f 50/25/32 43/24/25 51/12/33
f 51/12/33 52/23/34 50/25/32
f 53/26/35 50/25/32 52/23/34
f 54/27/36 55/28/37 50/25/32
f 53/26/35 54/27/36 50/25/32
f 49/30/31 48/29/30 55/28/37
f 54/27/36 49/30/31 55/28/37
f 56/31/38 57/32/39 58/33/39
f 58/33/39 59/34/40 56/31/38
f 60/35/41 56/31/38 59/34/40
f 59/34/40 61/36/42 60/35/41
f 62/37/6 63/22/43 64/38/44
f 62/37/6 64/38/44 65/39/45
f 65/39/45 66/40/46 62/37/6
f 67/41/47 60/35/41 61/36/42
f 61/36/42 68/42/48 67/41/47
f 69/43/49 67/41/47 68/42/48
f 66/40/46 65/39/45 70/44/50
f 71/45/51 72/15/52 43/24/25
f 43/24/25 73/46/53 71/45/51
f 74/47/54 71/45/51 73/46/53
f 73/46/53 75/48/55 74/47/54
f 76/49/56 75/48/55 73/46/53
f 77/50/57 78/51/58 76/49/56
f 78/51/58 75/48/55 76/49/56
f 79/46/59 43/24/25 80/15/60
f 80/15/60 81/45/61 79/46/59
f 82/47/62 79/46/59 81/45/61
f 83/48/63 84/49/64 79/46/59
f 82/47/62 83/48/63 79/46/59
f 78/51/58 77/50/57 84/49/64
f 83/48/63 78/51/58 84/49/64
f 85/34/65 86/33/66 87/32/66
f 87/32/66 88/31/67 85/34/65
f 89/36/68 85/34/65 88/31/67
f 88/31/67 90/35/69 89/36/68
f 91/38/13 63/22/43 92/37/70
f 91/38/13 92/37/70 93/40/71
f 93/40/71 94/39/72 91/38/13
f 95/42/73 89/36/68 90/35/69
f 90/35/69 96/41/74 95/42/73
f 97/43/75 95/42/73 96/41/74
f 94/39/72 93/40/71 98/44/76
f 99/52/77 100/53/77 101/54/77
f 102/53/78 103/52/78 104/54/78
f 105/55/79 106/56/80 107/57/81
f 107/57/81 108/58/81 105/55/79
f 109/59/82 110/60/82 106/56/80
f 106/56/80 105/55/79 109/59/82
f 111/61/83 112/62/83 113/63/83
f 114/62/84 115/61/84 116/63/84
f 117/56/85 118/55/86 119/58/87
f 119/58/87 120/57/87 117/56/85
f 121/60/88 122/59/88 118/55/86
f 118/55/86 117/56/85 121/60/88
f 123/64/89 124/65/8 125/66/7
f 125/66/7 126/67/90 123/64/89
f 127/68/91 123/64/89 126/67/90
f 126/67/90 128/69/92 127/68/91
f 129/70/93 127/68/91 128/69/92
f 128/69/92 130/71/94 129/70/93
f 131/68/95 129/70/93 130/71/94
f 130/71/94 132/69/96 131/68/95
f 133/64/97 131/68/95 132/69/96
f 132/69/96 134/67/98 133/64/97
f 135/65/99 133/64/97 134/67/98
f 134/67/98 136/66/99 135/65/99
f 137/1/100 138/5/101 139/4/2
f 139/4/2 140/3/2 137/1/100
f 141/2/2 137/1/100 140/3/2
f 138/5/101 137/1/100 142/1/102
f 142/1/102 143/5/103 138/5/101
f 144/9/104 145/8/7 146/7/8
f 146/7/8 147/6/105 144/9/104
f 148/11/106 144/9/104 147/6/105
f 147/6/105 149/10/107 148/11/106
f 150/9/108 148/11/106 149/10/107
f 149/10/107 151/6/109 150/9/108
f 152/8/14 150/9/108 151/6/109
f 151/6/109 153/7/15 152/8/14
f 142/1/102 154/2/16 155/3/16
f 155/3/16 156/4/16 142/1/102
f 143/5/103 142/1/102 156/4/16
f 157/15/110 158/14/16 159/13/16
f 159/13/16 160/12/111 157/15/110
f 161/17/112 157/15/110 160/12/111
f 160/12/111 162/16/113 161/17/112
f 163/12/114 164/13/2 165/14/2
f 165/14/2 166/15/115 163/12/114
f 162/16/113 163/12/114 166/15/115
f 166/15/115 161/17/112 162/16/113
f 167/21/15 168/20/15 169/19/15
f 169/19/15 170/18/15 167/21/15
f 171/22/15 167/21/15 170/18/15
f 172/18/7 173/19/7 174/20/7
f 174/20/7 175/21/7 172/18/7
f 176/22/7 172/18/7 175/21/7
f 177/25/116 178/24/117 179/12/118
f 179/12/118 180/23/119 177/25/116
f 181/26/120 177/25/116 180/23/119
f 182/27/121 183/28/122 177/25/116
f 181/26/120 182/27/121 177/25/116
f 184/30/123 185/29/124 183/28/122
f 182/27/121 184/30/123 183/28/122
f 186/23/125 187/12/126 178/24/117
f 178/24/117 188/25/127 186/23/125
f 189/26/128 186/23/125 188/25/127
f 188/25/127 190/27/129 189/26/128
f 191/28/130 190/27/129 188/25/127
f 185/29/124 184/30/123 191/28/130
f 184/30/123 190/27/129 191/28/130
f 192/34/131 193/33/132 194/32/132
f 194/32/132 195/31/133 192/34/131
f 196/36/134 192/34/131 195/31/133
f 195/31/133 197/35/135 196/36/134
f 198/22/136 199/37/104 200/38/137
f 199/37/104 201/40/138 202/39/139
f 202/39/139 200/38/137 199/37/104
f 203/42/140 196/36/134 197/35/135
f 197/35/135 204/41/141 203/42/140
f 205/43/142 203/42/140 204/41/141
f 202/39/139 201/40/138 206/44/143
f 207/46/144 178/24/117 208/15/145
f 208/15/145 209/45/146 207/46/144
f 210/47/147 207/46/144 209/45/146
f 211/48/148 212/49/149 207/46/144
f 210/47/147 211/48/148 207/46/144
f 213/51/150 214/50/151 212/49/149
f 211/48/148 213/51/150 212/49/149
f 215/45/152 216/15/153 178/24/117
f 178/24/117 217/46/154 215/45/152
f 218/47/155 215/45/152 217/46/154
f 217/46/154 219/48/156 218/47/155
f 220/49/157 219/48/156 217/46/154
f 214/50/151 213/51/150 220/49/157
f 213/51/150 219/48/156 220/49/157
f 221/31/158 222/32/159 223/33/159
f 223/33/159 224/34/160 221/31/158
f 225/35/161 221/31/158 224/34/160
f 224/34/160 226/36/162 225/35/161
f 198/22/136 227/38/109 228/37/163
f 227/38/109 229/39/164 230/40/165
f 230/40/165 228/37/163 227/38/109
f 231/41/166 225/35/161 226/36/162
f 226/36/162 232/42/167 231/41/166
f 233/43/168 231/41/166 232/42/167
f 230/40/165 229/39/164 234/44/169
f 235/53/170 236/52/170 237/54/170
f 238/52/171 239/53/171 240/54/171
f 241/55/172 242/58/173 243/57/173
f 243/57/173 244/56/174 241/55/172
f 245/59/175 241/55/172 244/56/174
f 244/56/174 246/60/175 245/59/175
f 247/62/176 248/61/176 249/63/176
f 250/61/177 251/62/177 252/63/177
f 253/56/178 254/57/179 255/58/179
f 255/58/179 256/55/180 253/56/178
f 257/60/181 253/56/178 256/55/180
f 256/55/180 258/59/181 257/60/181
