# Blender v2.76 (sub 0) OBJ File: 'guurahk2.blend'
# www.blender.org
mtllib guurahk_uarm.mtl
o 3.004
v 0.056343 0.454099 0.127487
v 0.056343 0.594744 0.126873
v 0.009465 0.594744 0.126873
v 0.009465 0.454099 0.127487
v 0.021181 0.313454 0.128100
v -0.049138 0.348641 0.127946
v 0.021181 0.043882 0.129276
v -0.119458 0.043882 0.129276
v -0.119458 0.348641 0.127946
v 0.009465 0.453588 0.010388
v 0.009465 0.594233 0.009774
v 0.056343 0.594233 0.009774
v 0.056343 0.453588 0.010388
v -0.049138 0.348130 0.010848
v 0.021181 0.312943 0.011002
v 0.021181 0.043371 0.012178
v -0.119458 0.043371 0.012178
v -0.119458 0.348130 0.010848
v 0.056343 0.594744 0.126873
v 0.056343 0.594233 0.009774
v 0.009465 0.594233 0.009774
v 0.009465 0.594744 0.126873
v 0.056343 0.454099 0.127487
v 0.056343 0.453588 0.010388
v 0.056343 0.594233 0.009774
v 0.056343 0.594744 0.126873
v 0.009465 0.594744 0.126873
v 0.009465 0.594233 0.009774
v 0.009465 0.453588 0.010388
v 0.009465 0.454099 0.127487
v 0.021181 0.043882 0.129276
v 0.021181 0.043371 0.012178
v 0.021181 0.312943 0.011002
v 0.021181 0.313454 0.128100
v -0.119458 0.043882 0.129276
v -0.119458 0.043371 0.012178
v 0.021181 0.043371 0.012178
v 0.021181 0.043882 0.129276
v -0.119458 0.348641 0.127946
v -0.119458 0.348130 0.010848
v -0.119458 0.043371 0.012178
v -0.119458 0.043882 0.129276
v -0.049138 0.348641 0.127946
v -0.049138 0.348130 0.010848
v -0.119458 0.348130 0.010848
v -0.119458 0.348641 0.127946
v -0.049138 0.348130 0.010848
v -0.049138 0.348641 0.127946
v -0.213222 0.020301 0.097258
v -0.119458 0.043831 0.117539
v -0.119457 0.137595 0.117130
v -0.236663 0.043729 0.094169
v 0.079783 0.125834 0.093809
v 0.103223 0.125732 0.070369
v 0.150102 0.489010 0.068784
v 0.126660 0.489112 0.092224
v 0.056342 0.125732 0.070369
v 0.103220 0.489010 0.068784
v 0.079783 0.125629 0.046928
v 0.126660 0.488907 0.045343
v -0.213222 0.020071 0.044400
v -0.236663 0.043524 0.047286
v -0.119457 0.137185 0.023381
v -0.119458 0.043422 0.023790
v -0.213222 0.020301 0.097258
v -0.213222 0.020071 0.044400
v -0.119458 0.043422 0.023790
v -0.119458 0.043831 0.117539
v -0.236663 0.043729 0.094169
v -0.236663 0.043524 0.047286
v -0.119457 0.137595 0.117130
v -0.119457 0.137185 0.023381
v -0.236663 0.043524 0.047286
v -0.236663 0.043729 0.094169
v -0.002256 -0.190489 0.138051
v 0.017164 -0.210197 0.071835
v 0.044627 -0.143896 0.071545
v 0.017162 -0.143607 0.137846
v -0.049138 -0.143487 0.165309
v -0.002256 -0.096725 0.137641
v -0.049138 -0.077306 0.137557
v 0.017164 -0.077596 0.071256
v -0.049138 -0.050132 0.071136
v -0.002256 -0.097304 0.005041
v -0.049138 -0.077885 0.004955
v -0.049138 -0.144306 -0.022218
v -0.096020 -0.097304 0.005041
v -0.115439 -0.144186 0.005245
v -0.115439 -0.077596 0.071256
v -0.142902 -0.143896 0.071545
v -0.096020 -0.096725 0.137641
v -0.115439 -0.143606 0.137846
v -0.096020 -0.190489 0.138051
v -0.049138 -0.209908 0.138135
v -0.115439 -0.210197 0.071835
v -0.049138 -0.237660 0.071955
v -0.096020 -0.191067 0.005449
v -0.049138 -0.210486 0.005534
v -0.002256 -0.191067 0.005449
v 0.017164 -0.144186 0.005245
v -0.013978 -0.097076 0.036184
v -0.084298 -0.097076 0.036184
v -0.084298 0.043474 0.035571
v -0.013978 0.043474 0.035571
v -0.013978 -0.096769 0.106497
v -0.013978 -0.097076 0.036184
v -0.013978 0.043474 0.035571
v -0.013978 0.043780 0.105883
v -0.084298 -0.096769 0.106497
v -0.013978 -0.096769 0.106497
v -0.013978 0.043780 0.105883
v -0.084298 0.043780 0.105883
v -0.084298 -0.097076 0.036184
v -0.084298 -0.096769 0.106497
v -0.084298 0.043780 0.105883
v -0.084298 0.043474 0.035571
v 0.162052 0.489163 0.103878
v 0.162052 0.559474 0.103571
v 0.056583 0.559474 0.103571
v 0.056583 0.489163 0.103878
v 0.162052 0.488856 0.033565
v 0.056583 0.488856 0.033565
v 0.056583 0.559168 0.033259
v 0.162052 0.559168 0.033259
v 0.162052 0.559474 0.103571
v 0.162052 0.559168 0.033259
v 0.056583 0.559168 0.033259
v 0.056583 0.559474 0.103571
v 0.162052 0.489163 0.103878
v 0.162052 0.488856 0.033565
v 0.162052 0.559168 0.033259
v 0.162052 0.559474 0.103571
v 0.056583 0.489163 0.103878
v 0.056583 0.488856 0.033565
v 0.162052 0.488856 0.033565
v 0.162052 0.489163 0.103878
v 0.115177 0.067292 0.105718
v 0.115177 0.125885 0.105462
v 0.021427 0.125885 0.105462
v 0.021427 0.043854 0.105821
v 0.115177 0.066985 0.035406
v 0.021427 0.043547 0.035508
v 0.021427 0.125578 0.035151
v 0.115177 0.125577 0.035151
v 0.115177 0.125885 0.105462
v 0.115177 0.125577 0.035151
v 0.021427 0.125578 0.035151
v 0.021427 0.125885 0.105462
v 0.115177 0.067292 0.105718
v 0.115177 0.066985 0.035406
v 0.115177 0.125577 0.035151
v 0.115177 0.125885 0.105462
v 0.021427 0.043854 0.105821
v 0.021427 0.043547 0.035508
v 0.115177 0.066985 0.035406
v 0.115177 0.067292 0.105718
vt 0.691923 1.912254
vt 0.636712 1.912254
vt 0.636712 1.893852
vt 0.691923 1.893852
vt 0.747134 1.898451
vt 0.728730 1.870848
vt 0.857555 1.898451
vt 0.857555 1.843243
vt 0.728730 1.843243
vt 0.576952 1.862415
vt 0.631404 1.862415
vt 0.631404 1.888173
vt 0.576952 1.888173
vt 0.691923 1.966907
vt 0.636712 1.966907
vt 0.636712 1.787906
vt 0.636712 1.843073
vt 0.691922 1.843073
vt 0.691922 1.787906
vt 0.857555 1.911739
vt 0.857555 1.966907
vt 0.747134 1.966907
vt 0.747134 1.911739
vt 0.576842 1.853877
vt 0.631295 1.853877
vt 0.631296 1.788478
vt 0.576842 1.788478
vt 0.728730 1.787906
vt 0.857555 1.787906
vt 0.620412 1.994058
vt 0.577556 1.994133
vt 0.577556 1.951276
vt 0.631127 1.983344
vt 0.855881 1.984505
vt 0.855881 1.993707
vt 0.637512 1.993583
vt 0.637512 1.984381
vt 0.855881 1.975303
vt 0.637512 1.975180
vt 0.692891 1.857508
vt 0.692891 1.878257
vt 0.636521 1.886308
vt 0.636521 1.849506
vt 0.703904 1.857396
vt 0.703904 1.878369
vt 0.961505 1.914153
vt 0.980855 1.893318
vt 0.999164 1.937519
vt 0.971224 1.937619
vt 0.936690 1.937490
vt 0.961505 1.961085
vt 0.936690 1.971591
vt 0.980855 1.981720
vt 0.936654 2.000029
vt 0.912577 1.961603
vt 0.902589 1.937490
vt 0.892453 1.981720
vt 0.874144 1.937519
vt 0.912577 1.913377
vt 0.936690 1.903389
vt 0.892453 1.893318
vt 0.936654 1.875010
vt 0.986699 1.768634
vt 0.986699 1.746644
vt 0.945278 1.746644
vt 0.945278 1.768634
vt 0.631563 1.932759
vt 0.604919 1.932759
vt 0.604919 1.895458
vt 0.631540 1.895458
vt 0.576755 1.933169
vt 0.576755 1.895617
vt 0.604583 1.964444
vt 0.630944 1.964444
vn 0.000000 0.004400 1.000000
vn 0.000000 -0.004400 -1.000000
vn 0.000000 1.000000 -0.004400
vn 0.996700 -0.081400 0.000300
vn 0.986700 -0.162800 0.000700
vn 1.000000 -0.000000 0.000000
vn -1.000000 0.000000 0.000000
vn -0.986000 0.166600 -0.000700
vn -0.942800 0.333300 -0.001500
vn 0.996700 -0.081400 0.000400
vn 0.986700 -0.162700 0.000700
vn 0.000000 -1.000000 0.004400
vn -0.874100 0.485700 -0.002100
vn -0.188800 -0.015400 0.981900
vn -0.212400 0.004300 0.977200
vn -0.165000 -0.035100 0.985700
vn 0.316000 -0.036700 0.948100
vn 0.941700 -0.122900 -0.313300
vn 0.941600 -0.120100 0.314400
vn -0.316000 0.044900 0.947700
vn -0.941700 0.122900 0.313400
vn -0.941600 0.120100 -0.314400
vn -0.315900 0.036600 -0.948100
vn 0.315900 -0.044900 -0.947700
vn -0.189700 -0.024300 -0.981500
vn -0.165600 -0.044300 -0.985200
vn -0.213700 -0.004300 -0.976900
vn -0.083600 -0.996500 0.004400
vn -0.441000 -0.897500 0.003900
vn 0.242500 -0.970100 0.004200
vn -0.707100 -0.707100 0.003100
vn -0.624700 0.780900 -0.003400
vn 0.559300 -0.556600 0.614300
vn 0.700500 -0.701100 -0.133700
vn 0.753400 0.083400 0.652300
vn 0.494200 0.497300 0.713100
vn 0.080500 0.756200 0.649300
vn 0.700500 0.701000 0.133700
vn 0.559300 0.556600 -0.614300
vn -0.080500 0.750500 -0.655900
vn -0.494200 0.491100 -0.717400
vn -0.753400 0.077700 -0.653000
vn -0.700500 0.699900 -0.139800
vn -0.559300 0.562000 0.609400
vn -0.753400 -0.077700 0.653000
vn -0.494200 -0.491100 0.717400
vn -0.080500 -0.750500 0.655900
vn -0.700500 -0.699900 0.139800
vn -0.559300 -0.562000 -0.609400
vn 0.080500 -0.756200 -0.649300
vn 0.494200 -0.497300 -0.713100
vn 0.753400 -0.083400 -0.652300
usemtl Material01
s 1
f 1/1/1 2/2/1 3/3/1
f 3/3/1 4/4/1 1/1/1
f 5/5/1 1/1/1 4/4/1
f 4/4/1 6/6/1 5/5/1
f 7/7/1 5/5/1 6/6/1
f 6/6/1 8/8/1 7/7/1
f 9/9/1 8/8/1 6/6/1
f 10/4/2 11/3/2 12/2/2
f 12/2/2 13/1/2 10/4/2
f 14/6/2 10/4/2 13/1/2
f 13/1/2 15/5/2 14/6/2
f 16/7/2 14/6/2 15/5/2
f 14/6/2 16/7/2 17/8/2
f 17/8/2 18/9/2 14/6/2
f 19/10/3 20/11/3 21/12/3
f 21/12/3 22/13/3 19/10/3
f 23/1/4 24/14/5 25/15/6
f 25/15/6 26/2/6 23/1/4
f 27/16/7 28/17/7 29/18/8
f 29/18/8 30/19/9 27/16/7
f 31/20/6 32/21/6 33/22/10
f 33/22/10 34/23/11 31/20/6
f 35/24/12 36/25/12 37/26/12
f 37/26/12 38/27/12 35/24/12
f 39/28/7 40/9/7 41/8/7
f 41/8/7 42/29/7 39/28/7
f 43/10/3 44/11/3 45/12/3
f 45/12/3 46/13/3 43/10/3
f 34/23/11 33/22/10 24/14/5
f 24/14/5 23/1/4 34/23/11
f 30/19/9 29/18/8 47/9/13
f 47/9/13 48/28/13 30/19/9
f 49/30/14 50/31/15 51/32/14
f 51/32/14 52/33/16 49/30/14
f 53/34/17 54/35/18 55/36/19
f 55/36/19 56/37/20 53/34/17
f 57/38/21 53/34/17 56/37/20
f 56/37/20 58/39/22 57/38/21
f 59/34/23 57/38/21 58/39/22
f 58/39/22 60/37/24 59/34/23
f 54/35/18 59/34/23 60/37/24
f 60/37/24 55/36/19 54/35/18
f 61/30/25 62/33/26 63/32/25
f 63/32/25 64/31/27 61/30/25
f 65/40/28 66/41/29 67/42/30
f 67/42/30 68/43/30 65/40/28
f 69/44/31 70/45/31 66/41/29
f 66/41/29 65/40/28 69/44/31
f 71/43/32 72/42/32 73/41/32
f 73/41/32 74/40/32 71/43/32
f 75/46/33 76/47/34 77/48/6
f 77/48/6 78/49/35 75/46/33
f 79/50/1 75/46/33 78/49/35
f 78/49/35 80/51/36 79/50/1
f 81/52/37 79/50/1 80/51/36
f 80/51/36 82/53/38 81/52/37
f 83/54/3 81/52/37 82/53/38
f 82/53/38 84/51/39 83/54/3
f 85/52/40 83/54/3 84/51/39
f 84/51/39 86/50/2 85/52/40
f 87/55/41 85/52/40 86/50/2
f 86/50/2 88/56/42 87/55/41
f 89/57/43 87/55/41 88/56/42
f 88/56/42 90/58/7 89/57/43
f 91/55/44 89/57/43 90/58/7
f 90/58/7 92/56/45 91/55/44
f 79/50/1 91/55/44 92/56/45
f 92/56/45 93/59/46 79/50/1
f 94/60/47 79/50/1 93/59/46
f 93/59/46 95/61/48 94/60/47
f 96/62/12 94/60/47 95/61/48
f 95/61/48 97/59/49 96/62/12
f 98/60/50 96/62/12 97/59/49
f 97/59/49 86/50/2 98/60/50
f 99/46/51 98/60/50 86/50/2
f 86/50/2 100/49/52 99/46/51
f 76/47/34 99/46/51 100/49/52
f 100/49/52 77/48/6 76/47/34
f 75/46/33 79/50/1 94/60/47
f 94/60/47 96/62/12 75/46/33
f 76/47/34 75/46/33 96/62/12
f 96/62/12 98/60/50 76/47/34
f 99/46/51 76/47/34 98/60/50
f 82/53/38 80/51/36 78/49/35
f 78/49/35 77/48/6 82/53/38
f 84/51/39 82/53/38 77/48/6
f 77/48/6 100/49/52 84/51/39
f 86/50/2 84/51/39 100/49/52
f 91/55/44 79/50/1 81/52/37
f 81/52/37 83/54/3 91/55/44
f 89/57/43 91/55/44 83/54/3
f 83/54/3 85/52/40 89/57/43
f 87/55/41 89/57/43 85/52/40
f 95/61/48 93/59/46 92/56/45
f 92/56/45 90/58/7 95/61/48
f 97/59/49 95/61/48 90/58/7
f 90/58/7 88/56/42 97/59/49
f 86/50/2 97/59/49 88/56/42
f 101/63/2 102/64/2 103/65/2
f 103/65/2 104/66/2 101/63/2
f 105/64/6 106/63/6 107/66/6
f 107/66/6 108/65/6 105/64/6
f 109/64/1 110/63/1 111/66/1
f 111/66/1 112/65/1 109/64/1
f 113/63/7 114/64/7 115/65/7
f 115/65/7 116/66/7 113/63/7
f 117/67/1 118/68/1 119/69/1
f 119/69/1 120/70/1 117/67/1
f 121/67/2 122/70/2 123/69/2
f 123/69/2 124/68/2 121/67/2
f 125/68/3 126/71/3 127/72/3
f 127/72/3 128/69/3 125/68/3
f 129/68/6 130/73/6 131/74/6
f 131/74/6 132/67/6 129/68/6
f 133/69/12 134/72/12 135/71/12
f 135/71/12 136/68/12 133/69/12
f 137/67/1 138/68/1 139/69/1
f 139/69/1 140/70/1 137/67/1
f 141/67/2 142/70/2 143/69/2
f 143/69/2 144/68/2 141/67/2
f 145/68/3 146/71/3 147/72/3
f 147/72/3 148/69/3 145/68/3
f 149/68/6 150/73/6 151/74/6
f 151/74/6 152/67/6 149/68/6
f 153/69/30 154/72/30 155/71/30
f 155/71/30 156/68/30 153/69/30
