# Blender v2.76 (sub 0) OBJ File: 'guurahk2.blend'
# www.blender.org
mtllib guurahk_uleg.mtl
o 3.005
v 0.083903 0.050538 0.003219
v -0.033284 0.050538 0.003219
v -0.033284 0.054629 0.237594
v 0.083903 0.054629 0.237594
v -0.033284 -0.132843 0.240866
v -0.033284 -0.136934 0.006491
v 0.025310 -0.191836 0.218452
v 0.025310 -0.195109 0.030951
v 0.083904 -0.132843 0.240866
v 0.083904 -0.136934 0.006491
v -0.033284 -0.132843 0.240866
v 0.025310 -0.191836 0.218452
v 0.083904 -0.132843 0.240866
v 0.083903 0.054629 0.237594
v -0.033284 0.054629 0.237594
v 0.123040 -0.136320 0.041660
v 0.119060 -0.230055 0.043296
v 0.119060 -0.231487 -0.038722
v 0.130779 0.049385 -0.062810
v 0.125499 -0.077326 0.064071
v -0.068440 -0.231487 -0.038722
v -0.068440 -0.230055 0.043296
v -0.072421 -0.136320 0.041660
v -0.074879 -0.077326 0.064071
v -0.080159 0.049385 -0.062810
v 0.123040 -0.136320 0.041660
v -0.072421 -0.136320 0.041660
v -0.068440 -0.230055 0.043296
v 0.119060 -0.230055 0.043296
v -0.068440 -0.231487 -0.038722
v 0.025310 -0.231982 -0.067104
v 0.119060 -0.231487 -0.038722
v 0.119060 -0.230055 0.043296
v -0.068440 -0.230055 0.043296
v 0.130779 0.049385 -0.062810
v 0.119060 -0.231487 -0.038722
v 0.025310 -0.231982 -0.067104
v 0.025310 0.048772 -0.097964
v 0.130779 0.143216 -0.059041
v 0.025310 0.142602 -0.094191
v 0.107341 0.377649 -0.057756
v 0.025310 0.377181 -0.084508
v -0.080159 0.143216 -0.059041
v -0.056721 0.377649 -0.057756
v -0.080159 0.049385 -0.062810
v -0.068440 -0.231487 -0.038722
v 0.126342 -0.052869 0.122247
v -0.075723 -0.052869 0.122247
v -0.074879 -0.077326 0.064071
v 0.125499 -0.077326 0.064071
v 0.130779 0.052584 0.120406
v -0.080159 0.052584 0.120406
v 0.130779 0.053606 0.178991
v -0.080159 0.053606 0.178991
v -0.080159 0.052584 0.120406
v 0.130779 0.052584 0.120406
v 0.130779 0.147343 0.177355
v -0.080159 0.147343 0.177355
v -0.080159 0.053606 0.178991
v 0.130779 0.053606 0.178991
v 0.107341 0.379227 0.032661
v -0.056721 0.379227 0.032661
v -0.056721 0.379227 0.032661
v 0.107341 0.379227 0.032661
v 0.107341 0.377649 -0.057756
v 0.025310 0.377181 -0.084508
v -0.056721 0.377649 -0.057756
v -0.033290 -0.054818 -0.065247
v -0.033290 0.012836 -0.066428
v -0.033290 0.011200 -0.160164
v -0.033290 -0.056454 -0.158983
v 0.025310 -0.088645 -0.064657
v 0.025310 -0.090282 -0.158393
v 0.083909 -0.054818 -0.065247
v 0.083909 -0.056454 -0.158983
v 0.083909 0.012836 -0.066428
v 0.083909 0.011200 -0.160164
v 0.025310 0.046664 -0.067019
v 0.025310 0.045028 -0.160755
v 0.025310 0.045028 -0.160755
v 0.083909 0.011200 -0.160164
v 0.083909 -0.056454 -0.158983
v 0.025310 -0.090282 -0.158393
v -0.033290 0.011200 -0.160164
v -0.033290 -0.056454 -0.158983
v 0.130779 0.143216 -0.059041
v 0.107341 0.377649 -0.057756
v 0.107341 0.379227 0.032661
v 0.130779 0.147343 0.177355
v 0.130779 0.052584 0.120406
v 0.126342 -0.052869 0.122247
v -0.080159 0.147343 0.177355
v -0.056721 0.379227 0.032661
v -0.056721 0.377649 -0.057756
v -0.080159 0.143216 -0.059041
v -0.080159 0.052584 0.120406
v -0.075723 -0.052869 0.122247
v -0.080159 0.053606 0.178991
v 0.130779 0.053606 0.178991
v -0.033328 0.483015 -0.062923
v -0.033328 0.377591 -0.061083
v -0.033328 0.379227 0.032670
v -0.033328 0.484652 0.030831
v -0.033328 0.598985 -0.135280
v -0.033328 0.603077 0.099096
v 0.025274 0.657989 -0.112865
v 0.025274 0.661262 0.074635
v 0.083877 0.598985 -0.135280
v 0.083877 0.603077 0.099096
v 0.083877 0.483015 -0.062923
v 0.083877 0.484652 0.030831
v 0.083877 0.377591 -0.061083
v 0.083877 0.379227 0.032670
v -0.033328 0.481788 -0.133234
v 0.025274 0.423194 -0.132211
v 0.025274 0.424422 -0.061900
v 0.083877 0.481788 -0.133234
v 0.083877 0.485879 0.101141
v 0.025274 0.427285 0.102164
v 0.025274 0.426058 0.031853
v -0.033328 0.485879 0.101141
v -0.033328 0.598985 -0.135280
v 0.025274 0.657989 -0.112865
v 0.083877 0.598985 -0.135280
v 0.083877 0.481788 -0.133234
v -0.033328 0.481788 -0.133234
v 0.025274 0.423194 -0.132211
v 0.083877 0.603077 0.099096
v 0.025274 0.661262 0.074635
v -0.033328 0.603077 0.099096
v -0.033328 0.485879 0.101141
v 0.083877 0.485879 0.101141
v 0.025274 0.427285 0.102164
v -0.033328 0.483015 -0.062923
v 0.083877 0.483015 -0.062923
v 0.083877 0.377591 -0.061083
v -0.033328 0.377591 -0.061083
v -0.033328 0.484652 0.030831
v -0.033328 0.379227 0.032670
v 0.083877 0.379227 0.032670
v 0.083877 0.484652 0.030831
vt 0.067855 1.587963
vt 0.161432 1.587963
vt 0.161432 1.664588
vt 0.067855 1.664588
vt 0.152074 1.687979
vt 0.077213 1.687979
vt 0.043982 1.687979
vt 0.020591 1.664588
vt 0.020591 1.587963
vt 0.132922 1.370443
vt 0.132922 1.333018
vt 0.100175 1.333018
vt 0.092517 1.444068
vt 0.142278 1.393834
vt 0.269359 1.370443
vt 0.191331 1.370443
vt 0.192920 1.333018
vt 0.267770 1.333018
vt 0.173982 1.624399
vt 0.211407 1.613067
vt 0.248832 1.624399
vt 0.248832 1.661935
vt 0.173982 1.661935
vt 0.086676 1.444068
vt 0.081998 1.333018
vt 0.044573 1.333018
vt 0.044573 1.444067
vt 0.086676 1.482719
vt 0.044573 1.482719
vt 0.077320 1.576282
vt 0.044573 1.576281
vt 0.002470 1.482719
vt 0.011826 1.576282
vt 0.002470 1.444068
vt 0.007148 1.333018
vt 0.270677 1.403190
vt 0.190013 1.403190
vt 0.190349 1.393834
vt 0.270341 1.393834
vt 0.272449 1.444068
vt 0.188242 1.444068
vt 0.253511 1.685796
vt 0.169304 1.685796
vt 0.169304 1.662007
vt 0.253511 1.662007
vt 0.272449 1.482719
vt 0.188242 1.482719
vt 0.263092 1.576281
vt 0.197598 1.576281
vt 0.181901 1.346905
vt 0.181901 1.373917
vt 0.142400 1.373917
vt 0.142400 1.346905
vt 0.181901 1.333399
vt 0.142400 1.333399
vt 0.181901 1.387423
vt 0.142400 1.387423
vt 0.170006 1.586747
vt 0.190086 1.576207
vt 0.190086 1.553021
vt 0.170006 1.541428
vt 0.149927 1.576207
vt 0.149927 1.553021
vt 0.094675 1.482719
vt 0.096822 1.576282
vt 0.132922 1.576281
vt 0.165669 1.444068
vt 0.165669 1.403190
vt 0.095493 1.618374
vt 0.095493 1.580022
vt 0.132925 1.580022
vt 0.132925 1.618374
vt 0.067421 1.618374
vt 0.067421 1.594979
vt 0.095493 1.594979
vt 0.160998 1.618374
vt 0.160998 1.594979
vt 0.132925 1.594979
vt 0.021165 1.618374
vt 0.044559 1.594979
vn 0.447200 0.894300 -0.015600
vn -0.894400 0.447100 -0.007800
vn -0.447200 0.894300 -0.015600
vn 0.894400 0.447100 -0.007800
vn -0.967500 -0.252700 0.004400
vn -0.862900 -0.505400 0.008800
vn -0.316200 -0.948500 0.016600
vn 0.316200 -0.948500 0.016600
vn 0.862900 -0.505400 0.008800
vn 0.967500 -0.252700 0.004400
vn 0.000000 -0.108500 0.994100
vn 0.000000 -0.355200 0.934800
vn 0.000000 -0.172000 0.985100
vn 0.000000 0.017500 0.999800
vn 0.999100 -0.041800 0.000100
vn 0.999100 -0.042000 0.000200
vn 0.999100 -0.042100 0.000300
vn 0.999700 -0.024800 0.000100
vn 0.999100 -0.041500 0.001200
vn -0.999100 -0.042100 0.000300
vn -0.999100 -0.041800 0.000100
vn -0.999100 -0.041700 -0.000100
vn -0.999100 -0.041900 0.000100
vn -0.999500 -0.030800 0.000700
vn -0.000000 -0.234700 0.972100
vn 0.000000 0.017400 0.999800
vn 0.000000 -0.999800 0.017500
vn 0.000000 -0.999800 0.017400
vn 0.307300 -0.053200 -0.950100
vn 0.288900 -0.093800 -0.952700
vn 0.109500 -0.104800 -0.988400
vn 0.004700 -0.033100 -0.999400
vn 0.315700 0.037900 -0.948100
vn -0.000800 0.040300 -0.999200
vn 0.312700 0.038000 -0.949100
vn -0.110100 0.039900 -0.993100
vn -0.313800 0.037800 -0.948700
vn -0.309700 0.036200 -0.950200
vn -0.316200 -0.006000 -0.948700
vn -0.302000 -0.099400 -0.948100
vn -0.000000 -0.717100 0.696900
vn -0.000000 -0.348300 0.937400
vn 0.000000 -0.789400 0.613900
vn 0.000000 -0.586000 0.810300
vn 0.000000 0.194400 0.980900
vn 0.000000 0.370700 0.928800
vn 0.000000 0.529400 0.848400
vn 0.000000 0.999800 -0.017500
vn 0.000000 0.999800 -0.017400
vn -0.944900 -0.327300 0.005700
vn -0.755900 0.654500 -0.011400
vn -0.944900 0.327300 -0.005700
vn -0.755900 -0.654500 0.011400
vn -0.189000 -0.981800 0.017100
vn 0.189000 -0.981800 0.017100
vn 0.755900 -0.654600 0.011400
vn 0.944900 -0.327300 0.005700
vn 0.944900 0.327300 -0.005700
vn 0.755900 0.654500 -0.011400
vn 0.189000 0.981800 -0.017100
vn -0.189000 0.981800 -0.017100
vn 0.000000 -0.017500 -0.999800
vn 0.997800 0.066400 -0.001200
vn 0.995000 0.099500 -0.001700
vn 0.999700 0.024900 -0.000400
vn 0.999800 -0.020700 0.001000
vn 0.999100 -0.042000 0.003200
vn -0.998800 0.049800 -0.000900
vn -0.995000 0.099500 -0.001700
vn -0.999400 0.033200 -0.000600
vn -0.999900 -0.010500 0.000200
vn -0.999200 -0.040900 0.001400
vn -1.000000 0.000000 0.000000
vn 1.000000 0.000000 0.000000
vn -0.988900 -0.148500 0.002600
vn -0.982300 0.187300 -0.003300
vn -0.923900 0.382600 -0.006700
vn -0.316200 0.948500 -0.016600
vn 0.316200 0.948500 -0.016600
vn 0.923900 0.382600 -0.006700
vn 0.982300 0.187300 -0.003300
vn 0.988900 -0.148500 0.002600
vn -0.923900 -0.382600 0.006700
vn -0.316200 -0.948500 0.016400
vn 0.316200 -0.948600 0.016400
vn 0.862800 -0.505400 0.008700
vn 0.923900 -0.382600 0.006700
vn -0.316200 -0.948500 0.016700
vn 0.000000 0.108500 -0.994100
vn 0.000000 0.355100 -0.934800
vn 0.000000 0.172000 -0.985100
vn -0.000000 0.143100 0.989700
vn 0.000000 0.387500 0.921900
vn -0.000000 0.206200 0.978500
usemtl Material01
s 1
f 1/1/1 2/1/2 3/2/3
f 3/2/3 4/2/4 1/1/1
f 5/3/5 3/2/3 2/1/2
f 2/1/2 6/4/6 5/3/5
f 7/5/7 5/3/5 6/4/6
f 6/4/6 8/6/8 7/5/7
f 9/3/9 7/5/7 8/6/8
f 8/6/8 10/4/10 9/3/9
f 4/2/4 9/3/9 10/4/10
f 10/4/10 1/1/1 4/2/4
f 11/4/11 12/7/12 13/8/13
f 13/8/13 14/9/14 11/4/11
f 15/1/14 11/4/11 14/9/14
f 16/10/15 17/11/16 18/12/17
f 18/12/17 19/13/18 16/10/15
f 20/14/19 16/10/15 19/13/18
f 21/12/20 22/11/21 23/10/22
f 23/10/22 24/14/23 21/12/20
f 25/13/24 21/12/20 24/14/23
f 26/15/11 27/16/25 28/17/26
f 28/17/26 29/18/26 26/15/11
f 30/19/27 31/20/28 32/21/27
f 32/21/27 33/22/27 30/19/27
f 34/23/27 30/19/27 33/22/27
f 35/24/29 36/25/30 37/26/31
f 37/26/31 38/27/32 35/24/29
f 39/28/33 35/24/29 38/27/32
f 38/27/32 40/29/34 39/28/33
f 41/30/35 39/28/33 40/29/34
f 40/29/34 42/31/36 41/30/35
f 43/32/37 44/33/38 42/31/36
f 42/31/36 40/29/34 43/32/37
f 45/34/39 43/32/37 40/29/34
f 40/29/34 38/27/32 45/34/39
f 46/35/40 45/34/39 38/27/32
f 38/27/32 37/26/31 46/35/40
f 47/36/41 48/37/42 49/38/43
f 49/38/43 50/39/44 47/36/41
f 51/40/14 52/41/14 48/37/42
f 48/37/42 47/36/41 51/40/14
f 53/42/28 54/43/28 55/44/28
f 55/44/28 56/45/28 53/42/28
f 57/46/45 58/47/46 59/41/26
f 59/41/26 60/40/26 57/46/45
f 61/48/47 62/49/47 58/47/46
f 58/47/46 57/46/45 61/48/47
f 50/39/44 49/38/43 27/16/25
f 27/16/25 26/15/11 50/39/44
f 63/23/48 64/22/49 65/21/48
f 65/21/48 66/20/48 63/23/48
f 67/19/49 63/23/48 66/20/48
f 68/50/50 69/51/51 70/52/52
f 70/52/52 71/53/53 68/50/50
f 72/54/54 68/50/50 71/53/53
f 71/53/53 73/55/55 72/54/54
f 74/50/56 72/54/54 73/55/55
f 73/55/55 75/53/57 74/50/56
f 76/51/58 74/50/56 75/53/57
f 75/53/57 77/52/59 76/51/58
f 78/56/60 76/51/58 77/52/59
f 77/52/59 79/57/61 78/56/60
f 69/51/51 78/56/60 79/57/61
f 79/57/61 70/52/52 69/51/51
f 80/58/62 81/59/62 82/60/62
f 82/60/62 83/61/62 80/58/62
f 84/62/62 80/58/62 83/61/62
f 83/61/62 85/63/62 84/62/62
f 86/64/63 87/65/64 88/66/64
f 88/66/64 89/47/65 86/64/63
f 19/13/18 86/64/63 89/47/65
f 89/47/65 90/67/66 19/13/18
f 20/14/19 19/13/18 90/67/66
f 90/67/66 91/68/67 20/14/19
f 92/47/68 93/66/69 94/65/69
f 94/65/69 95/64/70 92/47/68
f 96/67/71 92/47/68 95/64/70
f 95/64/70 25/13/24 96/67/71
f 97/68/72 96/67/71 25/13/24
f 25/13/24 24/14/23 97/68/72
f 98/41/73 92/47/68 96/67/71
f 99/41/74 90/67/66 89/47/65
f 100/69/5 101/70/73 102/71/73
f 102/71/73 103/72/75 100/69/5
f 104/4/76 100/69/5 103/72/75
f 103/72/75 105/3/77 104/4/76
f 106/6/78 104/4/76 105/3/77
f 105/3/77 107/5/79 106/6/78
f 108/4/80 106/6/78 107/5/79
f 107/5/79 109/3/81 108/4/80
f 110/69/82 108/4/80 109/3/81
f 109/3/81 111/72/10 110/69/82
f 112/70/74 110/69/82 111/72/10
f 111/72/10 113/71/74 112/70/74
f 100/69/5 104/4/76 114/73/83
f 114/73/83 115/74/84 100/69/5
f 116/75/85 100/69/5 115/74/84
f 115/74/84 117/73/86 116/75/85
f 110/69/82 116/75/85 117/73/86
f 117/73/86 108/4/80 110/69/82
f 111/72/10 109/3/81 118/76/87
f 118/76/87 119/77/85 111/72/10
f 120/78/88 111/72/10 119/77/85
f 119/77/85 121/76/6 120/78/88
f 103/72/75 120/78/88 121/76/6
f 121/76/6 105/3/77 103/72/75
f 122/8/89 123/7/90 124/4/91
f 124/4/91 125/73/62 122/8/89
f 126/79/62 122/8/89 125/73/62
f 125/73/62 127/80/62 126/79/62
f 128/4/92 129/7/93 130/8/94
f 130/8/94 131/79/14 128/4/92
f 132/73/14 128/4/92 131/79/14
f 131/79/14 133/80/26 132/73/14
f 134/69/62 135/72/62 136/71/62
f 136/71/62 137/70/62 134/69/62
f 138/69/26 139/70/26 140/71/26
f 140/71/26 141/72/26 138/69/26
