# Blender v2.76 (sub 0) OBJ File: 'nn.blend'
# www.blender.org
mtllib nn_visor.mtl
o S-LoW.slow_nanosuit.smd.mesh_0.001
v 1.102163 2.151764 1.103369
v 1.491763 1.822159 0.936468
v 1.474463 2.174660 0.929867
v 1.491763 1.822159 0.936468
v 1.113663 1.815559 1.113167
v 1.878563 1.841759 0.678368
v 1.474463 2.174660 0.929867
v 2.248463 1.934357 0.331766
v 1.857763 2.207764 0.676167
v 2.248463 1.934357 0.331766
v 2.227163 2.249657 0.332968
v 2.524763 2.058357 -0.032034
v 2.227163 2.249657 0.332968
v 2.851163 2.303162 -0.752033
v 2.732963 2.245560 -0.431635
v 2.783563 2.003464 -0.525534
v 2.557663 1.722160 -0.086933
v 2.266763 1.537659 0.292267
v 1.857363 1.326363 0.656767
v 1.489463 1.281158 0.898067
v 1.091363 1.301559 1.093267
v 0.778363 1.824257 1.223867
v 0.758263 1.365463 1.207767
v 2.491363 2.312263 -0.010033
v 2.040363 0.996964 0.425467
v 2.814963 1.676460 -0.632433
v 2.581063 1.420563 -0.172033
v 1.164263 0.945663 1.003468
v 0.997263 0.824158 1.042368
v 1.438863 0.781662 0.822268
v 1.796063 0.798058 0.583868
v 1.355263 0.281258 0.691168
v 2.557663 1.722160 -0.086933
v 2.581063 1.420563 -0.172033
v 2.274863 1.177856 0.216467
v 2.266763 1.537659 0.292267
v 2.266763 1.537659 0.292267
v 2.274863 1.177856 0.216467
v -0.408237 2.120956 1.283468
v -0.410837 1.919159 1.293167
v -0.105637 1.945358 1.318666
v -0.105437 1.743057 1.321768
v 0.200963 1.919357 1.315168
v 0.202563 1.688957 1.315866
v 0.480163 1.868958 1.285566
v 0.482963 1.552963 1.279467
v 0.769563 2.135658 1.213266
v 0.198963 2.121162 1.305269
v -0.105137 2.118462 1.309566
v 0.475263 2.126762 1.274668
v -0.105637 1.945358 1.318666
v -0.105137 2.118462 1.309566
v -0.410837 1.919159 1.293167
v -0.408237 2.120956 1.283468
v -0.681437 2.126358 1.233067
v -0.686937 1.868660 1.243567
v -0.412237 1.688759 1.293768
v -0.686937 1.868660 1.243567
v -0.689237 1.552658 1.237167
v -1.609137 0.780762 0.712667
v -1.267037 0.511360 0.830366
v -1.184437 0.823563 0.963867
v -2.877837 1.674660 -0.837332
v -2.854337 2.001762 -0.728434
v -2.905537 2.301262 -0.959333
v -1.267037 0.511360 0.830366
v -1.609137 0.780762 0.712667
v -1.516137 0.280357 0.587767
v -1.948437 0.796860 0.449167
v -2.015137 1.325157 0.517366
v -2.180637 0.995659 0.273767
v -1.516137 0.280357 0.587767
v -1.948437 0.796860 0.449167
v -1.720137 0.017960 0.279367
v -1.184437 0.823563 0.963867
v -0.958537 1.364960 1.145967
v -1.282437 1.300758 1.007868
v -0.689237 1.552658 1.237167
v -0.686937 1.868660 1.243567
v -0.979837 1.823761 1.160568
v -0.970637 2.135162 1.150667
v -1.306437 1.814857 1.026068
v -1.670737 1.821259 0.822767
v -1.294537 2.151062 1.017168
v -1.653337 2.173660 0.817167
v -1.670737 1.821259 0.822767
v -2.038137 1.840462 0.537367
v -1.653337 2.173660 0.817167
v -2.017537 2.206459 0.536667
v -2.038137 1.840462 0.537367
v -2.382237 1.932961 0.165169
v -2.017537 2.206459 0.536667
v -1.282437 1.300758 1.007868
v -0.958537 1.364960 1.145967
v -1.665537 1.280159 0.784468
v -2.015137 1.325157 0.517366
v -2.397237 1.536263 0.124367
v -2.660337 1.720558 -0.274532
v -2.631637 2.056763 -0.217533
v -2.854337 2.001762 -0.728434
v -2.810837 2.243858 -0.631132
v -2.905537 2.301262 -0.959333
v -2.180637 0.995659 0.273767
v -2.361137 2.248268 0.167868
v -2.677337 1.418861 -0.361233
v -2.600137 2.310760 -0.193335
v -2.877837 1.674660 -0.837332
v -2.361137 2.248268 0.167868
v -2.382237 1.932961 0.165169
v -1.348437 0.944862 0.912968
v -1.184437 0.823563 0.963867
v -1.609137 0.780762 0.712667
v -1.948437 0.796860 0.449167
v -1.516137 0.280357 0.587767
v -2.810837 2.243858 -0.631132
v -2.808237 2.482758 -0.690033
v -2.399737 1.176361 0.048367
v -2.397237 1.536263 0.124367
v -2.677337 1.418861 -0.361233
v -2.660337 1.720558 -0.274532
v 0.769563 2.135658 1.213266
v 1.113663 1.815559 1.113167
v 1.102163 2.151764 1.103369
v -2.600137 2.310760 -0.193335
v -2.808237 2.482758 -0.690033
v -2.810837 2.243858 -0.631132
v 1.878563 1.841759 0.678368
v 1.857763 2.207764 0.676167
v 2.524763 2.058357 -0.032034
v 2.491363 2.312263 -0.010033
v 1.355263 0.281258 0.691168
v 1.581263 0.019058 0.398270
v 1.796063 0.798058 0.583868
v 2.732963 2.245560 -0.431635
v 2.734563 2.484459 -0.490633
v 2.491363 2.312263 -0.010033
v 2.732963 2.245560 -0.431635
v 2.734563 2.484459 -0.490633
v -0.686937 1.868660 1.243567
v -0.681437 2.126358 1.233067
v -0.970637 2.135162 1.150667
v -2.397237 1.536263 0.124367
v -2.399737 1.176361 0.048367
v -2.600137 2.310760 -0.193335
v -2.631637 2.056763 -0.217533
v -0.970637 2.135162 1.150667
v -1.294537 2.151062 1.017168
v -1.306437 1.814857 1.026068
v 1.089263 0.512062 0.915266
v 1.355263 0.281258 0.691168
v 1.438863 0.781662 0.822268
v -0.979837 1.823761 1.160568
v -0.958537 1.364960 1.145967
v -0.410837 1.919159 1.293167
v -0.412237 1.688759 1.293768
v -0.105437 1.743057 1.321768
v 1.438863 0.781662 0.822268
v 0.997263 0.824158 1.042368
v 1.089263 0.512062 0.915266
v 0.778363 1.824257 1.223867
v 0.482963 1.552963 1.279467
v 0.758263 1.365463 1.207767
v 2.814963 1.676460 -0.632433
v 2.851163 2.303162 -0.752033
v 2.783563 2.003464 -0.525534
v 0.997263 0.824158 1.042368
v 1.091363 1.301559 1.093267
v 0.758263 1.365463 1.207767
v 1.796063 0.798058 0.583868
v 2.040363 0.996964 0.425467
v 1.857363 1.326363 0.656767
vt 0.310700 -2.202700
vt 0.430800 -2.310200
vt 0.419500 -2.178900
vt 0.319800 -2.328200
vt 0.556200 -2.287100
vt 0.690000 -2.237200
vt 0.543200 -2.150800
vt 0.677600 -2.119900
vt 0.805200 -2.179400
vt 0.984800 -2.074300
vt 0.909600 -2.100700
vt 0.941400 -2.189300
vt 0.829200 -2.304000
vt 0.709900 -2.385100
vt 0.567300 -2.481000
vt 0.449400 -2.513000
vt 0.330400 -2.521700
vt 0.228300 -2.338700
vt 0.237500 -2.511400
vt 0.788300 -2.085700
vt 0.652000 -2.596900
vt 0.973000 -2.310500
vt 0.855100 -2.416000
vt 0.369200 -2.652000
vt 0.332200 -2.703600
vt 0.462200 -2.702200
vt 0.578100 -2.681400
vt 0.476500 -2.893100
vt 0.732200 -2.519500
vt 0.080800 -2.251200
vt 0.084500 -2.326700
vt 0.016500 -2.329400
vt 0.020900 -2.405200
vt 0.090300 -2.412900
vt 0.151900 -2.334200
vt 0.161100 -2.452400
vt 0.220600 -2.222400
vt 0.013900 -2.264500
vt 0.146300 -2.237800
vt 0.377100 -2.817500
vt 0.578800 -2.982000
vt 0.913500 -2.011100
vn 0.422500 0.040900 0.905400
vn 0.420200 0.037600 0.906600
vn 0.501100 -0.019300 0.865200
vn 0.422400 0.040800 0.905500
vn 0.379900 -0.015300 0.924900
vn 0.632600 -0.016600 0.774300
vn 0.553000 0.042700 0.832100
vn 0.751900 -0.000100 0.659200
vn 0.677400 0.042900 0.734400
vn 0.677400 0.043000 0.734400
vn 0.848100 0.022100 0.529300
vn 0.787000 0.050500 0.614900
vn 0.930200 0.082000 0.357800
vn 0.903800 0.035700 0.426500
vn 0.905300 0.000000 0.424800
vn 0.839700 -0.039900 0.541600
vn 0.739000 -0.059300 0.671100
vn 0.615000 -0.102500 0.781800
vn 0.499000 -0.116600 0.858700
vn 0.390400 -0.084400 0.916800
vn 0.269100 0.005300 0.963100
vn 0.316600 -0.047100 0.947400
vn 0.870300 0.072300 0.487300
vn 0.693000 -0.114800 0.711800
vn 0.901400 -0.053900 0.429700
vn 0.812200 -0.099200 0.574800
vn 0.402000 -0.200600 0.893400
vn 0.370900 -0.220900 0.902000
vn 0.516100 -0.228900 0.825300
vn 0.549400 -0.219700 0.806200
vn 0.539500 -0.296600 0.788000
vn 0.901400 -0.053800 0.429700
vn 0.901600 -0.051300 0.429600
vn 0.713200 -0.129000 0.689000
vn 0.812200 -0.099400 0.574800
vn 0.811500 -0.102900 0.575300
vn -0.085200 0.052500 0.995000
vn -0.086500 0.039100 0.995500
vn -0.026100 0.030600 0.999200
vn -0.022000 0.012300 0.999700
vn 0.062700 0.027600 0.997700
vn 0.075200 -0.003000 0.997200
vn 0.158600 0.015000 0.987200
vn 0.154900 -0.017700 0.987800
vn 0.243500 0.041700 0.969000
vn 0.062200 0.050100 0.996800
vn 0.013600 0.052500 0.998500
vn 0.157700 0.045800 0.986400
vn -0.085200 0.052600 0.995000
vn -0.180100 0.018700 0.983500
vn -0.180300 0.049500 0.982400
vn -0.184400 0.044000 0.981900
vn -0.182000 0.029700 0.982800
vn -0.177500 0.003600 0.984100
vn -0.191400 -0.018500 0.981300
vn -0.177400 0.003700 0.984100
vn -0.477000 -0.235800 0.846700
vn -0.976700 -0.001400 0.214800
vn -0.511000 -0.296400 0.806900
vn -0.685500 -0.177700 0.706100
vn -0.627600 -0.337000 0.701800
vn -0.360400 -0.158800 0.919200
vn -0.292800 -0.044000 0.955200
vn -0.273200 0.004000 0.961900
vn -0.337600 0.004900 0.941300
vn -0.329100 0.039700 0.943500
vn -0.445300 -0.015600 0.895200
vn -0.562000 -0.019500 0.826900
vn -0.486400 0.040300 0.872800
vn -0.486300 0.040300 0.872900
vn -0.484700 0.037800 0.873900
vn -0.686600 -0.017100 0.726800
vn -0.611500 0.042700 0.790100
vn -0.611500 0.042800 0.790100
vn -0.607800 0.035700 0.793300
vn -0.797400 -0.000700 0.603500
vn -0.728400 0.042300 0.683900
vn -0.455200 -0.084700 0.886300
vn -0.383800 -0.047200 0.922200
vn -0.559400 -0.117000 0.820600
vn -0.669700 -0.102800 0.735500
vn -0.785200 -0.060100 0.616300
vn -0.876300 -0.040500 0.480000
vn -0.884000 0.021700 0.467000
vn -0.933500 -0.000500 0.358500
vn -0.932200 0.035000 0.360300
vn -0.953600 0.081900 0.289600
vn -0.742400 -0.115100 0.660000
vn -0.829100 0.050400 0.556900
vn -0.851200 -0.100100 0.515200
vn -0.903000 0.071600 0.423600
vn -0.929900 -0.054300 0.363800
vn -0.728400 0.042400 0.683800
vn -0.728600 0.042900 0.683600
vn -0.465000 -0.201000 0.862200
vn -0.434600 -0.221200 0.873100
vn -0.573800 -0.229300 0.786200
vn -0.605700 -0.220000 0.764700
vn -0.594400 -0.297000 0.747300
vn -0.953700 0.081800 0.289500
vn -0.851200 -0.099900 0.515200
vn -0.850600 -0.103000 0.515600
vn -0.929900 -0.054500 0.363800
vn -0.930100 -0.052100 0.363700
vn 0.311800 0.038300 0.949400
vn -0.902000 0.112600 0.416900
vn 0.549400 0.036200 0.834800
vn 0.786900 0.050600 0.615000
vn 0.786800 0.050200 0.615200
vn 0.575700 -0.336300 0.745300
vn 0.930100 0.082200 0.357900
vn 0.869700 0.112800 0.480500
vn -0.272500 0.045000 0.961100
vn -0.742400 -0.115000 0.660000
vn -0.760800 -0.129000 0.636100
vn -0.829100 0.050400 0.556800
vn -0.829000 0.049700 0.557100
vn -0.379200 0.037900 0.924500
vn 0.452100 -0.296000 0.841400
vn -0.091400 0.003200 0.995800
vn 0.415300 -0.235400 0.878700
vn 0.223600 -0.044000 0.973700
vn 0.958600 -0.001000 0.284700
vn 0.293700 -0.158400 0.942700
vn 0.633000 -0.177400 0.753500
usemtl None
s 1
f 1/1/1 2/2/2 3/3/2
f 4/2/3 1/1/4 5/4/5
f 6/5/6 7/3/7 4/2/3
f 8/6/8 9/7/9 6/5/6
f 9/7/10 10/6/10 11/8/10
f 12/9/11 13/8/12 8/6/8
f 14/10/13 15/11/14 16/12/15
f 12/9/11 16/12/15 15/11/14
f 16/12/15 12/9/11 17/13/16
f 8/6/8 17/13/16 12/9/11
f 17/13/16 8/6/8 18/14/17
f 6/5/6 18/14/17 8/6/8
f 18/14/17 6/5/6 19/15/18
f 4/2/3 19/15/18 6/5/6
f 19/15/18 4/2/3 20/16/19
f 5/4/5 20/16/19 4/2/3
f 20/16/19 5/4/5 21/17/20
f 22/18/21 21/17/20 5/4/5
f 21/17/20 22/18/21 23/19/22
f 24/20/23 12/9/11 15/11/14
f 19/15/18 25/21/24 18/14/17
f 17/13/16 26/22/25 16/12/15
f 18/14/17 27/23/26 17/13/16
f 28/24/27 20/16/19 21/17/20
f 21/17/20 29/25/28 28/24/27
f 29/25/28 30/26/29 28/24/27
f 20/16/19 28/24/27 30/26/29
f 31/27/30 20/16/19 30/26/29
f 20/16/19 31/27/30 19/15/18
f 32/28/31 31/27/30 30/26/29
f 26/22/32 33/13/33 34/23/33
f 25/21/24 35/29/34 36/14/34
f 27/23/35 37/14/36 38/29/36
f 39/30/37 40/31/38 41/32/39
f 42/33/40 41/32/39 40/31/38
f 42/33/40 43/31/41 41/32/39
f 43/31/41 42/33/40 44/34/42
f 44/34/42 45/35/43 43/31/41
f 45/35/43 44/34/42 46/36/44
f 46/36/44 22/18/21 45/35/43
f 47/37/45 45/35/43 22/18/21
f 5/4/5 47/37/45 22/18/21
f 41/32/39 48/30/46 49/38/47
f 48/30/46 41/32/39 43/31/41
f 43/31/41 50/39/48 48/30/46
f 50/39/48 43/31/41 45/35/43
f 45/35/43 47/37/45 50/39/48
f 51/32/49 52/38/49 39/30/49
f 53/31/50 54/30/51 55/39/52
f 55/39/52 56/35/53 53/31/50
f 57/34/54 53/31/50 56/35/53
f 58/35/55 59/36/55 57/34/56
f 60/26/57 61/40/57 62/25/57
f 63/22/58 64/12/58 65/10/58
f 66/40/59 67/26/59 68/28/59
f 69/27/60 70/15/60 71/21/60
f 72/28/61 73/27/61 74/41/61
f 75/25/62 76/19/62 77/17/62
f 78/36/63 79/35/64 80/18/65
f 81/37/66 80/18/65 79/35/64
f 82/4/67 80/18/65 81/37/66
f 83/2/68 82/4/67 84/1/69
f 84/1/70 85/3/71 86/2/71
f 87/5/72 83/2/68 88/3/73
f 88/3/74 89/7/75 90/5/75
f 91/6/76 87/5/72 92/7/77
f 93/17/78 94/19/79 80/18/65
f 80/18/65 82/4/67 93/17/78
f 95/16/80 93/17/78 82/4/67
f 82/4/67 83/2/68 95/16/80
f 96/15/81 95/16/80 83/2/68
f 83/2/68 87/5/72 96/15/81
f 97/14/82 96/15/81 87/5/72
f 87/5/72 91/6/76 97/14/82
f 98/13/83 97/14/82 91/6/76
f 91/6/76 99/9/84 98/13/83
f 100/12/85 98/13/83 99/9/84
f 99/9/84 101/11/86 100/12/85
f 102/10/87 100/12/85 101/11/86
f 96/15/81 97/14/82 103/21/88
f 99/9/84 91/6/76 104/8/89
f 97/14/82 98/13/83 105/23/90
f 106/20/91 101/11/86 99/9/84
f 98/13/83 100/12/85 107/22/92
f 92/7/93 108/8/94 109/6/94
f 110/24/95 93/17/78 95/16/80
f 93/17/78 110/24/95 111/25/96
f 111/25/96 110/24/95 112/26/97
f 95/16/80 112/26/97 110/24/95
f 113/27/98 112/26/97 95/16/80
f 95/16/80 96/15/81 113/27/98
f 114/28/99 112/26/97 113/27/98
f 115/11/100 116/42/100 102/10/100
f 105/23/101 117/29/102 118/14/102
f 107/22/103 119/23/104 120/13/104
f 121/37/105 122/4/105 123/1/105
f 124/20/106 125/42/106 126/11/106
f 7/3/7 127/5/107 128/7/107
f 13/8/108 129/9/109 130/20/109
f 131/28/110 132/41/110 133/27/110
f 134/11/111 14/10/111 135/42/111
f 136/20/112 137/11/112 138/42/112
f 139/35/113 140/39/113 141/37/113
f 103/21/114 142/14/115 143/29/115
f 104/8/116 144/20/117 145/9/117
f 146/37/118 147/1/118 148/4/118
f 149/40/119 150/28/119 151/26/119
f 152/18/63 153/19/63 78/36/63
f 154/31/120 155/34/120 156/33/120
f 157/26/121 158/25/121 159/40/121
f 160/18/122 161/36/122 162/19/122
f 163/22/123 164/10/123 165/12/123
f 166/25/124 167/17/124 168/19/124
f 169/27/125 170/21/125 171/15/125
