# Blender v2.76 (sub 0) OBJ File: 'predator.blend'
# www.blender.org
mtllib p_larm.mtl
o ct_gign.ct_gign_reference.smd.mesh_2.006_ct_gign.ct_gign_reference.smd.mesh_2.007
v -2.771803 9.333308 -0.444440
v -2.434204 8.342711 0.524965
v -1.560227 9.667260 1.055391
v -1.879679 9.508604 -1.754450
v -1.510101 10.579212 -0.763114
v -0.730498 10.736236 -2.265687
v -1.794433 10.454618 -0.085447
v -2.713814 8.750567 -1.399334
v -2.099312 10.338346 0.260160
v -0.104998 10.976163 1.651291
v -0.397977 10.999875 -0.449117
v -1.874959 1.341718 -1.437548
v -0.733132 1.051288 -1.752189
v -0.567433 0.152921 -0.012872
v -2.418466 2.109859 0.116307
v -1.856958 1.054033 0.504805
v -2.151552 2.883237 0.745109
v -1.614491 0.755620 0.022763
v -2.524685 2.350802 -1.022923
v -1.384788 0.460122 -0.579103
v -0.409829 1.319335 1.512759
v -1.613743 1.700722 1.194404
v -0.409829 1.319335 1.512759
v -0.567433 0.152921 -0.012872
v 1.164765 1.149853 1.843047
v 0.907683 0.180122 0.113882
v 1.383146 0.272182 -0.766982
v 2.302357 0.435371 -0.360577
v 0.983401 1.096509 -2.127147
v -0.733132 1.051288 -1.752189
v 0.463991 0.150179 0.730424
v 2.531522 1.390957 1.689031
v 3.018045 1.398113 0.502072
v 2.737180 0.525238 -0.277521
v 3.182634 2.482673 -0.449117
v 2.892966 1.421013 -1.226930
v 2.341178 1.856342 -2.219720
v 1.699143 8.645353 -3.439581
v 0.738857 9.940689 -3.113489
v 2.875304 10.038733 -2.699019
v 3.482609 10.123631 1.428088
v 2.534109 11.032662 1.496149
v 2.592886 8.790825 2.594088
v 1.595044 10.146916 2.340409
v 2.000923 11.016438 0.483683
v -0.104998 10.976163 1.651291
v 1.126640 10.967442 -0.503140
v -0.397977 10.999875 -0.449117
v 1.663013 10.910629 -1.641237
v -0.730498 10.736236 -2.265687
v 1.885679 10.886190 -2.626606
v 3.931399 9.897200 -0.826972
v 0.863578 7.426325 2.391044
v -0.234658 6.448111 1.858204
v 1.394280 5.615390 2.546676
v -0.104998 10.976163 1.651291
v -1.560227 9.667260 1.055391
v 1.595044 10.146916 2.340409
v 2.592886 8.790825 2.594088
v 2.845069 5.702500 2.535543
v 3.482609 10.123631 1.428088
v 3.534009 7.477237 1.652417
v 3.931399 9.897200 -0.826972
v 3.591605 5.721282 0.846871
v 2.995016 7.446083 -2.740628
v 2.875304 10.038733 -2.699019
v 3.488732 4.009496 0.325153
v 3.644489 4.905606 -0.624418
v 3.331783 5.736465 -1.980395
v 2.125744 5.640140 -3.256053
v 1.699143 8.645353 -3.439581
v 1.141940 3.746401 -3.046561
v 3.182634 2.482673 -0.449117
v 2.892966 1.421013 -1.226930
v 3.363663 4.032552 -1.403848
v 2.341178 1.856342 -2.219720
v 0.983401 1.096509 -2.127147
v 0.558704 5.413729 -3.081559
v 0.032577 7.186518 -2.932549
v 0.738857 9.940689 -3.113489
v -0.906134 6.176741 -2.331326
v -0.730498 10.736236 -2.265687
v -1.736814 6.831386 -2.039414
v -1.879679 9.508604 -1.754450
v -2.084031 5.041561 -1.860245
v -2.713814 8.750567 -1.399334
v -2.853631 5.483805 -1.481582
v -0.733132 1.051288 -1.752189
v -2.351194 3.678372 -1.733972
v -2.948360 7.093028 -0.893254
v -2.771803 9.333308 -0.444440
v -2.784947 5.735469 -0.415735
v -2.434204 8.342711 0.524965
v -2.393491 5.022201 0.834285
v -2.636681 4.375327 0.144849
v -2.418466 2.109859 0.116307
v -2.524685 2.350802 -1.022923
v -1.874959 1.341718 -1.437548
v -2.151552 2.883237 0.745109
v 1.863502 3.870879 2.547158
v 1.164765 1.149853 1.843047
v 2.531522 1.390957 1.689031
v -1.613743 1.700722 1.194404
v -1.831943 3.966182 1.222955
v -2.151552 2.883237 0.745109
v -2.393491 5.022201 0.834285
v -1.526326 5.333200 1.239564
v -2.434204 8.342711 0.524965
v -1.133105 7.120296 1.415030
v -0.409829 1.319335 1.512759
v 3.018045 1.398113 0.502072
vt 0.754898 -0.751953
vt 0.800797 -0.753906
vt 0.807648 -0.722656
vt 0.710953 -0.721710
vt 0.745468 -0.711609
vt 0.712906 -0.693405
vt 0.761749 -0.720703
vt 0.709000 -0.750000
vt 0.774765 -0.731781
vt 0.814499 -0.691406
vt 0.763702 -0.692413
vt 0.706039 -0.720703
vt 0.753891 -0.751007
vt 0.752899 -0.690460
vt 0.768188 -0.710968
vt 0.802704 -0.689499
vt 0.750946 -0.721710
vt 0.703094 -0.691406
vt 0.736954 -0.731140
vt 0.798798 -0.751999
vt 0.800751 -0.720749
vt 0.341797 -0.003906
vt 0.411148 -0.003906
vt 0.332993 -0.026352
vt 0.402344 -0.026352
vt 0.423157 -0.039078
vt 0.394501 -0.056656
vt 0.472641 -0.034210
vt 0.480499 -0.003906
vt 0.382156 -0.018875
vt 0.324203 -0.048798
vt 0.359344 -0.068359
vt 0.394501 -0.067078
vt 0.394501 -0.087906
vt 0.429642 -0.076202
vt 0.464798 -0.064499
vt 0.332001 -0.003906
vt 0.332993 -0.031250
vt 0.378891 -0.003906
vt 0.468750 -0.007812
vt 0.458328 -0.037781
vt 0.511703 -0.011703
vt 0.474594 -0.054703
vt 0.431641 -0.050812
vt 0.437500 -0.097702
vt 0.399094 -0.053406
vt 0.385742 -0.078156
vt 0.379898 -0.031250
vt 0.334000 -0.058594
vt 0.363922 -0.022141
vt 0.425797 -0.003906
vt 0.622391 -0.495438
vt 0.650391 -0.543961
vt 0.601547 -0.542953
vt 0.664093 -0.400406
vt 0.690445 -0.418961
vt 0.615250 -0.399414
vt 0.566406 -0.398407
vt 0.565445 -0.543961
vt 0.515594 -0.398407
vt 0.531891 -0.495438
vt 0.464798 -0.398407
vt 0.514648 -0.543961
vt 0.498032 -0.591812
vt 0.464798 -0.542953
vt 0.585968 -0.591812
vt 0.464798 -0.687500
vt 0.514648 -0.688507
vt 0.564499 -0.689499
vt 0.595749 -0.688507
vt 0.596695 -0.542953
vt 0.615891 -0.495438
vt 0.610352 -0.399414
vt 0.640640 -0.543961
vt 0.654297 -0.400406
vt 0.662766 -0.508469
vt 0.680649 -0.418961
vt 0.666992 -0.562500
vt 0.707001 -0.437500
vt 0.704102 -0.560547
vt 0.626999 -0.687500
vt 0.678391 -0.602875
vt 0.733734 -0.519531
vt 0.750000 -0.437500
vt 0.747101 -0.560547
vt 0.792999 -0.437500
vt 0.797852 -0.559555
vt 0.765625 -0.600906
vt 0.751953 -0.682602
vt 0.701202 -0.683594
vt 0.664093 -0.685547
vt 0.802704 -0.681595
vt 0.589203 -0.591812
vt 0.600601 -0.688507
vt 0.673798 -0.685547
vt 0.688126 -0.602875
vt 0.710907 -0.683594
vt 0.713852 -0.560547
vt 0.676743 -0.562500
vt 0.716797 -0.437500
vt 0.672531 -0.508469
vt 0.636703 -0.687500
vn -0.939900 0.304200 0.155300
vn -0.778100 0.088700 0.621800
vn -0.597300 0.133900 0.790700
vn -0.696300 0.341300 -0.631400
vn -0.600100 0.782000 -0.168200
vn -0.713100 0.284300 -0.640800
vn -0.573600 0.797400 -0.187500
vn -0.774200 0.288400 -0.563400
vn -0.716700 0.626900 0.305500
vn -0.524400 0.311900 0.792300
vn -0.913300 0.384200 0.134900
vn -0.639300 -0.533000 -0.554200
vn -0.245100 -0.478200 -0.843400
vn -0.239900 -0.970100 0.037100
vn -0.929800 -0.268700 0.251400
vn -0.698600 -0.521300 0.490000
vn -0.789700 -0.142900 0.596500
vn -0.613900 -0.756300 0.226100
vn -0.959600 -0.263300 -0.099300
vn -0.419900 -0.906700 0.040100
vn -0.363100 -0.403000 0.840100
vn -0.385300 -0.349800 0.853900
vn -0.363100 -0.402900 0.840100
vn -0.188900 -0.465600 0.864600
vn 0.064400 -0.993500 -0.093500
vn 0.123900 -0.905100 -0.406700
vn 0.370100 -0.926900 -0.062000
vn -0.077500 -0.587500 -0.805500
vn -0.245200 -0.478200 -0.843400
vn 0.031700 -0.897100 0.440700
vn 0.563400 -0.581300 0.587100
vn 0.863000 -0.405100 0.302000
vn 0.767700 -0.640600 -0.012800
vn 0.977300 -0.203300 -0.059600
vn 0.826400 -0.418100 -0.377100
vn 0.562100 -0.462800 -0.685500
vn -0.020100 0.043500 -0.998900
vn -0.263500 0.400700 -0.877500
vn 0.515300 0.272800 -0.812400
vn 0.811700 0.423900 0.401900
vn 0.310100 0.790000 0.528800
vn 0.230000 0.174700 0.957400
vn -0.199000 0.472500 0.858600
vn 0.202400 0.978800 0.032200
vn 0.002600 0.999700 -0.026000
vn 0.048700 0.986400 -0.157100
vn -0.713100 0.284300 -0.640900
vn 0.187600 0.884100 -0.427900
vn 0.908800 0.395700 -0.132000
vn -0.322000 0.057300 0.945000
vn -0.431100 0.028300 0.901800
vn -0.233700 -0.046800 0.971200
vn -0.597300 0.133900 0.790800
vn 0.590300 -0.063000 0.804700
vn 0.929400 -0.018800 0.368600
vn 0.960900 -0.110600 0.253800
vn 0.766000 -0.022000 -0.642500
vn 0.984800 -0.152000 0.084600
vn 0.988200 -0.121900 -0.092300
vn 0.867000 -0.106100 -0.486900
vn 0.432100 -0.135000 -0.891700
vn -0.020000 0.043500 -0.998900
vn -0.101800 -0.185900 -0.977300
vn 0.910200 -0.156800 -0.383500
vn 0.562000 -0.462800 -0.685500
vn -0.375600 -0.121300 -0.918800
vn -0.428100 0.011800 -0.903700
vn -0.435800 -0.023700 -0.899700
vn -0.713100 0.284400 -0.640800
vn -0.447400 0.029400 -0.893800
vn -0.386600 -0.011400 -0.922200
vn -0.774200 0.288500 -0.563400
vn -0.882400 -0.079000 -0.463900
vn -0.245100 -0.478100 -0.843400
vn -0.500300 -0.130400 -0.856000
vn -0.999800 0.017300 0.004200
vn -0.939900 0.304300 0.155300
vn -0.975300 -0.030700 0.218800
vn -0.793500 -0.016600 0.608400
vn -0.974700 -0.063500 0.214200
vn -0.929900 -0.268700 0.251400
vn -0.789700 -0.142900 0.596600
vn 0.031200 -0.159900 0.986600
vn -0.497500 -0.029400 0.867000
vn -0.789800 -0.142900 0.596500
vn -0.793500 -0.016600 0.608300
vn -0.370100 0.027400 0.928600
vn -0.430400 0.006600 0.902600
usemtl None
s 1
f 1/1/1 2/2/2 3/3/3
f 4/4/4 5/5/5 6/6/6
f 7/7/7 5/5/5 4/4/4
f 8/8/8 7/7/7 4/4/4
f 8/8/8 1/1/1 7/7/7
f 1/1/1 9/9/9 7/7/7
f 9/9/9 1/1/1 3/3/3
f 9/9/9 3/3/3 10/10/10
f 7/7/7 9/9/9 10/10/10
f 7/7/7 10/10/10 11/11/11
f 5/5/5 7/7/7 11/11/11
f 5/5/5 11/11/11 6/6/6
f 12/12/12 13/8/13 14/13/14
f 15/14/15 16/15/16 17/16/17
f 18/17/18 16/15/16 15/14/15
f 19/18/19 18/17/18 15/14/15
f 19/18/19 12/12/12 18/17/18
f 12/12/12 20/19/20 18/17/18
f 20/19/20 12/12/12 14/13/14
f 20/19/20 14/13/14 21/20/21
f 18/17/18 20/19/20 21/20/21
f 18/17/18 21/20/21 22/21/22
f 16/15/16 18/17/18 22/21/22
f 16/15/16 22/21/22 17/16/17
f 23/22/23 24/23/14 25/24/24
f 26/25/25 27/26/26 28/27/27
f 27/26/26 26/25/25 29/28/28
f 26/25/25 30/29/29 29/28/28
f 24/23/14 30/29/29 26/25/25
f 31/30/30 24/23/14 26/25/25
f 24/23/14 31/30/30 25/24/24
f 25/24/24 31/30/30 32/31/31
f 31/30/30 26/25/25 32/31/31
f 32/31/31 26/25/25 28/27/27
f 32/31/31 28/27/27 33/32/32
f 28/27/27 34/33/33 33/32/32
f 33/32/32 34/33/33 35/34/34
f 34/33/33 36/35/35 35/34/34
f 34/33/33 28/27/27 36/35/35
f 28/27/27 37/36/36 36/35/35
f 28/27/27 27/26/26 37/36/36
f 27/26/26 29/28/28 37/36/36
f 38/37/37 39/38/38 40/39/39
f 41/40/40 42/41/41 43/42/42
f 42/41/41 44/43/43 43/42/42
f 42/41/41 45/44/44 44/43/43
f 45/44/44 46/45/10 44/43/43
f 45/44/44 47/46/45 46/45/10
f 47/46/45 48/47/11 46/45/10
f 47/46/45 49/48/46 48/47/11
f 49/48/46 50/49/47 48/47/11
f 39/38/38 50/49/47 49/48/46
f 51/50/48 39/38/38 49/48/46
f 39/38/38 51/50/48 40/39/39
f 40/39/39 51/50/48 52/51/49
f 51/50/48 49/48/46 52/51/49
f 52/51/49 49/48/46 45/44/44
f 49/48/46 47/46/45 45/44/44
f 45/44/44 42/41/41 41/40/40
f 52/51/49 45/44/44 41/40/40
f 53/52/50 54/53/51 55/54/52
f 56/55/10 57/56/53 54/53/51
f 56/55/10 54/53/51 58/57/43
f 54/53/51 53/52/50 58/57/43
f 58/57/43 53/52/50 59/58/42
f 53/52/50 55/54/52 59/58/42
f 59/58/42 55/54/52 60/59/54
f 59/58/42 60/59/54 61/60/40
f 60/59/54 62/61/55 61/60/40
f 61/60/40 62/61/55 63/62/49
f 62/61/55 64/63/56 63/62/49
f 62/61/55 60/59/54 64/63/56
f 65/61/57 66/60/39 63/62/49
f 64/63/56 67/64/58 68/65/59
f 63/62/49 64/63/56 68/65/59
f 63/62/49 68/65/59 69/63/60
f 69/63/60 65/61/57 63/62/49
f 70/59/61 65/61/57 69/63/60
f 65/61/57 70/59/61 66/60/39
f 70/59/61 71/58/62 66/60/39
f 70/59/61 72/66/63 71/58/62
f 68/65/59 73/67/34 74/68/35
f 75/64/64 68/65/59 74/68/35
f 68/65/59 75/64/64 69/63/60
f 69/63/60 75/64/64 76/69/65
f 76/69/65 70/59/61 69/63/60
f 76/69/65 77/70/28 70/59/61
f 77/70/28 72/66/63 70/59/61
f 72/66/63 77/70/28 78/71/66
f 72/66/63 78/71/66 71/58/62
f 78/71/66 79/72/67 71/58/62
f 79/72/67 80/73/38 71/58/62
f 79/72/67 81/74/68 80/73/38
f 81/74/68 82/75/69 80/73/38
f 81/74/68 83/76/70 82/75/69
f 83/76/70 84/77/4 82/75/69
f 83/76/70 85/78/71 84/77/4
f 85/78/71 86/79/72 84/77/4
f 87/80/73 86/79/72 85/78/71
f 75/64/64 74/68/35 76/69/65
f 81/74/68 79/72/67 78/71/66
f 88/81/74 81/74/68 78/71/66
f 77/70/28 88/81/74 78/71/66
f 89/82/75 87/80/73 85/78/71
f 90/83/76 91/84/77 86/79/72
f 87/80/73 90/83/76 86/79/72
f 92/85/78 90/83/76 87/80/73
f 90/83/76 92/85/78 91/84/77
f 92/85/78 93/86/2 91/84/77
f 94/87/79 93/86/2 92/85/78
f 95/88/80 94/87/79 92/85/78
f 94/87/79 95/88/80 96/89/81
f 96/89/81 95/88/80 97/90/19
f 95/88/80 92/85/78 97/90/19
f 97/90/19 92/85/78 87/80/73
f 97/90/19 87/80/73 98/91/12
f 87/80/73 89/82/75 98/91/12
f 98/91/12 89/82/75 88/81/74
f 89/82/75 85/78/71 88/81/74
f 88/81/74 85/78/71 81/74/68
f 85/78/71 83/76/70 81/74/68
f 99/92/82 94/87/79 96/89/81
f 100/93/83 101/94/24 102/69/31
f 103/95/22 104/96/84 105/97/85
f 104/96/84 106/98/86 105/97/85
f 104/96/84 107/99/87 106/98/86
f 107/99/87 108/100/2 106/98/86
f 57/56/53 108/100/2 107/99/87
f 109/101/88 57/56/53 107/99/87
f 57/56/53 109/101/88 54/53/51
f 54/53/51 109/101/88 110/102/23
f 54/53/51 110/102/23 55/54/52
f 55/54/52 110/102/23 101/94/24
f 100/93/83 55/54/52 101/94/24
f 55/54/52 100/93/83 60/59/54
f 60/59/54 100/93/83 102/69/31
f 60/59/54 102/69/31 64/63/56
f 64/63/56 102/69/31 111/68/32
f 67/64/58 64/63/56 111/68/32
f 67/64/58 111/68/32 73/67/34
f 68/65/59 67/64/58 73/67/34
f 107/99/87 104/96/84 103/95/22
f 110/102/23 107/99/87 103/95/22
f 109/101/88 107/99/87 110/102/23
