# Blender v2.76 (sub 0) OBJ File: 'untitled.blend'
# www.blender.org
mtllib piraka leg d.mtl
o Reidak.reidak.smd.mesh_1.006
v 0.902025 1.442447 -0.558043
v 0.785064 1.442447 -0.558043
v 0.688537 1.187150 -0.012740
v -0.969367 1.442446 -0.558043
v -0.872844 1.187149 -0.012740
v -0.570964 0.931847 0.532565
v -1.086327 1.442446 -0.558043
v 0.386662 0.931847 0.532565
v -0.559999 1.307877 0.037511
v -0.559999 1.472469 -0.970483
v -0.559999 1.239104 -0.954301
v -0.559999 0.899483 0.065829
v -0.559999 0.859028 -0.517588
v -0.559999 1.751319 0.475742
v -0.559999 1.340241 0.504247
v -0.559999 1.662283 -0.808294
v -0.559999 2.565423 0.419291
v -0.559999 2.782607 0.169745
v 0.375697 2.782607 0.169744
v 0.259437 2.782607 0.169744
v 0.375697 2.565423 0.419291
v 0.259437 2.565423 0.419291
v 0.259437 1.751319 0.475742
v 0.375697 1.751319 0.475742
v 0.375696 0.899483 0.065829
v 0.375696 0.859029 -0.517588
v 0.375696 1.239105 -0.954301
v 0.375696 1.307877 0.037511
v 0.375696 1.472470 -0.970483
v 0.375697 1.751319 0.475742
v 0.375696 1.662283 -0.808294
v 0.375697 2.565423 0.419291
v 0.375697 2.782607 0.169744
v 0.375697 1.340241 0.504247
v 0.375696 0.859029 -0.517588
v 0.482425 0.859029 -0.517588
v 0.375696 1.239105 -0.954301
v -0.666727 0.859028 -0.517588
v -0.559999 0.859028 -0.517588
v -0.559999 1.239104 -0.954301
v 0.375696 1.472470 -0.970483
v -0.559999 1.472469 -0.970483
v -0.559999 1.662283 -0.808294
v 0.375696 1.662283 -0.808294
v -0.092151 -2.896113 0.836556
v -0.423023 -2.566028 0.813668
v -0.423023 -2.806140 0.733176
v -0.092151 -2.556553 0.950393
v 0.238715 -2.806140 0.733175
v 0.238715 -2.566028 0.813668
v 0.375766 -2.588917 0.483583
v -0.423023 -2.371700 0.233997
v -0.423023 -2.611805 0.153504
v -0.560074 -2.588917 0.483583
v -0.423023 -2.838509 0.266365
v -0.092151 -2.621285 0.016778
v -0.092151 -2.941890 0.176392
v 0.238715 -2.611805 0.153504
v 0.238715 -2.838509 0.266365
v 0.238715 -2.919002 0.506471
v -0.092151 -3.055727 0.515952
v -0.423023 -2.919002 0.506471
v -0.423023 -2.339331 0.700806
v -0.092151 -2.235950 0.790779
v -0.092151 -2.281726 0.130616
v 0.238715 -2.371700 0.233997
v 0.238715 -2.339331 0.700806
v 0.238715 -2.258838 0.460695
v 0.238715 -2.371700 0.233997
v -0.092151 -2.122113 0.451214
v -0.092151 -2.281726 0.130616
v -0.423023 -2.258838 0.460695
v -0.423023 -2.371700 0.233997
v 0.083311 -1.784150 0.251898
v 0.083311 -2.343378 0.642444
v 0.083311 -2.367653 0.292359
v 0.083311 -1.759874 0.601983
v -0.267614 -1.784150 0.251899
v 0.083311 -2.367653 0.292359
v -0.267614 -2.367658 0.292359
v 0.083311 -1.784150 0.251898
v -0.267614 -1.759874 0.601983
v -0.267614 -2.367658 0.292359
v -0.267614 -2.343383 0.642444
v -0.267614 -1.784150 0.251899
v 0.083311 -1.759874 0.601983
v -0.267614 -2.343383 0.642444
v 0.083311 -2.343378 0.642444
v -0.267614 -1.759874 0.601983
v 0.386662 0.931847 0.532565
v -0.384558 -1.751881 0.718656
v 0.200256 -1.751881 0.718656
v -0.570964 0.931847 0.532565
v 0.386662 0.931847 0.532565
v 0.200256 -1.751881 0.718656
v 0.688537 1.187150 -0.012740
v 0.434177 -1.804472 -0.039790
v -0.384558 -1.751881 0.718656
v -0.618479 -1.804472 -0.039790
v 0.726584 -0.907410 -0.629594
v 0.902025 0.368021 -0.835277
v 0.902025 1.442447 -0.558043
v 0.785064 0.368021 -0.835277
v 0.785064 1.442447 -0.558043
v 0.560279 0.392294 -0.485224
v 0.609618 -0.907410 -0.629594
v 0.440296 -0.883138 -0.279542
v 0.317216 -1.804472 -0.039790
v -0.570964 0.931847 0.532565
v -0.872844 1.187149 -0.012740
v -0.793926 -0.907411 -0.629594
v -0.501519 -1.804472 -0.039790
v -0.910886 -0.907411 -0.629594
v -1.086327 0.368020 -0.835277
v -1.086327 1.442446 -0.558043
v -0.969367 1.442446 -0.558043
v -0.969367 0.368020 -0.835277
v -0.744582 0.392293 -0.485224
v -0.624599 -0.883138 -0.279542
v -0.559999 1.751319 0.475742
v 0.375696 1.662283 -0.808294
v -0.559999 1.662283 -0.808294
v 0.375697 1.751319 0.475742
v 0.259437 2.565423 0.419291
v 0.259437 1.662283 -0.808294
v 0.259437 1.751319 0.475742
v 0.259437 2.782607 0.169744
v 0.375697 2.782607 0.169744
v 0.259437 1.662283 -0.808294
v 0.259437 2.782607 0.169744
v 0.375696 1.662283 -0.808294
v -0.443739 2.565423 0.419291
v -0.443739 1.662283 -0.808294
v -0.443739 2.782607 0.169745
v -0.443739 1.751319 0.475742
v -0.559999 2.782607 0.169745
v -0.443739 1.662283 -0.808294
v -0.559999 1.662283 -0.808294
v -0.443739 2.782607 0.169745
v 0.375697 1.340241 0.504247
v -0.559999 1.751319 0.475742
v -0.559999 1.340241 0.504247
v 0.375697 1.751319 0.475742
v 0.375696 1.307877 0.037511
v -0.559999 0.899483 0.065829
v 0.375696 0.899483 0.065829
v -0.559999 1.307877 0.037511
v 0.375697 1.340241 0.504247
v -0.559999 1.340241 0.504247
v -0.559999 2.565423 0.419291
v -0.443739 2.782607 0.169745
v -0.559999 2.782607 0.169745
v -0.443739 2.565423 0.419291
v -0.443739 1.751319 0.475742
v -0.559999 1.751319 0.475742
v 0.560279 0.392294 -0.485224
v -0.092151 0.368021 -0.835277
v 0.785064 1.442447 -0.558043
v 0.440296 -0.883138 -0.279542
v -0.092151 -0.907410 -0.629594
v 0.317216 -1.804472 -0.039790
v -0.501519 -1.804472 -0.039790
v -0.624599 -0.883138 -0.279542
v -0.744582 0.392293 -0.485224
v -0.969367 1.442446 -0.558043
vt 0.587825 -1.124944
vt 0.595293 -1.124944
vt 0.601457 -1.158553
vt 0.707323 -1.124944
vt 0.701159 -1.158553
vt 0.681883 -1.192162
vt 0.714791 -1.124944
vt 0.620733 -1.192162
vt 0.475157 -1.046928
vt 0.459082 -1.115245
vt 0.475157 -1.115245
vt 0.503287 -1.046928
vt 0.503287 -1.087115
vt 0.446841 -1.014778
vt 0.475157 -1.014778
vt 0.446841 -1.103225
vt 0.390765 -1.014778
vt 0.374690 -1.030853
vt 0.338296 -1.063185
vt 0.338296 -1.054749
vt 0.341724 -1.063185
vt 0.341724 -1.054749
vt 0.364354 -1.054749
vt 0.364354 -1.063185
vt 0.813644 -1.028953
vt 0.813644 -1.021757
vt 0.801644 -1.028953
vt 0.813644 -1.099246
vt 0.813644 -1.092049
vt 0.801644 -1.092049
vt 0.783470 -1.028953
vt 0.783470 -1.092049
vt 0.769056 -1.092049
vt 0.769056 -1.028953
vt 0.401099 -1.453780
vt 0.391208 -1.466560
vt 0.401112 -1.466546
vt 0.391195 -1.453794
vt 0.401087 -1.441012
vt 0.391182 -1.441027
vt 0.401074 -1.428245
vt 0.440727 -1.466489
vt 0.430823 -1.466503
vt 0.401126 -1.479314
vt 0.420920 -1.466518
vt 0.430810 -1.453737
vt 0.420907 -1.453751
vt 0.430797 -1.440968
vt 0.420894 -1.440983
vt 0.410990 -1.440997
vt 0.411003 -1.453765
vt 0.411016 -1.466532
vt 0.381305 -1.466575
vt 0.381292 -1.453809
vt 0.440714 -1.453722
vt 0.440701 -1.440954
vt 0.381279 -1.441041
vt 0.371375 -1.441055
vt 0.361472 -1.441070
vt 0.371388 -1.453823
vt 0.361485 -1.453837
vt 0.371401 -1.466589
vt 0.361498 -1.466604
vt 0.377828 -1.495359
vt 0.328814 -1.479500
vt 0.328837 -1.495410
vt 0.377805 -1.479450
vt 0.377806 -1.479849
vt 0.328838 -1.495808
vt 0.328815 -1.479899
vt 0.377828 -1.495757
vt 0.377805 -1.479937
vt 0.328838 -1.495897
vt 0.328815 -1.479987
vt 0.233955 -1.067609
vt 0.415354 -1.119613
vt 0.415354 -1.080179
vt 0.233955 -1.132183
vt 0.500949 -1.015389
vt 0.682348 -1.015389
vt 0.481232 -1.050880
vt 0.682349 -1.066654
vt 0.619253 -1.102145
vt 0.532497 -1.110032
vt 0.461514 -1.086371
vt 0.532497 -1.086371
vt 0.619253 -1.078485
vt 0.364740 -1.063185
vt 0.339704 -1.002652
vt 0.339704 -1.063185
vt 0.364740 -1.002652
vt 0.687452 -1.092049
vt 0.770265 -1.084068
vt 0.687452 -1.084068
vt 0.770265 -1.092049
vt 0.364354 -1.002652
vt 0.337757 -1.063185
vt 0.337757 -1.002652
vt 0.473345 -1.046937
vt 0.500949 -1.046937
vt 0.473345 -1.015389
vt 0.845191 -1.016507
vt 0.845191 -1.060501
vt 0.774209 -1.001349
vt 0.931948 -1.024597
vt 0.931948 -1.060501
vt 0.995043 -1.032897
vt 0.995043 -1.088106
vt 0.931948 -1.096405
vt 0.845191 -1.104496
vt 0.774209 -1.119653
vn 0.661300 0.699000 -0.272200
vn -0.016100 0.891800 -0.452000
vn 0.639500 0.552800 0.534200
vn 0.016100 0.891800 -0.452000
vn -0.639400 0.552900 0.534200
vn -0.426500 0.445900 0.786900
vn -0.661300 0.699000 -0.272200
vn 0.426500 0.445900 0.786900
vn -0.904500 -0.279900 0.321600
vn -0.631000 0.243200 -0.736700
vn -0.630300 -0.346000 -0.695000
vn -0.707100 0.048900 0.705400
vn -0.832000 0.418400 0.364200
vn -0.666700 0.378600 0.642000
vn -0.577400 -0.536000 0.615900
vn -0.580500 0.671200 -0.461000
vn -0.630200 0.346000 0.695000
vn -0.577400 0.814500 -0.055900
vn 0.577400 0.814500 -0.055900
vn 0.630300 0.346000 0.695000
vn -0.630300 0.346100 0.695000
vn -0.707100 0.048600 0.705400
vn 0.666700 0.378700 0.642000
vn 0.707100 0.049100 0.705400
vn 0.832000 0.418400 0.364200
vn 0.630300 -0.346000 -0.695000
vn 0.904500 -0.279900 0.321600
vn 0.631000 0.243200 -0.736700
vn 0.666700 0.378600 0.642000
vn 0.580500 0.671200 -0.461000
vn 0.577400 -0.536100 0.615900
vn -0.765000 0.277000 0.581500
vn 0.630200 -0.346000 -0.695000
vn -0.491500 0.859600 -0.139600
vn 0.631000 0.243400 -0.736600
vn -0.631000 0.243400 -0.736600
vn -0.000000 -0.656500 0.754300
vn -0.663000 0.051800 0.746800
vn -0.663000 -0.491500 0.564700
vn 0.000000 0.069200 0.997600
vn 0.663000 -0.491500 0.564700
vn 0.663000 0.051800 0.746800
vn 1.000000 0.000000 -0.000000
vn -0.663000 0.491500 -0.564700
vn -0.663000 -0.051800 -0.746800
vn -1.000000 0.000000 -0.000000
vn -0.663000 -0.564700 -0.491500
vn 0.000000 -0.069200 -0.997600
vn 0.000000 -0.754300 -0.656500
vn 0.663000 -0.051800 -0.746800
vn 0.663000 -0.564700 -0.491500
vn 0.663000 -0.746800 0.051800
vn 0.000000 -0.997600 0.069200
vn -0.663000 -0.746800 0.051800
vn -0.663000 0.564700 0.491500
vn 0.000000 0.754300 0.656500
vn -0.000000 0.656500 -0.754300
vn 0.663000 0.491500 -0.564700
vn 0.663000 0.564700 0.491500
vn 0.663000 0.746800 -0.051800
vn 0.000000 0.997600 -0.069200
vn -0.663000 0.746800 -0.051800
vn 0.707100 -0.048600 -0.705400
vn 0.707100 0.048600 0.705400
vn 0.707100 -0.048900 -0.705400
vn 0.707100 0.048900 0.705400
vn -0.707100 -0.048600 -0.705400
vn 0.707100 -0.049200 -0.705400
vn -0.707100 -0.048900 -0.705400
vn -0.707100 0.048700 0.705400
vn -0.707100 -0.048700 -0.705400
vn 0.707100 0.048700 0.705400
vn -0.707100 0.049100 0.705400
vn 0.707100 0.049000 0.705400
vn -0.441900 -0.570900 0.691900
vn 0.441900 -0.571000 0.691900
vn 0.442000 -0.571000 0.691900
vn 0.639500 0.552900 0.534200
vn 0.606700 -0.756800 -0.243100
vn -0.441900 -0.571000 0.691900
vn -0.606700 -0.756800 -0.243100
vn 0.748700 -0.354600 -0.560100
vn 0.778000 -0.015500 -0.628100
vn -0.436000 0.065800 -0.897600
vn -0.016100 0.891800 -0.452100
vn -0.237000 -0.067700 -0.969200
vn -0.487400 -0.241900 -0.839000
vn -0.293000 -0.151700 -0.944000
vn 0.000600 -0.493200 -0.869900
vn 0.493600 -0.231100 -0.838400
vn -0.000600 -0.493200 -0.869900
vn -0.748300 -0.355100 -0.560400
vn -0.777700 -0.015000 -0.628400
vn 0.016100 0.891800 -0.452100
vn 0.441400 0.059400 -0.895400
vn 0.225100 -0.069900 -0.971800
vn 0.281200 -0.155800 -0.946900
vn -0.666600 0.378700 0.642100
vn -0.446500 0.588500 -0.674000
vn 0.580500 0.671300 -0.460900
vn 0.446500 0.588500 -0.674000
vn -0.580500 0.671300 -0.460900
vn 0.577300 -0.536100 0.615900
vn 0.904500 -0.280200 0.321400
vn -0.707100 0.049200 0.705400
vn -0.904500 -0.280100 0.321500
vn 0.577300 -0.536000 0.615900
vn 0.630200 0.346000 0.695000
vn -0.666700 0.378700 0.642000
vn 0.006100 -0.075800 -0.997100
vn -0.016200 0.891800 -0.452100
vn 0.008400 -0.283600 -0.958900
vn 0.281200 -0.155900 -0.946900
vn 0.016200 0.891800 -0.452100
usemtl None
s 1
f 1/1/1 2/2/2 3/3/3
f 3/3/3 2/2/2 4/4/4
f 3/3/3 4/4/4 5/5/5
f 6/6/6 3/3/3 5/5/5
f 5/5/5 4/4/4 7/7/7
f 8/8/8 3/3/3 6/6/6
f 9/9/9 10/10/10 11/11/11
f 9/9/9 11/11/11 12/12/12
f 12/12/12 11/11/11 13/13/13
f 14/14/14 9/9/9 15/15/15
f 14/14/14 10/10/10 9/9/9
f 14/14/14 16/16/16 10/10/10
f 17/17/17 16/16/16 14/14/14
f 18/18/18 16/16/16 17/17/17
f 19/19/19 20/20/18 21/21/20
f 21/21/20 20/20/18 22/22/21
f 23/23/22 21/21/20 22/22/21
f 24/24/23 21/21/20 23/23/22
f 25/12/24 26/13/25 27/11/26
f 25/12/24 27/11/26 28/9/27
f 28/9/27 27/11/26 29/10/28
f 28/9/27 29/10/28 30/14/29
f 30/14/29 29/10/28 31/16/30
f 30/14/29 31/16/30 32/17/20
f 32/17/20 31/16/30 33/18/19
f 30/14/29 34/15/31 28/9/27
f 35/25/25 36/26/32 37/27/33
f 37/27/33 36/26/32 38/28/34
f 38/28/34 39/29/13 37/27/33
f 37/27/33 39/29/13 40/30/11
f 37/27/33 40/30/11 41/31/35
f 41/31/35 40/30/11 42/32/36
f 43/33/16 41/31/35 42/32/36
f 44/34/30 41/31/35 43/33/16
f 45/35/37 46/36/38 47/37/39
f 45/35/37 48/38/40 46/36/38
f 49/39/41 48/38/40 45/35/37
f 49/39/41 50/40/42 48/38/40
f 51/41/43 50/40/42 49/39/41
f 52/42/44 53/43/45 54/44/46
f 53/43/45 55/45/47 54/44/46
f 56/46/48 55/45/47 53/43/45
f 56/46/48 57/47/49 55/45/47
f 58/48/50 57/47/49 56/46/48
f 58/48/50 59/49/51 57/47/49
f 51/41/43 59/49/51 58/48/50
f 60/50/52 59/49/51 51/41/43
f 60/50/52 51/41/43 49/39/41
f 60/50/52 49/39/41 61/51/53
f 61/51/53 49/39/41 45/35/37
f 61/51/53 45/35/37 62/52/54
f 62/52/54 45/35/37 47/37/39
f 47/37/39 54/44/46 62/52/54
f 47/37/39 46/36/38 54/44/46
f 46/36/38 63/53/55 54/44/46
f 48/38/40 63/53/55 46/36/38
f 48/38/40 64/54/56 63/53/55
f 60/50/52 57/47/49 59/49/51
f 61/51/53 57/47/49 60/50/52
f 61/51/53 55/45/47 57/47/49
f 62/52/54 55/45/47 61/51/53
f 62/52/54 54/44/46 55/45/47
f 65/55/57 53/43/45 52/42/44
f 65/55/57 56/46/48 53/43/45
f 66/56/58 56/46/48 65/55/57
f 66/56/58 58/48/50 56/46/48
f 51/41/43 58/48/50 66/56/58
f 50/40/42 64/54/56 48/38/40
f 50/40/42 67/57/59 64/54/56
f 51/41/43 67/57/59 50/40/42
f 68/58/60 67/57/59 51/41/43
f 68/58/60 51/41/43 69/59/58
f 68/58/60 69/59/58 70/60/61
f 70/60/61 69/59/58 71/61/57
f 70/60/61 71/61/57 72/62/62
f 72/62/62 71/61/57 73/63/44
f 73/63/44 54/44/46 72/62/62
f 72/62/62 54/44/46 63/53/55
f 72/62/62 63/53/55 70/60/61
f 70/60/61 63/53/55 64/54/56
f 70/60/61 64/54/56 68/58/60
f 68/58/60 64/54/56 67/57/59
f 74/64/63 75/65/64 76/66/65
f 77/67/66 75/65/64 74/64/63
f 78/68/67 79/69/68 80/70/69
f 81/71/65 79/69/68 78/68/67
f 82/72/70 83/73/71 84/74/12
f 85/71/69 83/73/71 82/72/70
f 86/71/72 87/70/73 88/69/74
f 89/68/12 87/70/73 86/71/72
f 90/75/8 91/76/75 92/77/76
f 93/78/6 91/76/75 90/75/8
f 94/79/8 95/80/77 96/81/78
f 97/82/79 98/80/80 99/82/81
f 95/80/77 98/80/80 97/82/79
f 95/80/77 97/82/79 100/83/82
f 100/83/82 96/81/78 95/80/77
f 101/84/83 96/81/78 100/83/82
f 101/84/83 102/85/1 96/81/78
f 103/84/84 102/85/1 101/84/83
f 104/85/85 102/85/1 103/84/84
f 104/85/85 103/84/84 105/86/86
f 105/86/86 103/84/84 106/83/87
f 105/86/86 106/83/87 107/87/88
f 107/87/88 106/83/87 108/82/89
f 106/83/87 100/83/82 108/82/89
f 108/82/89 100/83/82 97/82/79
f 106/83/87 101/84/83 100/83/82
f 103/84/84 101/84/83 106/83/87
f 98/80/80 109/79/6 110/81/5
f 99/82/81 111/83/90 112/82/91
f 113/83/92 111/83/90 99/82/81
f 98/80/80 113/83/92 99/82/81
f 98/80/80 114/84/93 113/83/92
f 110/81/5 114/84/93 98/80/80
f 110/81/5 115/85/7 114/84/93
f 115/85/7 116/85/94 114/84/93
f 114/84/93 116/85/94 117/84/95
f 118/86/96 117/84/95 116/85/94
f 119/87/97 117/84/95 118/86/96
f 119/87/97 111/83/90 117/84/95
f 112/82/91 111/83/90 119/87/97
f 113/83/92 117/84/95 111/83/90
f 114/84/93 117/84/95 113/83/92
f 120/88/98 121/89/30 122/90/16
f 123/91/29 121/89/30 120/88/98
f 124/17/17 125/16/99 126/14/12
f 127/18/18 125/16/99 124/17/17
f 128/92/19 129/93/99 130/94/18
f 131/95/100 129/93/99 128/92/19
f 132/17/20 133/16/101 134/18/19
f 135/14/24 133/16/101 132/17/20
f 136/92/18 137/93/101 138/95/102
f 139/94/19 137/93/101 136/92/18
f 140/96/103 141/97/14 142/24/15
f 143/98/29 141/97/14 140/96/103
f 144/99/104 145/100/105 146/100/66
f 147/99/106 145/100/105 144/99/104
f 148/101/107 147/99/106 144/99/104
f 149/101/15 147/99/106 148/101/107
f 150/21/21 151/20/19 152/19/18
f 153/22/108 151/20/19 150/21/21
f 153/22/108 150/21/21 154/23/66
f 154/23/66 150/21/21 155/24/109
f 156/102/86 157/103/110 158/104/111
f 159/105/88 157/103/110 156/102/86
f 159/105/88 160/106/112 157/103/110
f 161/107/89 160/106/112 159/105/88
f 161/107/89 162/108/91 160/106/112
f 163/109/113 160/106/112 162/108/91
f 164/110/96 160/106/112 163/109/113
f 164/110/96 157/103/110 160/106/112
f 165/111/114 157/103/110 164/110/96
f 165/111/114 158/104/111 157/103/110
