# Blender v2.76 (sub 0) OBJ File: 'untitled.blend'
# www.blender.org
mtllib piraka leg u.mtl
o Reidak.reidak.smd.mesh_1.002
v -0.122417 0.896217 -0.871617
v -0.096983 1.061628 -0.688437
v 0.137985 -0.070594 -0.314783
v 0.118993 0.866745 -0.318381
v 0.215086 -0.505206 0.122990
v 0.200861 0.837558 0.200730
v -0.031350 -0.235193 0.473520
v -0.042483 0.815664 0.534358
v -0.362572 -0.516563 0.213453
v -0.376796 0.826201 0.291193
v -0.439673 -0.081950 -0.224320
v -0.458665 0.855388 -0.227918
v -0.373752 1.056188 -0.645094
v -0.399187 0.890776 -0.828274
v -0.063947 -0.346000 -0.654199
v -0.053614 -0.466005 -0.603281
v -0.340716 -0.351442 -0.610856
v -0.330382 -0.471445 -0.559938
v 0.340207 1.492885 0.037709
v 0.201332 1.820529 0.078033
v 0.238749 1.710813 0.303188
v -0.126938 1.950921 0.137135
v -0.074023 1.795755 0.455549
v -0.452315 1.807678 0.180396
v -0.414897 1.697962 0.405551
v -0.584185 1.474711 0.182472
v -0.397349 1.459025 0.487608
v -0.049206 1.457849 0.571597
v 0.256297 1.471875 0.385245
v 0.243698 1.243690 0.276144
v 0.208330 1.159924 0.039787
v -0.067024 1.135150 0.417303
v -0.117041 1.016681 0.083047
v -0.409948 1.230840 0.378507
v -0.445316 1.147073 0.142149
v -0.482732 1.256788 -0.083001
v -0.169955 1.171846 -0.235362
v 0.170914 1.269639 -0.185365
v 0.165965 1.736761 -0.158320
v 0.153366 1.508571 -0.267420
v -0.176954 1.832452 -0.197115
v -0.194772 1.509745 -0.351411
v -0.487681 1.723910 -0.055957
v -0.500280 1.495720 -0.165057
v -0.482732 1.256788 -0.083001
v -0.169955 1.171846 -0.235362
v 0.170914 1.269639 -0.185365
v -0.149123 -0.794689 -0.349216
v -0.166941 -1.117395 -0.503511
v -0.459850 -0.903235 -0.208058
v -0.099108 -0.676225 -0.014966
v 0.229162 -0.806616 -0.074069
v -0.424483 -0.819463 0.028301
v 0.193795 -0.890384 -0.310421
v 0.368038 -1.134255 -0.114392
v 0.266580 -0.916333 0.151087
v -0.046192 -0.831390 0.303448
v -0.387067 -0.929184 0.253450
v -0.556354 -1.152429 0.030377
v -0.472450 -1.131420 -0.317158
v -0.142125 -1.455298 -0.387463
v -0.454902 -1.370352 -0.235102
v -0.417484 -1.480072 -0.009947
v 0.181196 -1.118569 -0.419521
v 0.198744 -1.357501 -0.337465
v 0.236162 -1.467222 -0.112309
v 0.271529 -1.383451 0.124043
v -0.039194 -1.491994 0.265201
v 0.284128 -1.155266 0.233144
v 0.266580 -0.916333 0.151087
v -0.021375 -1.169291 0.419496
v -0.046192 -0.831390 0.303448
v -0.369519 -1.168116 0.335506
v -0.387067 -0.929184 0.253450
v -0.382118 -1.396301 0.226406
v -0.089210 -1.610458 -0.069049
v -0.439673 -0.081950 -0.224320
v -0.399187 0.890776 -0.828274
v -0.122417 0.896217 -0.871617
v 0.137985 -0.070594 -0.314783
v -0.063947 -0.346000 -0.654199
v -0.340716 -0.351442 -0.610856
v -0.053614 -0.466005 -0.603281
v -0.330382 -0.471445 -0.559938
v 0.215086 -0.505206 0.122990
v -0.362572 -0.516563 0.213453
v -0.031350 -0.235193 0.473520
v -0.195842 -0.343889 -0.590503
v -0.253809 0.893775 -0.805273
v -0.134029 0.914352 -0.719033
v -0.284240 -0.327407 -0.471659
v -0.342206 0.910259 -0.686431
v -0.164454 -0.306831 -0.385420
v -0.222420 0.930835 -0.600190
v -0.076062 -0.323314 -0.504261
v 0.200861 0.837558 0.200730
v -0.376796 0.826201 0.291193
v -0.042483 0.815664 0.534358
v -0.458665 0.855388 -0.227918
v 0.118993 0.866745 -0.318381
v -0.096983 1.061628 -0.688437
v -0.373752 1.056188 -0.645094
v -0.122417 0.896217 -0.871617
v -0.399187 0.890776 -0.828274
v -0.265593 1.237138 0.296777
v -0.315230 0.789551 -0.076372
v -0.260645 0.770091 0.269737
v -0.320177 1.256599 -0.049332
v -0.320177 1.256599 -0.049332
v 0.031368 0.796365 -0.130650
v -0.315230 0.789551 -0.076372
v 0.026420 1.263412 -0.103610
v 0.026420 1.263412 -0.103610
v 0.085951 0.776905 0.215459
v 0.031368 0.796365 -0.130650
v 0.081004 1.243952 0.242499
v 0.081004 1.243952 0.242499
v -0.260645 0.770091 0.269737
v 0.085951 0.776905 0.215459
v -0.265593 1.237138 0.296777
v -0.297294 -0.903499 -0.174391
v -0.247657 -0.455912 0.198758
v -0.302242 -0.436452 -0.147351
v -0.242710 -0.922960 0.171718
v 0.103888 -0.916147 0.117439
v 0.044355 -0.429638 -0.201629
v 0.098940 -0.449097 0.144480
v 0.049304 -0.896686 -0.228669
v 0.049304 -0.896686 -0.228669
v -0.302242 -0.436452 -0.147351
v 0.044355 -0.429638 -0.201629
v -0.297294 -0.903499 -0.174391
v -0.242710 -0.922960 0.171718
v 0.098940 -0.449097 0.144480
v -0.247657 -0.455912 0.198758
v 0.103888 -0.916147 0.117439
vt -0.511999 -1.383436
vt -0.497870 -1.397566
vt -0.587355 -1.435243
vt -0.511999 -1.430534
vt -0.620324 -1.472921
vt -0.511999 -1.472921
vt -0.598569 -1.496470
vt -0.513793 -1.496470
vt -0.610904 -1.406985
vt -0.620324 -1.411695
vt 0.401234 -1.479302
vt 0.391364 -1.466463
vt 0.401234 -1.466463
vt 0.391364 -1.453624
vt 0.401234 -1.453624
vt 0.391364 -1.440785
vt 0.401234 -1.440785
vt 0.401234 -1.427946
vt 0.411105 -1.440785
vt 0.411105 -1.453624
vt 0.411105 -1.466463
vt 0.420975 -1.466463
vt 0.430845 -1.466463
vt 0.420975 -1.453624
vt 0.430845 -1.453624
vt 0.420975 -1.440785
vt 0.430845 -1.440785
vt 0.440716 -1.440785
vt 0.440716 -1.453624
vt 0.440716 -1.466463
vt 0.381494 -1.466463
vt 0.371624 -1.466463
vt 0.381494 -1.453624
vt 0.371624 -1.453624
vt 0.381494 -1.440785
vt 0.371624 -1.440785
vt 0.361753 -1.440785
vt 0.361753 -1.453624
vt 0.361753 -1.466463
vt -0.618437 -1.299141
vt -0.608871 -1.258736
vt -0.591272 -1.258736
vt -0.581705 -1.299141
vt -0.591272 -1.320473
vt -0.608871 -1.320473
vt -0.591272 -1.328965
vt -0.608871 -1.328965
vt -0.581705 -1.376718
vt -0.618437 -1.376718
vt -0.600071 -1.395084
vt -0.517113 -1.350838
vt -0.516809 -1.249568
vt -0.508323 -1.249593
vt -0.508627 -1.350863
vt -0.500140 -1.350889
vt -0.499837 -1.249619
vt -0.531541 -1.363985
vt -0.577064 -1.363985
vt -0.554302 -1.386747
vt -0.577064 -1.323013
vt -0.531541 -1.323013
vt -0.543397 -1.291147
vt -0.565208 -1.291147
vt -0.543397 -1.277490
vt -0.565208 -1.277490
vt 0.377155 -1.495322
vt 0.328640 -1.479531
vt 0.328640 -1.495322
vt 0.377155 -1.479531
vt 0.377155 -1.479580
vt 0.328640 -1.479579
vt 0.377155 -1.480524
vt 0.328640 -1.496266
vt 0.328640 -1.480524
vt 0.377155 -1.496266
vn 0.403100 0.154100 -0.902100
vn 0.480900 0.843100 -0.240600
vn 0.789100 -0.006000 -0.614300
vn 0.760200 0.634900 -0.138000
vn 0.719000 -0.662400 0.210400
vn 0.748000 0.626600 0.218600
vn 0.154200 -0.268400 0.950900
vn 0.120800 0.531000 0.838700
vn -0.594300 -0.688200 0.416100
vn -0.669000 0.598800 0.440300
vn -0.938200 -0.040000 -0.343700
vn -0.789700 0.604500 0.104700
vn -0.563400 0.822600 -0.077100
vn -0.665100 0.133000 -0.734800
vn 0.356700 0.188900 -0.914900
vn 0.450000 -0.668700 -0.591900
vn -0.626300 0.169600 -0.760900
vn -0.583300 -0.689000 -0.430100
vn 0.987800 0.019400 -0.154700
vn 0.647000 0.760200 -0.059300
vn 0.731600 0.512000 0.450100
vn -0.010600 0.998300 0.057800
vn 0.102500 0.666700 0.738300
vn -0.662800 0.734400 0.145800
vn -0.578200 0.486200 0.655200
vn -0.987800 -0.019400 0.154700
vn -0.538500 -0.054400 0.840900
vn 0.155500 -0.055500 0.986300
vn 0.771300 -0.028600 0.635800
vn 0.742800 -0.544900 0.388900
vn 0.662800 -0.734400 -0.145800
vn 0.117500 -0.745100 0.656500
vn 0.010600 -0.998300 -0.057800
vn -0.567000 -0.570700 0.594000
vn -0.647000 -0.760200 0.059300
vn -0.731600 -0.512000 -0.450100
vn -0.102500 -0.666700 -0.738300
vn 0.578200 -0.486200 -0.655300
vn 0.567000 0.570700 -0.594100
vn 0.538500 0.054400 -0.840900
vn -0.117500 0.745100 -0.656500
vn -0.155500 0.055500 -0.986300
vn -0.742800 0.544900 -0.388900
vn -0.771300 0.028600 -0.635800
vn 0.578200 -0.486200 -0.655200
vn -0.938200 -0.039900 -0.343700
vn -0.665200 0.133100 -0.734700
vn 0.789100 -0.006100 -0.614300
vn 0.356800 0.188900 -0.914900
vn -0.594400 -0.688200 0.416100
vn 0.154200 -0.268300 0.950900
vn -0.148900 -0.175800 -0.973100
vn 0.148900 0.175800 0.973100
vn 0.748100 0.626700 0.218400
vn -0.669000 0.598800 0.440400
vn 0.120800 0.531100 0.838700
vn -0.789700 0.604500 0.104800
vn 0.480800 0.843100 -0.240600
vn 0.403200 0.154100 -0.902100
vn -0.588500 -0.053000 0.806800
vn -0.808400 0.025200 -0.588100
vn -0.588500 -0.052900 0.806800
vn -0.808400 0.025400 -0.588000
vn 0.588500 0.053000 -0.806800
vn -0.808400 0.025500 -0.588000
vn 0.588500 0.052900 -0.806800
vn 0.808400 -0.025400 0.588000
vn 0.808400 -0.025500 0.588000
vn 0.808400 -0.025200 0.588100
usemtl None
s 1
f 1/1/1 2/2/2 3/3/3
f 3/3/3 2/2/2 4/4/4
f 3/3/3 4/4/4 5/5/5
f 5/5/5 4/4/4 6/6/6
f 5/5/5 6/6/6 7/7/7
f 7/7/7 6/6/6 8/8/8
f 7/7/7 8/8/8 9/5/9
f 9/5/9 8/8/8 10/6/10
f 9/5/9 10/6/10 11/3/11
f 11/3/11 10/6/10 12/4/12
f 11/3/11 12/4/12 13/2/13
f 14/1/14 11/3/11 13/2/13
f 5/5/5 15/9/15 3/3/3
f 5/5/5 16/10/16 15/9/15
f 17/9/17 9/5/9 11/3/11
f 17/9/17 18/10/18 9/5/9
f 19/11/19 20/12/20 21/13/21
f 21/13/21 20/12/20 22/14/22
f 21/13/21 22/14/22 23/15/23
f 23/15/23 22/14/22 24/16/24
f 23/15/23 24/16/24 25/17/25
f 26/18/26 25/17/25 24/16/24
f 27/19/27 25/17/25 26/18/26
f 27/19/27 23/15/23 25/17/25
f 28/20/28 23/15/23 27/19/27
f 28/20/28 21/13/21 23/15/23
f 29/21/29 21/13/21 28/20/28
f 29/21/29 19/11/19 21/13/21
f 30/22/30 19/11/19 29/21/29
f 30/22/30 31/23/31 19/11/19
f 32/24/32 31/23/31 30/22/30
f 32/24/32 33/25/33 31/23/31
f 34/26/34 33/25/33 32/24/32
f 34/26/34 35/27/35 33/25/33
f 26/18/26 35/27/35 34/26/34
f 26/18/26 36/28/36 35/27/35
f 37/29/37 35/27/35 36/28/36
f 37/29/37 33/25/33 35/27/35
f 38/30/38 33/25/33 37/29/37
f 38/30/38 31/23/31 33/25/33
f 19/11/19 31/23/31 38/30/38
f 34/26/34 27/19/27 26/18/26
f 34/26/34 28/20/28 27/19/27
f 32/24/32 28/20/28 34/26/34
f 32/24/32 29/21/29 28/20/28
f 30/22/30 29/21/29 32/24/32
f 39/31/39 40/32/40 41/33/41
f 41/33/41 40/32/40 42/34/42
f 41/33/41 42/34/42 43/35/43
f 43/35/43 42/34/42 44/36/44
f 43/35/43 44/36/44 26/18/26
f 44/36/44 45/37/36 26/18/26
f 44/36/44 46/38/37 45/37/36
f 42/34/42 46/38/37 44/36/44
f 42/34/42 47/39/45 46/38/37
f 40/32/40 47/39/45 42/34/42
f 40/32/40 19/11/19 47/39/45
f 39/31/39 19/11/19 40/32/40
f 39/31/39 20/12/20 19/11/19
f 41/33/41 20/12/20 39/31/39
f 41/33/41 22/14/22 20/12/20
f 43/35/43 22/14/22 41/33/41
f 43/35/43 24/16/24 22/14/22
f 26/18/26 24/16/24 43/35/43
f 48/24/41 49/20/42 50/26/43
f 50/26/43 51/25/22 48/24/41
f 48/24/41 51/25/22 52/23/20
f 50/26/43 53/27/24 51/25/22
f 48/24/41 52/23/20 54/22/39
f 54/22/39 52/23/20 55/11/19
f 55/11/19 52/23/20 56/30/21
f 56/30/21 52/23/20 51/25/22
f 56/30/21 51/25/22 57/29/23
f 57/29/23 51/25/22 53/27/24
f 57/29/23 53/27/24 58/28/25
f 59/18/26 58/28/25 53/27/24
f 59/18/26 53/27/24 50/26/43
f 50/26/43 60/19/44 59/18/26
f 50/26/43 49/20/42 60/19/44
f 49/20/42 61/15/37 60/19/44
f 60/19/44 61/15/37 62/17/36
f 61/15/37 63/16/35 62/17/36
f 59/18/26 62/17/36 63/16/35
f 60/19/44 62/17/36 59/18/26
f 54/22/39 55/11/19 64/21/40
f 64/21/40 55/11/19 65/13/45
f 55/11/19 66/12/31 65/13/45
f 67/31/30 66/12/31 55/11/19
f 68/33/32 66/12/31 67/31/30
f 67/31/30 69/32/29 68/33/32
f 67/31/30 55/11/19 69/32/29
f 69/32/29 55/11/19 70/39/21
f 69/32/29 70/39/21 71/34/28
f 71/34/28 70/39/21 72/38/23
f 71/34/28 72/38/23 73/36/27
f 73/36/27 72/38/23 74/37/25
f 73/36/27 74/37/25 59/18/26
f 75/35/34 73/36/27 59/18/26
f 59/18/26 63/16/35 75/35/34
f 75/35/34 63/16/35 76/14/33
f 61/15/37 76/14/33 63/16/35
f 65/13/45 76/14/33 61/15/37
f 49/20/42 65/13/45 61/15/37
f 64/21/40 65/13/45 49/20/42
f 48/24/41 64/21/40 49/20/42
f 54/22/39 64/21/40 48/24/41
f 68/33/32 69/32/29 71/34/28
f 75/35/34 71/34/28 73/36/27
f 68/33/32 71/34/28 75/35/34
f 75/35/34 76/14/33 68/33/32
f 68/33/32 76/14/33 66/12/31
f 65/13/45 66/12/31 76/14/33
f 77/40/46 78/41/47 79/42/1
f 77/40/46 79/42/1 80/43/48
f 81/44/49 77/40/46 80/43/48
f 81/44/49 82/45/17 77/40/46
f 83/46/16 82/45/17 81/44/49
f 83/46/16 84/47/18 82/45/17
f 85/48/5 84/47/18 83/46/16
f 85/48/5 86/49/50 84/47/18
f 86/49/50 85/48/5 87/50/51
f 88/51/52 89/52/52 90/53/19
f 91/54/26 89/52/52 88/51/52
f 91/54/26 92/53/26 89/52/52
f 93/55/53 92/53/26 91/54/26
f 93/55/53 94/56/53 92/53/26
f 95/54/19 94/56/53 93/55/53
f 95/54/19 90/53/19 94/56/53
f 88/51/52 90/53/19 95/54/19
f 96/57/54 97/58/55 98/59/56
f 96/57/54 99/60/57 97/58/55
f 100/61/4 99/60/57 96/57/54
f 101/62/58 99/60/57 100/61/4
f 101/62/58 102/63/13 99/60/57
f 103/64/59 102/63/13 101/62/58
f 103/64/59 104/65/47 102/63/13
f 105/66/60 106/67/61 107/68/62
f 105/66/60 108/69/63 106/67/61
f 109/70/63 110/68/64 111/71/65
f 109/70/63 112/66/66 110/68/64
f 113/72/66 114/73/67 115/74/64
f 113/72/66 116/75/68 114/73/67
f 117/66/68 118/71/62 119/68/67
f 117/66/68 120/70/60 118/71/62
f 121/66/65 122/67/60 123/68/63
f 121/66/65 124/69/62 122/67/60
f 125/72/67 126/73/66 127/74/68
f 125/72/67 128/75/64 126/73/66
f 129/66/64 130/71/61 131/68/66
f 129/66/64 132/70/65 130/71/61
f 133/70/62 134/68/69 135/71/62
f 133/70/62 136/66/67 134/68/69
