# Blender v2.76 (sub 0) OBJ File: 'untitled.blend'
# www.blender.org
mtllib piraka nek.mtl
o Reidak.reidak.smd.mesh_1.009
v 0.355632 0.125849 -0.194953
v 0.355632 -0.340950 -0.162585
v 0.258719 -0.050634 -0.348551
v 0.492678 -0.091372 0.054630
v 0.258719 -0.485066 0.150619
v 0.355632 -0.308582 0.304212
v 0.024761 -0.398558 0.407591
v -0.209198 -0.485066 0.150619
v -0.306111 -0.308582 0.304212
v 0.024761 -0.558167 0.086998
v 0.024761 -0.444334 -0.252562
v 0.024761 -0.123740 -0.412172
v 0.024761 0.215820 -0.298337
v 0.258719 0.302330 -0.041360
v 0.024761 0.375430 0.022262
v 0.355632 0.158217 0.271844
v 0.024761 0.261595 0.361810
v 0.258720 -0.132099 0.457805
v 0.024761 -0.059004 0.521426
v -0.209198 -0.050634 -0.348551
v -0.306111 -0.340950 -0.162585
v -0.209198 -0.132099 0.457805
v -0.306111 0.158217 0.271844
v -0.209198 0.302330 -0.041360
v -0.306111 0.125849 -0.194953
v -0.443157 -0.091367 0.054630
v -0.150702 0.787208 0.599985
v 0.200223 0.163354 0.057031
v -0.150702 0.163354 0.057031
v 0.200223 0.787208 0.599985
v 0.200223 -0.053833 0.306574
v 0.200223 0.570031 0.849533
v -0.150702 -0.053833 0.306574
v -0.150701 0.570031 0.849533
vt 0.869305 -1.875995
vt 0.844771 -1.850385
vt 0.869685 -1.858266
vt 0.844233 -1.875457
vt 0.819542 -1.857190
vt 0.819161 -1.874919
vt 0.808776 -1.874696
vt 0.819699 -1.849847
vt 0.844994 -1.840000
vt 0.869843 -1.850923
vt 0.879690 -1.876218
vt 0.868924 -1.893723
vt 0.868767 -1.901067
vt 0.843695 -1.900528
vt 0.843472 -1.910913
vt 0.818781 -1.892647
vt 0.818623 -1.899990
vt 0.821958 -1.938112
vt 0.867764 -1.938227
vt 0.867810 -1.919905
vt 0.822004 -1.919789
vn 0.748600 0.435300 -0.500100
vn 0.707100 -0.533400 -0.464200
vn 0.529300 0.036000 -0.847600
vn 1.000000 -0.000000 0.000000
vn 0.529300 -0.834600 0.152600
vn 0.748600 -0.435300 0.500100
vn 0.000000 -0.656500 0.754300
vn -0.529300 -0.834600 0.152600
vn -0.748600 -0.435300 0.500100
vn -0.000000 -1.000000 0.008700
vn -0.000000 -0.754300 -0.656500
vn 0.000000 -0.129400 -0.991600
vn -0.000000 0.656500 -0.754300
vn 0.529300 0.834600 -0.152600
vn -0.000000 1.000000 -0.008700
vn 0.707100 0.533400 0.464200
vn 0.000000 0.754300 0.656500
vn 0.529300 -0.036000 0.847600
vn 0.000000 0.129400 0.991600
vn -0.529400 0.036000 -0.847600
vn -0.707100 -0.533400 -0.464200
vn -0.529300 -0.036000 0.847600
vn -0.707100 0.533400 0.464200
vn -0.529300 0.834600 -0.152600
vn -0.748600 0.435300 -0.500100
vn -1.000000 0.000000 0.000000
vn -0.707100 0.464200 -0.533400
vn 0.707100 0.464200 -0.533400
vn 0.707100 -0.464200 0.533400
vn -0.707100 -0.464200 0.533400
usemtl None
s 1
f 1/1/1 2/2/2 3/3/3
f 4/4/4 2/2/2 1/1/1
f 4/4/4 5/5/5 2/2/2
f 6/6/6 5/5/5 4/4/4
f 6/6/6 7/7/7 5/5/5
f 8/5/8 7/7/7 9/6/9
f 10/8/10 7/7/7 8/5/8
f 10/8/10 5/5/5 7/7/7
f 11/9/11 5/5/5 10/8/10
f 11/9/11 2/2/2 5/5/5
f 12/10/12 2/2/2 11/9/11
f 12/10/12 3/3/3 2/2/2
f 13/11/13 3/3/3 12/10/12
f 13/11/13 1/1/1 3/3/3
f 14/12/14 1/1/1 13/11/13
f 14/12/14 13/11/13 15/13/15
f 14/12/14 15/13/15 16/14/16
f 16/14/16 15/13/15 17/15/17
f 16/14/16 17/15/17 18/16/18
f 18/16/18 17/15/17 19/17/19
f 20/3/20 13/11/13 12/10/12
f 20/3/20 12/10/12 21/2/21
f 21/2/21 12/10/12 11/9/11
f 21/2/21 11/9/11 8/5/8
f 8/5/8 11/9/11 10/8/10
f 14/12/14 4/4/4 1/1/1
f 16/14/16 4/4/4 14/12/14
f 16/14/16 6/6/6 4/4/4
f 18/16/18 6/6/6 16/14/16
f 18/16/18 7/7/7 6/6/6
f 19/17/19 7/7/7 18/16/18
f 19/17/19 22/16/22 7/7/7
f 17/15/17 22/16/22 19/17/19
f 17/15/17 23/14/23 22/16/22
f 15/13/15 23/14/23 17/15/17
f 15/13/15 24/12/24 23/14/23
f 13/11/13 24/12/24 15/13/15
f 13/11/13 25/1/25 24/12/24
f 20/3/20 25/1/25 13/11/13
f 20/3/20 26/4/26 25/1/25
f 21/2/21 26/4/26 20/3/20
f 21/2/21 9/6/9 26/4/26
f 8/5/8 9/6/9 21/2/21
f 9/6/9 7/7/7 22/16/22
f 9/6/9 22/16/22 26/4/26
f 26/4/26 22/16/22 23/14/23
f 26/4/26 23/14/23 25/1/25
f 25/1/25 23/14/23 24/12/24
f 27/18/27 28/19/28 29/19/27
f 30/18/28 28/19/28 27/18/27
f 30/18/28 31/20/29 28/19/28
f 32/21/29 31/20/29 30/18/28
f 32/21/29 33/20/30 31/20/29
f 34/21/30 33/20/30 32/21/29
f 34/21/30 29/19/27 33/20/30
f 27/18/27 29/19/27 34/21/30
