# Blender v2.76 (sub 0) OBJ File: ''
# www.blender.org
mtllib smithglasses.mtl
o smith.smith.smd.mesh_3
v 0.523040 1.505051 3.629323
v 0.467858 1.784447 3.667659
v -0.408952 1.505051 3.630093
v -0.366995 1.786140 3.662577
v -2.948067 1.838753 2.771948
v -3.461494 1.893440 -1.270895
v -2.909667 1.553787 2.759472
v -3.416694 1.608452 -1.271280
v -3.304481 1.614044 -2.206869
v -3.321974 1.899239 -2.479131
v -2.925880 0.148865 -2.582943
v -2.952903 0.223732 -2.888009
v 3.085764 1.838753 2.772082
v 3.048215 1.553787 2.759472
v 3.598621 1.924263 -1.270832
v 3.571172 1.639107 -1.270510
v 3.440893 1.689445 -2.206803
v 3.459812 1.974609 -2.478425
v 3.063719 0.224228 -2.583327
v 3.091026 0.299004 -2.888072
v 1.148825 0.713516 3.431736
v 2.113811 0.864426 3.167771
v 1.119242 1.248405 3.583469
v 0.555751 1.133156 3.583468
v 0.467858 1.784447 3.667659
v 1.086815 1.789314 3.651516
v 1.068609 2.120621 3.635564
v 1.906587 2.163307 3.374747
v 1.966606 1.801270 3.388965
v 2.769602 2.207069 2.981824
v 2.867308 1.775894 2.973333
v 3.114349 1.819557 2.749950
v 2.985356 1.122009 2.732138
v 2.018517 1.479347 3.351402
v -1.778849 2.163307 3.374941
v -2.641435 2.207069 2.981886
v -1.838298 1.801270 3.389410
v -0.959073 1.789314 3.651774
v -0.939588 2.120621 3.636011
v -0.324612 1.782692 3.674157
v -0.992496 1.248405 3.583399
v -0.426588 1.133156 3.582756
v -1.019376 0.713516 3.431799
v -1.986353 0.864426 3.167574
v -1.890779 1.479347 3.350954
v -2.856333 1.122009 2.732200
v -2.739713 1.775894 2.974036
v -2.986183 1.819557 2.749821
vt 0.478329 -2.873901
vt 0.473959 -2.839377
vt 0.378737 -2.873901
vt 0.383066 -2.839377
vt 0.616008 -2.787177
vt 0.211974 -2.786083
vt 0.615228 -2.814368
vt 0.212448 -2.813252
vt 0.095525 -2.810497
vt 0.067890 -2.783796
vt 0.060585 -2.950788
vt 0.029996 -2.944186
vt 0.291524 -2.976304
vt 0.204829 -2.978465
vt 0.289242 -2.921968
vt 0.340369 -2.927920
vt 0.342808 -2.863841
vt 0.286607 -2.869100
vt 0.284878 -2.832550
vt 0.210220 -2.832040
vt 0.208677 -2.880978
vt 0.133492 -2.839971
vt 0.128500 -2.895303
vt 0.107546 -2.895439
vt 0.125494 -2.971752
vt 0.207306 -2.911360
vt 0.212880 -2.830649
vt 0.134068 -2.837191
vt 0.210642 -2.880978
vt 0.287877 -2.869100
vt 0.286844 -2.829770
vt 0.344078 -2.863841
vt 0.290513 -2.921968
vt 0.341639 -2.927920
vt 0.293489 -2.974219
vt 0.207489 -2.978465
vt 0.208576 -2.913445
vt 0.128154 -2.970362
vt 0.130466 -2.898083
vt 0.108121 -2.894744
vn 0.000800 -0.135800 0.990700
vn -0.002700 -0.124800 0.992200
vn -0.006300 -0.113900 0.993500
vn -0.982800 -0.137800 0.122900
vn -0.987900 -0.154800 0.003000
vn -0.981700 -0.146100 0.122100
vn -0.987900 -0.155300 0.001300
vn -0.975500 -0.177400 -0.129900
vn -0.976400 -0.200800 -0.080000
vn -0.974200 -0.216700 -0.062900
vn -0.974400 -0.222400 0.031700
vn 0.983300 -0.135000 0.121900
vn 0.985600 -0.115000 0.124000
vn 0.991900 -0.127000 -0.003500
vn 0.995400 -0.095800 -0.008100
vn 0.977200 -0.161300 -0.138300
vn 0.975600 -0.204300 -0.080100
vn 0.974300 -0.216900 -0.060200
vn 0.974400 -0.222500 0.032700
vn 0.174500 -0.259800 0.949800
vn 0.358900 -0.220300 0.907000
vn 0.163500 -0.185000 0.969000
vn 0.040400 -0.197800 0.979400
vn 0.026100 -0.066400 0.997500
vn 0.200500 -0.016200 0.979600
vn 0.161200 0.056300 0.985300
vn 0.329100 0.083400 0.940600
vn 0.364800 0.032400 0.930500
vn 0.497700 0.105500 0.860900
vn 0.536000 -0.041600 0.843200
vn 0.671200 -0.005400 0.741300
vn 0.544700 -0.187100 0.817500
vn 0.372800 -0.143000 0.916800
vn -0.329100 0.083700 0.940600
vn -0.498300 0.106900 0.860400
vn -0.364600 0.032000 0.930600
vn -0.203600 -0.016500 0.978900
vn -0.165600 0.056600 0.984600
vn -0.032600 -0.069900 0.997000
vn -0.165100 -0.186900 0.968400
vn -0.040200 -0.203000 0.978400
vn -0.173800 -0.260400 0.949700
vn -0.359200 -0.220300 0.906900
vn -0.372900 -0.143800 0.916700
vn -0.545400 -0.187900 0.816800
vn -0.536700 -0.041800 0.842700
vn -0.673400 -0.004700 0.739300
usemtl None
s 1
f 1/1/1 2/2/2 3/3/2
f 4/4/3 3/3/2 2/2/2
f 5/5/4 6/6/5 7/7/6
f 8/8/7 7/7/6 6/6/5
f 8/8/7 6/6/5 9/9/8
f 10/10/9 9/9/8 6/6/5
f 9/9/8 10/10/9 11/11/10
f 12/12/11 11/11/10 10/10/9
f 13/5/12 14/7/13 15/6/14
f 16/8/15 15/6/14 14/7/13
f 16/8/15 17/9/16 15/6/14
f 18/10/17 15/6/14 17/9/16
f 17/9/16 19/11/18 18/10/17
f 20/12/19 18/10/17 19/11/18
f 21/13/20 22/14/21 23/15/22
f 24/16/23 21/13/20 23/15/22
f 24/16/23 23/15/22 25/17/24
f 26/18/25 25/17/24 23/15/22
f 26/18/25 27/19/26 25/17/24
f 27/19/26 26/18/25 28/20/27
f 29/21/28 28/20/27 26/18/25
f 28/20/27 29/21/28 30/22/29
f 31/23/30 30/22/29 29/21/28
f 30/22/29 31/23/30 32/24/31
f 31/23/30 33/25/32 32/24/31
f 31/23/30 34/26/33 33/25/32
f 22/14/21 33/25/32 34/26/33
f 34/26/33 23/15/22 22/14/21
f 23/15/22 34/26/33 26/18/25
f 29/21/28 26/18/25 34/26/33
f 29/21/28 34/26/33 31/23/30
f 35/27/34 36/28/35 37/29/36
f 37/29/36 38/30/37 35/27/34
f 39/31/38 35/27/34 38/30/37
f 39/31/38 38/30/37 40/32/39
f 38/30/37 41/33/40 40/32/39
f 42/34/41 40/32/39 41/33/40
f 43/35/42 42/34/41 41/33/40
f 43/35/42 41/33/40 44/36/43
f 45/37/44 44/36/43 41/33/40
f 44/36/43 45/37/44 46/38/45
f 47/39/46 46/38/45 45/37/44
f 46/38/45 47/39/46 48/40/47
f 47/39/46 36/28/35 48/40/47
f 47/39/46 37/29/36 36/28/35
f 45/37/44 37/29/36 47/39/46
f 37/29/36 45/37/44 38/30/37
f 41/33/40 38/30/37 45/37/44
