# Blender v2.76 (sub 0) OBJ File: 'zaktan.blend'
# www.blender.org
mtllib zaktan_tail.mtl
o zaktaan.zaktaan.smd.mesh_0.005_zaktaan.zaktaan.smd.mesh_0.008
v 0.246900 6.231472 2.330626
v 0.246900 6.074306 2.977053
v -0.246900 6.231472 2.330626
v -0.246900 6.074306 2.977053
v 0.246900 4.857897 1.610409
v 0.246900 4.507372 2.168751
v -0.246900 4.857897 1.610409
v -0.246900 4.507372 2.168751
v 0.246900 4.507372 2.168751
v 0.246900 6.074306 2.977053
v 0.444952 -4.468923 -4.519453
v 0.126430 -5.191589 -5.530889
v 0.435072 -4.252351 -4.848114
v 0.126430 -5.406378 -5.203898
v -0.126431 -5.191589 -5.530889
v -0.126431 -5.406378 -5.203898
v -0.444954 -4.468923 -4.519453
v -0.435073 -4.252351 -4.848114
v 0.988006 -1.181254 -2.149953
v -0.988007 -0.180172 -1.426710
v -0.988007 -1.181254 -2.149953
v 0.988006 -0.180172 -1.426710
v -0.988006 4.857670 1.613797
v -0.988006 4.071825 1.702062
v -0.988006 5.116289 2.361113
v 0.988006 4.071825 1.702062
v -0.988006 5.116289 2.361113
v -0.988006 4.071825 1.702062
v 0.988006 5.116289 2.361113
v -0.988006 4.857670 1.613797
v 0.988006 4.071825 1.702062
v -0.988006 4.071825 1.702062
v 0.988006 4.857670 1.613796
v -0.988006 5.116289 2.361113
v 0.988006 5.116289 2.361113
v 0.988006 4.857670 1.613796
v 0.988006 5.116289 2.361113
v 0.988006 4.071825 1.702062
v 0.988006 -3.654534 -4.026374
v -0.988007 -2.686515 -3.259444
v -0.988007 -3.654534 -4.026374
v 0.988006 -2.686515 -3.259444
v -0.988007 -2.900883 -3.983263
v 0.988006 -3.654534 -4.026374
v -0.988007 -3.654534 -4.026374
v 0.988006 -2.900883 -3.983263
v -0.988007 -2.686515 -3.259444
v 0.988006 -2.686515 -3.259444
v 0.988006 -2.900883 -3.983263
v 0.988006 -2.686515 -3.259444
v 0.988006 -3.654534 -4.026374
v -0.988007 -2.900883 -3.983263
v -0.988007 -3.654534 -4.026374
v -0.988007 -2.686515 -3.259444
v -0.988006 2.243887 -0.266882
v -0.988006 1.454046 -0.228084
v -0.988006 2.455130 0.495171
v 0.988006 1.454046 -0.228084
v -0.988006 2.455130 0.495171
v -0.988006 1.454046 -0.228084
v 0.988006 2.455130 0.495171
v -0.988006 2.243887 -0.266882
v 0.988006 1.454046 -0.228084
v -0.988006 1.454046 -0.228084
v 0.988006 2.243887 -0.266882
v -0.988006 2.455130 0.495171
v 0.988006 2.455130 0.495171
v 0.988006 2.243887 -0.266882
v 0.988006 2.455130 0.495171
v 0.988006 1.454046 -0.228084
v 0.444952 -4.468923 -4.519453
v -0.435073 -4.252351 -4.848114
v -0.444954 -4.468923 -4.519453
v 0.435072 -4.252351 -4.848114
v 0.126430 -5.191589 -5.530889
v -0.126431 -5.191589 -5.530889
v -0.444954 -4.468923 -4.519453
v 0.126430 -5.406378 -5.203898
v 0.444952 -4.468923 -4.519453
v -0.126431 -5.406378 -5.203898
v -0.988007 -0.391413 -2.188763
v -0.988007 -1.181254 -2.149953
v -0.988007 -0.180172 -1.426710
v -0.246900 4.507372 2.168751
v 0.246900 3.193571 1.209302
v 0.246900 4.507372 2.168751
v -0.246900 3.193571 1.209302
v -0.246900 4.857897 1.610409
v -0.246900 3.546103 0.647809
v 0.246900 4.857897 1.610409
v 0.246900 3.546103 0.647809
v 0.246900 4.507372 2.168751
v 0.246900 3.193571 1.209302
v -0.246900 -0.729448 -1.656164
v 0.246900 -2.008064 -2.590141
v 0.246900 -0.729462 -1.656164
v -0.246900 -2.008064 -2.590141
v -0.246900 -0.384356 -2.207428
v -0.246900 -1.665062 -3.137779
v 0.246900 -0.384356 -2.207428
v 0.246900 -1.665062 -3.137779
v 0.246900 -0.729462 -1.656164
v 0.246900 -2.008064 -2.590141
v -0.246900 3.193571 1.209302
v 0.246900 1.882593 0.251737
v 0.246900 3.193571 1.209302
v -0.246900 1.882582 0.251737
v -0.246900 3.546103 0.647809
v -0.246900 2.232639 -0.306335
v 0.246900 3.546103 0.647809
v 0.246900 2.232639 -0.306335
v 0.246900 3.193571 1.209302
v 0.246900 1.882593 0.251737
v -0.246900 1.882582 0.251737
v 0.246900 0.575455 -0.703027
v 0.246900 1.882593 0.251737
v -0.246900 0.575455 -0.703027
v -0.246900 2.232639 -0.306335
v -0.246900 0.923031 -1.257689
v 0.246900 2.232639 -0.306335
v 0.246900 0.923031 -1.257689
v 0.246900 1.882593 0.251737
v 0.246900 0.575455 -0.703027
v -0.246900 -2.008064 -2.590141
v 0.224588 -3.216267 -3.532406
v 0.246900 -2.008064 -2.590141
v -0.224588 -3.216267 -3.532406
v -0.246900 -1.665062 -3.137779
v -0.224588 -2.915709 -3.997750
v 0.246900 -1.665062 -3.137779
v 0.224588 -2.915709 -3.997750
v 0.246900 -2.008064 -2.590141
v 0.224588 -3.216267 -3.532406
v -0.224588 -3.216267 -3.532406
v 0.175096 -4.469250 -4.516731
v 0.224588 -3.216267 -3.532406
v -0.175098 -4.469250 -4.516731
v -0.224588 -2.915709 -3.997750
v -0.175098 -4.250512 -4.851264
v 0.224588 -2.915709 -3.997750
v 0.175096 -4.250512 -4.851264
v 0.224588 -3.216267 -3.532406
v 0.175096 -4.469250 -4.516731
v -0.246900 0.575455 -0.703027
v 0.246900 -0.729462 -1.656164
v 0.246900 0.575455 -0.703027
v -0.246900 -0.729448 -1.656164
v -0.246900 0.923031 -1.257689
v -0.246900 -0.384356 -2.207428
v 0.246900 0.923031 -1.257689
v 0.246900 -0.384356 -2.207428
v 0.246900 0.575455 -0.703027
v 0.246900 -0.729462 -1.656164
v 0.988006 -0.391413 -2.188763
v 0.988006 -0.180172 -1.426710
v 0.988006 -1.181254 -2.149953
v -0.988007 -0.391413 -2.188763
v 0.988006 -1.181254 -2.149953
v -0.988007 -1.181254 -2.149953
v 0.988006 -0.391413 -2.188763
v -0.988007 -0.180172 -1.426710
v 0.988006 -0.180172 -1.426710
vt 0.419030 -1.060659
vt 0.386471 -1.080428
vt 0.419030 -1.080356
vt 0.386471 -1.060659
vt 0.419030 -1.041366
vt 0.386471 -1.041447
vt 0.419030 -1.021114
vt 0.386471 -1.021114
vt 0.419030 -1.002449
vt 0.386471 -1.002449
vt 0.326380 -1.225113
vt 0.342356 -1.180064
vt 0.341476 -1.224818
vt 0.327319 -1.180491
vt 0.581622 -1.185615
vt 0.505467 -1.124491
vt 0.505467 -1.185615
vt 0.581622 -1.124491
vt 0.310582 -1.174561
vt 0.284248 -1.143333
vt 0.336937 -1.143348
vt 0.581622 -1.216231
vt 0.505467 -1.246794
vt 0.581622 -1.246794
vt 0.505467 -1.216231
vt 0.581622 -1.185669
vt 0.505467 -1.185669
vt 0.310603 -1.174546
vt 0.336957 -1.143333
vt 0.657727 -1.124491
vt 0.657727 -1.185615
vt 0.657727 -1.216231
vt 0.657727 -1.246794
vt 0.657727 -1.185669
vt 0.321504 -1.239108
vt 0.287481 -1.224523
vt 0.288266 -1.239296
vt 0.322551 -1.224339
vt 0.309892 -1.180121
vt 0.299700 -1.180175
vt 0.288266 -1.239471
vt 0.309893 -1.180296
vt 0.321504 -1.239282
vt 0.299701 -1.180349
vt 0.419603 -1.021114
vt 0.445077 -1.002449
vt 0.419603 -1.002449
vt 0.445077 -1.021114
vt 0.419837 -1.041366
vt 0.445310 -1.041366
vt 0.419837 -1.060813
vt 0.445310 -1.060744
vt 0.419603 -1.080356
vt 0.445077 -1.080356
vt 0.444775 -1.021114
vt 0.470248 -1.002449
vt 0.444775 -1.002449
vt 0.470248 -1.021114
vt 0.445008 -1.041366
vt 0.470481 -1.041366
vt 0.445008 -1.060710
vt 0.470481 -1.060642
vt 0.444775 -1.080356
vt 0.470248 -1.080356
vt 0.470567 -1.021114
vt 0.496040 -1.002449
vt 0.470567 -1.002449
vt 0.496040 -1.021114
vt 0.470801 -1.041366
vt 0.495507 -1.041366
vt 0.470801 -1.060608
vt 0.495507 -1.060549
vt 0.470567 -1.080356
vt 0.496040 -1.080356
vn 0.724400 0.365000 -0.584800
vn 0.669600 0.308300 0.675700
vn 0.690100 -0.380400 0.615600
vn 0.756200 0.303900 -0.579500
vn -0.724400 0.365000 -0.584800
vn -0.756200 0.303900 -0.579500
vn -0.690100 -0.380400 0.615600
vn -0.647000 -0.349500 0.677600
vn 0.443500 0.037100 0.895500
vn 0.658300 0.095000 0.746700
vn 0.488000 -0.188300 -0.852300
vn 0.649900 0.737500 -0.184000
vn 0.489200 -0.863700 0.121400
vn -0.488000 -0.188300 -0.852300
vn -0.489200 -0.863700 0.121300
vn -0.658300 0.095000 0.746700
vn -0.649900 0.737500 -0.184000
vn 0.544300 -0.804300 -0.238500
vn -0.544300 0.479000 0.688700
vn -0.544300 -0.804300 -0.238500
vn 0.544300 0.479000 0.688700
vn -0.589900 0.430900 -0.682900
vn -0.544300 -0.817700 -0.187500
vn -0.544300 0.521200 0.657300
vn 0.544300 -0.817600 -0.187600
vn -0.544300 0.521300 0.657300
vn -0.544300 -0.817600 -0.187600
vn 0.544300 0.521300 0.657300
vn 0.589900 0.430800 -0.683000
vn 0.589900 0.430900 -0.682900
vn 0.544300 0.521200 0.657300
vn 0.544300 -0.817700 -0.187500
vn 0.543100 -0.784800 -0.298600
vn -0.543100 0.470200 0.695700
vn -0.543100 -0.784800 -0.298600
vn 0.543100 0.470200 0.695700
vn -0.597700 0.497900 -0.628400
vn 0.597700 0.497800 -0.628500
vn 0.597700 0.497900 -0.628400
vn 0.543000 0.470200 0.695700
vn 0.543000 -0.784800 -0.298500
vn -0.543000 -0.784800 -0.298500
vn -0.543000 0.470200 0.695700
vn -0.589900 0.472800 -0.654600
vn -0.544300 -0.804300 -0.238400
vn -0.589900 0.472900 -0.654600
vn 0.589900 0.472900 -0.654600
vn -0.544300 0.479000 0.688600
vn 0.544300 0.479000 0.688600
vn 0.589900 0.472800 -0.654600
vn 0.544300 -0.804300 -0.238400
vn -0.649900 0.737500 -0.183900
vn 0.649800 0.737500 -0.183900
vn -0.658400 0.095000 0.746700
vn 0.489200 -0.863700 0.121300
vn 0.658400 0.095000 0.746700
vn -0.489200 -0.863700 0.121400
vn 0.707100 -0.417000 0.571100
vn -0.707100 -0.417000 0.571100
vn -0.706600 0.417300 -0.571500
vn 0.706600 0.417200 -0.571500
vn 0.690100 -0.380500 0.615600
vn -0.707100 -0.417100 0.571000
vn 0.705000 -0.431100 0.563100
vn 0.707100 -0.416900 0.571100
vn -0.705000 -0.431100 0.563100
vn -0.707100 0.415600 -0.572100
vn -0.706000 0.404400 -0.581400
vn 0.707100 0.415600 -0.572100
vn 0.706000 0.404400 -0.581400
vn 0.707100 -0.417100 0.571000
vn -0.707100 -0.417000 0.571000
vn 0.707100 -0.417000 0.571000
vn 0.707100 -0.416900 0.571200
vn 0.706600 0.417300 -0.571500
vn 0.707100 -0.417300 0.570900
vn 0.707700 -0.447800 0.546500
vn -0.707600 -0.447900 0.546500
vn -0.706000 0.404500 -0.581400
vn -0.705200 0.378400 -0.599600
vn 0.705100 0.378500 -0.599600
vn -0.707700 -0.447800 0.546500
vn 0.571900 -0.810200 0.128300
vn -0.571800 -0.810300 0.128300
vn -0.705100 0.378400 -0.599600
vn -0.702000 0.365000 -0.611600
vn 0.702000 0.365000 -0.611500
vn 0.571800 -0.810300 0.128400
usemtl None
s 1
f 5/1/1 2/2/2 6/3/3
f 1/4/4 2/2/2 5/1/1
f 7/5/5 1/4/4 5/1/1
f 3/6/6 1/4/4 7/5/5
f 8/7/7 3/6/6 7/5/5
f 4/8/8 3/6/6 8/7/7
f 9/9/3 4/8/8 8/7/7
f 10/10/9 4/8/8 9/9/3
f 11/11/10 12/12/11 13/13/12
f 14/14/13 12/12/11 11/11/10
f 12/12/11 14/14/13 15/12/14
f 15/12/14 14/14/13 16/14/15
f 16/14/15 17/11/16 15/12/14
f 15/12/14 17/11/16 18/13/17
f 19/15/18 20/16/19 21/17/20
f 22/18/21 20/16/19 19/15/18
f 23/19/22 24/20/23 25/21/24
f 26/17/25 27/18/26 28/15/27
f 29/16/28 27/18/26 26/17/25
f 30/22/22 31/23/25 32/24/27
f 33/25/29 31/23/25 30/22/22
f 34/26/26 33/25/29 30/22/22
f 35/27/28 33/25/29 34/26/26
f 36/28/30 37/29/31 38/20/32
f 39/15/33 40/30/34 41/31/35
f 42/18/36 40/30/34 39/15/33
f 43/32/37 44/24/33 45/33/35
f 46/22/38 44/24/33 43/32/37
f 47/34/34 46/22/38 43/32/37
f 48/26/36 46/22/38 47/34/34
f 49/28/39 50/29/40 51/20/41
f 52/19/37 53/20/42 54/21/43
f 55/19/44 56/20/45 57/21/19
f 58/31/18 59/30/19 60/15/20
f 61/18/21 59/30/19 58/31/18
f 62/22/46 63/33/18 64/24/20
f 65/32/47 63/33/18 62/22/46
f 66/26/48 65/32/47 62/22/46
f 67/34/49 65/32/47 66/26/48
f 68/28/50 69/29/21 70/20/51
f 71/35/10 72/36/52 73/37/16
f 74/38/53 72/36/52 71/35/10
f 75/39/11 72/36/52 74/38/53
f 76/40/14 72/36/52 75/39/11
f 77/41/54 78/42/55 79/43/56
f 80/44/57 78/42/55 77/41/54
f 81/19/44 82/20/45 83/21/19
f 84/45/7 85/46/58 86/47/3
f 87/48/59 85/46/58 84/45/7
f 88/49/5 87/48/59 84/45/7
f 89/50/60 87/48/59 88/49/5
f 90/51/1 89/50/60 88/49/5
f 91/52/61 89/50/60 90/51/1
f 92/53/62 91/52/61 90/51/1
f 93/54/58 91/52/61 92/53/62
f 94/45/63 95/46/64 96/47/65
f 97/48/66 95/46/64 94/45/63
f 98/49/67 97/48/66 94/45/63
f 99/50/68 97/48/66 98/49/67
f 100/51/69 99/50/68 98/49/67
f 101/52/70 99/50/68 100/51/69
f 102/53/71 101/52/70 100/51/69
f 103/54/64 101/52/70 102/53/71
f 104/45/72 105/46/73 106/47/74
f 107/48/63 105/46/73 104/45/72
f 108/49/60 107/48/63 104/45/72
f 109/50/67 107/48/63 108/49/60
f 110/51/75 109/50/67 108/49/60
f 111/52/69 109/50/67 110/51/75
f 112/53/71 111/52/69 110/51/75
f 113/54/71 111/52/69 112/53/71
f 114/45/63 115/46/71 116/47/76
f 117/48/63 115/46/71 114/45/63
f 118/49/67 117/48/63 114/45/63
f 119/50/67 117/48/63 118/49/67
f 120/51/69 119/50/67 118/49/67
f 121/52/69 119/50/67 120/51/69
f 122/53/71 121/52/69 120/51/69
f 123/54/71 121/52/69 122/53/71
f 124/55/66 125/56/77 126/57/64
f 127/58/78 125/56/77 124/55/66
f 128/59/79 127/58/78 124/55/66
f 129/60/80 127/58/78 128/59/79
f 130/61/70 129/60/80 128/59/79
f 131/62/81 129/60/80 130/61/70
f 132/63/64 131/62/81 130/61/70
f 133/64/77 131/62/81 132/63/64
f 134/65/82 135/66/83 136/67/77
f 137/68/84 135/66/83 134/65/82
f 138/69/85 137/68/84 134/65/82
f 139/70/86 137/68/84 138/69/85
f 140/71/81 139/70/86 138/69/85
f 141/72/87 139/70/86 140/71/81
f 142/73/77 141/72/87 140/71/81
f 143/74/88 141/72/87 142/73/77
f 144/45/63 145/46/73 146/47/74
f 147/48/63 145/46/73 144/45/63
f 148/49/67 147/48/63 144/45/63
f 149/50/67 147/48/63 148/49/67
f 150/51/69 149/50/67 148/49/67
f 151/52/69 149/50/67 150/51/69
f 152/53/71 151/52/69 150/51/69
f 153/54/71 151/52/69 152/53/71
f 154/28/50 155/29/21 156/20/51
f 157/25/46 158/24/18 159/23/20
f 160/22/50 158/24/18 157/25/46
f 161/27/19 160/22/50 157/25/46
f 162/26/21 160/22/50 161/27/19
