# Blender v2.76 (sub 0) OBJ File: 'zaktan.blend'
# www.blender.org
mtllib zaktan_lbone.mtl
o zaktaan.zaktaan.smd.mesh_0.004_zaktaan.zaktaan.smd.mesh_0.007
v 4.279188 4.370491 -2.458362
v 3.785389 4.370491 -2.458362
v 3.377855 3.135971 -0.236201
v -3.621700 4.370489 -2.458360
v -3.214191 3.135969 -0.236201
v -1.939672 1.901424 1.985960
v -4.115501 4.370489 -2.458360
v 2.103363 1.901426 1.985960
v 3.785389 4.370491 -2.458362
v 3.785389 -0.073830 -3.939807
v 2.836361 -0.073830 -2.458360
v 3.044666 -5.505785 -3.445999
v 2.329800 -5.505785 -1.964551
v 1.810165 -9.456299 -1.223838
v 3.538488 -5.505785 -3.445999
v 2.303965 -9.456299 -1.223838
v 4.279188 -0.073830 -3.939807
v -1.152678 -9.456299 1.985961
v -1.939672 1.901424 1.985960
v -3.214191 3.135969 -0.236201
v -4.115501 -0.073832 -3.939807
v -3.374802 -5.505787 -3.445999
v -3.621700 -0.073832 -3.939807
v -2.881001 -5.505787 -3.445999
v -2.166113 -5.505787 -1.964551
v -1.646477 -9.456299 -1.223838
v -2.140278 -9.456299 -1.223838
v 1.316368 -9.456299 1.985961
v 3.377855 3.135971 -0.236201
v 4.279188 4.370491 -2.458362
v 2.103363 1.901426 1.985960
v -2.672672 -0.073832 -2.458360
v -3.621700 4.370489 -2.458360
v -4.115501 4.370489 -2.458360
v -1.893377 3.629776 0.010702
v -1.893379 4.617393 -4.186713
v -1.893379 3.629776 -4.186713
v -1.893377 1.901424 0.010704
v -1.893379 1.901424 -2.458360
v -1.893377 5.369487 1.985960
v -1.893377 3.629776 1.985960
v -1.893379 5.369487 -3.448168
v -1.893377 8.814835 1.985960
v -1.893377 9.802452 0.998343
v 2.057066 9.802452 0.998342
v 1.566225 9.802452 0.998342
v 2.057066 8.814835 1.985959
v 1.566225 8.814835 1.985959
v 1.566225 5.369489 1.985960
v 2.057066 5.369489 1.985960
v 1.478739 9.964939 0.998342
v 1.478739 9.555794 1.986116
v 2.057360 8.568020 0.998342
v 1.478739 9.555794 0.010545
v 1.478739 8.568020 -0.398600
v 0.081842 8.568020 -0.977230
v 0.081842 7.171102 -0.398598
v -1.315071 7.580244 0.010545
v -1.315071 8.568020 -0.398598
v 0.081842 9.964939 -0.398600
v 0.081844 10.543568 0.998342
v 0.081844 9.964939 2.395260
v 1.478739 8.568020 2.395260
v 1.478739 7.580245 1.986116
v 0.081844 8.568020 2.973889
v 0.081844 7.171102 2.395260
v -1.315071 8.568020 2.395260
v -1.315071 7.580244 1.986117
v -1.893694 8.568020 0.998343
v -1.315071 9.555794 1.986116
v -1.315071 9.964939 0.998343
v -1.315071 9.555794 0.010545
v -1.315071 7.171100 0.998343
v 0.081844 6.592470 0.998343
v 0.081844 7.171102 2.395260
v 1.478739 7.580245 1.986116
v 1.478739 7.171102 0.998343
v 1.478739 7.580245 0.010545
v -1.315071 7.580244 1.986117
v 2.057064 1.901426 0.010704
v 2.057064 1.901426 -2.458360
v 2.057064 3.629777 -4.186713
v 2.057064 3.629777 0.010704
v 2.057064 4.617395 -4.186713
v 2.057066 5.369489 1.985960
v 2.057064 5.369489 -3.448168
v 2.057066 8.814835 1.985959
v 2.057066 9.802452 0.998342
v 2.057066 3.629777 1.985960
v 2.507664 1.901426 -2.458360
v 2.057064 3.629777 -4.186713
v -2.343977 1.901424 -2.458360
v -1.893379 1.901424 -2.458360
v -1.893379 3.629776 -4.186713
v 2.057064 4.617395 -4.186713
v -1.893379 4.617393 -4.186713
v -1.893379 5.369487 -3.448168
v 2.057064 5.369489 -3.448168
v 0.822634 -9.455893 0.010637
v 0.822634 -11.925320 1.492220
v 0.822634 -11.925322 0.010638
v 0.822634 -9.455893 1.492220
v -0.658947 -9.455893 0.010638
v 0.822634 -11.925322 0.010638
v -0.658947 -11.925343 0.010638
v 0.822634 -9.455893 0.010637
v -0.658947 -9.455893 1.492220
v -0.658947 -11.925343 0.010638
v -0.658947 -11.925341 1.492221
v -0.658947 -9.455893 0.010638
v 0.822634 -9.455893 1.492220
v -0.658947 -11.925341 1.492221
v 0.822634 -11.925320 1.492220
v -0.658947 -9.455893 1.492220
v 2.103363 1.901426 1.985960
v -1.152678 -9.456299 1.985961
v 1.316368 -9.456299 1.985961
v -1.939672 1.901424 1.985960
v 2.836361 -0.073830 -2.458360
v 0.081842 -0.073830 -3.939807
v 3.785389 4.370491 -2.458362
v 2.329800 -5.505785 -1.964551
v 0.081842 -5.505785 -3.445999
v 1.810165 -9.456299 -1.223838
v -1.646477 -9.456299 -1.223838
v -2.166113 -5.505787 -1.964551
v -2.672672 -0.073832 -2.458360
v -3.621700 4.370489 -2.458360
v -1.893377 5.369487 1.985960
v 2.057064 5.369489 -3.448168
v -1.893379 5.369487 -3.448168
v 2.057066 5.369489 1.985960
v 1.566225 8.814835 1.985959
v 1.566223 5.369489 -3.448168
v 1.566225 5.369489 1.985960
v 1.566225 9.802452 0.998342
v 2.057066 9.802452 0.998342
v 1.566223 5.369489 -3.448168
v 1.566225 9.802452 0.998342
v 2.057064 5.369489 -3.448168
v -1.402536 8.814835 1.985960
v -1.402536 5.369487 -3.448168
v -1.402536 9.802452 0.998343
v -1.402536 5.369487 1.985960
v -1.893377 9.802452 0.998343
v -1.402536 5.369487 -3.448168
v -1.893379 5.369487 -3.448168
v -1.402536 9.802452 0.998343
v 2.057066 3.629777 1.985960
v -1.893377 5.369487 1.985960
v -1.893377 3.629776 1.985960
v 2.057066 5.369489 1.985960
v 2.057064 3.629777 0.010704
v -1.893377 1.901424 0.010704
v 2.057064 1.901426 0.010704
v -1.893377 3.629776 0.010702
v 2.057066 3.629777 1.985960
v -1.893377 3.629776 1.985960
v -1.893377 8.814835 1.985960
v -1.402536 9.802452 0.998343
v -1.893377 9.802452 0.998343
v -1.402536 8.814835 1.985960
v -1.402536 5.369487 1.985960
v -1.893377 5.369487 1.985960
vt 0.587825 -1.124944
vt 0.595293 -1.124944
vt 0.601457 -1.158553
vt 0.707323 -1.124944
vt 0.701159 -1.158553
vt 0.681883 -1.192162
vt 0.714791 -1.124944
vt 0.620733 -1.192162
vt 0.461514 -1.086371
vt 0.532497 -1.110032
vt 0.532497 -1.086371
vt 0.619253 -1.102145
vt 0.619253 -1.078485
vt 0.682349 -1.066654
vt 0.682348 -1.015389
vt 0.500949 -1.015389
vt 0.481232 -1.050880
vt 0.475157 -1.046928
vt 0.459082 -1.115245
vt 0.475157 -1.115245
vt 0.503287 -1.046928
vt 0.503287 -1.087115
vt 0.446841 -1.014778
vt 0.475157 -1.014778
vt 0.446841 -1.103225
vt 0.390765 -1.014778
vt 0.374690 -1.030853
vt 0.338296 -1.063185
vt 0.338296 -1.054749
vt 0.341724 -1.063185
vt 0.341724 -1.054749
vt 0.364354 -1.054749
vt 0.364354 -1.063185
vt 0.410990 -1.440997
vt 0.420894 -1.440983
vt 0.401074 -1.428245
vt 0.401087 -1.441012
vt 0.391182 -1.441027
vt 0.391195 -1.453794
vt 0.381292 -1.453809
vt 0.381305 -1.466575
vt 0.391208 -1.466560
vt 0.401099 -1.453780
vt 0.411003 -1.453765
vt 0.420907 -1.453751
vt 0.430797 -1.440968
vt 0.440701 -1.440954
vt 0.430810 -1.453737
vt 0.440714 -1.453722
vt 0.430823 -1.466503
vt 0.440727 -1.466489
vt 0.401126 -1.479314
vt 0.420920 -1.466518
vt 0.411016 -1.466532
vt 0.401112 -1.466546
vt 0.371401 -1.466589
vt 0.371388 -1.453823
vt 0.361485 -1.453837
vt 0.361472 -1.441070
vt 0.371375 -1.441055
vt 0.381279 -1.441041
vt 0.361498 -1.466604
vt 0.801644 -1.028953
vt 0.813644 -1.021757
vt 0.813644 -1.099246
vt 0.813644 -1.092049
vt 0.801644 -1.092049
vt 0.783470 -1.028953
vt 0.783470 -1.092049
vt 0.769056 -1.092049
vt 0.769056 -1.028953
vt 0.377828 -1.495359
vt 0.328814 -1.479500
vt 0.328837 -1.495410
vt 0.377805 -1.479450
vt 0.377806 -1.479849
vt 0.328838 -1.495808
vt 0.328815 -1.479899
vt 0.377828 -1.495757
vt 0.377805 -1.479937
vt 0.328838 -1.495897
vt 0.328815 -1.479987
vt 0.233955 -1.067609
vt 0.415354 -1.119613
vt 0.415354 -1.080179
vt 0.233955 -1.132183
vt 0.845191 -1.016507
vt 0.845191 -1.060501
vt 0.774209 -1.001349
vt 0.931948 -1.024597
vt 0.931948 -1.060501
vt 0.995043 -1.032897
vt 0.995043 -1.088106
vt 0.931948 -1.096405
vt 0.845191 -1.104496
vt 0.774209 -1.119653
vt 0.364740 -1.063185
vt 0.339704 -1.002652
vt 0.339704 -1.063185
vt 0.364740 -1.002652
vt 0.687452 -1.092049
vt 0.770265 -1.084068
vt 0.687452 -1.084068
vt 0.770265 -1.092049
vt 0.364354 -1.002652
vt 0.337757 -1.063185
vt 0.337757 -1.002652
vt 0.473345 -1.046937
vt 0.500949 -1.046937
vt 0.473345 -1.015389
vn 0.661300 0.716100 -0.223200
vn -0.016100 0.921000 -0.389300
vn 0.639500 0.514600 0.571200
vn 0.016100 0.921000 -0.389300
vn -0.639400 0.514600 0.571200
vn -0.426500 0.390400 0.815900
vn -0.661300 0.716100 -0.223200
vn 0.426500 0.390400 0.815900
vn -0.436000 0.127700 -0.890900
vn -0.237000 -0.000500 -0.971500
vn -0.487400 -0.183300 -0.853700
vn -0.293000 -0.086100 -0.952200
vn 0.000600 -0.431800 -0.902000
vn 0.748700 -0.315000 -0.583300
vn 0.606700 -0.738200 -0.294900
vn 0.778000 0.028000 -0.627600
vn -0.441900 -0.617500 0.650700
vn -0.777700 0.028500 -0.628000
vn -0.748300 -0.315500 -0.583600
vn 0.441400 0.121200 -0.889100
vn 0.493600 -0.172600 -0.852400
vn 0.281200 -0.090000 -0.955400
vn -0.000600 -0.431800 -0.902000
vn -0.606700 -0.738200 -0.294900
vn 0.442000 -0.617400 0.650700
vn 0.225100 -0.002500 -0.974300
vn -0.904500 -0.301500 0.301500
vn -0.631000 0.293600 -0.718100
vn -0.630300 -0.297100 -0.717300
vn -0.707100 0.000000 0.707100
vn -0.832000 0.392200 0.392200
vn -0.666700 0.333300 0.666700
vn -0.577400 -0.577300 0.577400
vn -0.580500 0.701500 -0.413400
vn -0.630200 0.297100 0.717300
vn -0.577400 0.816400 0.000600
vn 0.577400 0.816400 0.000600
vn 0.630300 0.297100 0.717300
vn -0.707100 -0.000300 0.707100
vn 0.666700 0.333400 0.666700
vn 0.663000 0.748600 0.000000
vn 0.663000 0.529300 0.529400
vn 0.977400 0.195500 0.081000
vn 0.663000 0.529400 -0.529300
vn 0.562500 0.045700 -0.825500
vn 0.000000 -0.000000 -1.000000
vn 0.000000 -0.707100 -0.707100
vn -0.382700 -0.653300 -0.653300
vn -0.562500 0.045700 -0.825500
vn -0.000000 0.707100 -0.707100
vn 0.000000 1.000000 0.000000
vn 0.000000 0.707100 0.707100
vn 0.663000 0.000000 0.748600
vn 0.663000 -0.529300 0.529400
vn 0.000000 -0.000000 1.000000
vn -0.000000 -0.707100 0.707100
vn -0.663000 -0.000000 0.748600
vn -0.663000 -0.529400 0.529300
vn -0.977400 0.195500 0.081000
vn -0.663000 0.529400 0.529400
vn -0.663000 0.748600 0.000000
vn -0.663000 0.529400 -0.529300
vn -0.562500 -0.825500 0.045700
vn 0.000000 -1.000000 0.000000
vn 0.663000 -0.529400 0.529300
vn 0.562500 -0.825500 0.045700
vn 0.912500 -0.378000 0.156600
vn 0.382700 -0.653300 -0.653300
vn -0.663000 -0.529300 0.529400
vn -0.912500 -0.378000 0.156600
vn 0.707100 0.000200 0.707100
vn 0.832000 0.392200 0.392200
vn 0.630300 -0.297100 -0.717300
vn 0.904500 -0.301500 0.301500
vn 0.631000 0.293600 -0.718100
vn 0.666700 0.333300 0.666700
vn 0.580500 0.701500 -0.413400
vn 0.577400 -0.577400 0.577300
vn 0.235500 -0.236400 -0.942700
vn -0.336700 0.853300 0.398100
vn 0.940400 0.025500 -0.339200
vn 0.514100 -0.463800 -0.721500
vn 0.707600 -0.082700 -0.701800
vn 0.707100 0.000300 -0.707100
vn 0.707100 -0.000300 0.707100
vn 0.707100 0.000000 -0.707100
vn 0.707100 -0.000000 0.707100
vn -0.707100 0.000300 -0.707100
vn 0.707100 -0.000300 -0.707100
vn -0.707100 0.000000 -0.707100
vn -0.707100 -0.000200 0.707100
vn -0.707100 0.000200 -0.707100
vn 0.707100 -0.000200 0.707100
vn -0.707100 0.000200 0.707100
vn -0.441900 -0.617400 0.650800
vn 0.441900 -0.617500 0.650700
vn 0.006100 -0.006700 -1.000000
vn -0.016200 0.921000 -0.389300
vn 0.008400 -0.216600 -0.976200
vn 0.016200 0.921000 -0.389300
vn -0.666600 0.333300 0.666700
vn 0.580500 0.701500 -0.413500
vn -0.580500 0.701500 -0.413500
vn 0.666700 0.333300 0.666600
vn -0.446500 0.633700 -0.631700
vn 0.446500 0.633700 -0.631700
vn 0.577300 -0.577400 0.577400
vn 0.904500 -0.301600 0.301400
vn -0.904500 -0.301600 0.301500
vn -0.577400 -0.577400 0.577300
vn -0.630300 0.297100 0.717300
vn 0.630200 0.297100 0.717300
vn -0.666700 0.333400 0.666700
usemtl None
s 1
f 1/1/1 2/2/2 3/3/3
f 3/3/3 2/2/2 4/4/4
f 3/3/3 4/4/4 5/5/5
f 6/6/6 3/3/3 5/5/5
f 5/5/5 4/4/4 7/7/7
f 8/8/8 3/3/3 6/6/6
f 9/9/2 10/10/9 11/11/10
f 11/11/10 10/10/9 12/12/11
f 11/11/10 12/12/11 13/13/12
f 13/13/12 12/12/11 14/14/13
f 12/12/11 15/12/14 14/14/13
f 14/14/13 15/12/14 16/14/15
f 12/12/11 17/10/16 15/12/14
f 10/10/9 17/10/16 12/12/11
f 18/15/17 19/16/6 20/17/5
f 20/17/5 21/10/18 18/15/17
f 18/15/17 21/10/18 22/12/19
f 21/10/18 23/10/20 22/12/19
f 22/12/19 23/10/20 24/12/21
f 25/13/22 24/12/21 23/10/20
f 26/14/23 24/12/21 25/13/22
f 27/14/24 24/12/21 26/14/23
f 22/12/19 24/12/21 27/14/24
f 18/15/17 22/12/19 27/14/24
f 16/14/15 18/15/17 27/14/24
f 28/15/25 18/15/17 16/14/15
f 28/15/25 16/14/15 15/12/14
f 15/12/14 29/17/3 28/15/25
f 17/10/16 29/17/3 15/12/14
f 17/10/16 30/9/1 29/17/3
f 10/10/9 30/9/1 17/10/16
f 9/9/2 30/9/1 10/10/9
f 31/16/8 28/15/25 29/17/3
f 25/13/22 23/10/20 32/11/26
f 32/11/26 23/10/20 33/9/4
f 21/10/18 33/9/4 23/10/20
f 34/9/7 33/9/4 21/10/18
f 20/17/5 34/9/7 21/10/18
f 35/18/27 36/19/28 37/20/29
f 35/18/27 37/20/29 38/21/30
f 38/21/30 37/20/29 39/22/31
f 40/23/32 35/18/27 41/24/33
f 40/23/32 36/19/28 35/18/27
f 40/23/32 42/25/34 36/19/28
f 43/26/35 42/25/34 40/23/32
f 44/27/36 42/25/34 43/26/35
f 45/28/37 46/29/36 47/30/38
f 47/30/38 46/29/36 48/31/35
f 49/32/39 47/30/38 48/31/35
f 50/33/40 47/30/38 49/32/39
f 51/34/41 52/35/42 53/36/43
f 51/34/41 53/36/43 54/37/44
f 53/36/43 55/38/45 54/37/44
f 54/37/44 55/38/45 56/39/46
f 56/39/46 57/40/47 58/41/48
f 56/39/46 58/41/48 59/42/49
f 60/43/50 56/39/46 59/42/49
f 54/37/44 56/39/46 60/43/50
f 61/44/51 54/37/44 60/43/50
f 51/34/41 54/37/44 61/44/51
f 61/44/51 62/45/52 51/34/41
f 51/34/41 62/45/52 52/35/42
f 63/46/53 52/35/42 62/45/52
f 53/36/43 52/35/42 63/46/53
f 53/36/43 63/46/53 64/47/54
f 64/47/54 63/46/53 65/48/55
f 64/47/54 65/48/55 66/49/56
f 66/49/56 65/48/55 67/50/57
f 66/49/56 67/50/57 68/51/58
f 68/51/58 67/50/57 69/52/59
f 67/50/57 70/53/60 69/52/59
f 71/54/61 69/52/59 70/53/60
f 72/55/62 69/52/59 71/54/61
f 65/48/55 70/53/60 67/50/57
f 63/46/53 62/45/52 65/48/55
f 65/48/55 62/45/52 70/53/60
f 61/44/51 70/53/60 62/45/52
f 71/54/61 70/53/60 61/44/51
f 61/44/51 60/43/50 71/54/61
f 71/54/61 60/43/50 72/55/62
f 60/43/50 59/42/49 72/55/62
f 72/55/62 59/42/49 69/52/59
f 73/56/63 58/41/48 74/57/64
f 74/57/64 75/58/56 73/56/63
f 74/57/64 76/59/65 75/58/56
f 77/60/66 76/59/65 74/57/64
f 77/60/66 53/36/67 76/59/65
f 55/38/45 78/61/68 57/40/47
f 55/38/45 57/40/47 56/39/46
f 77/60/66 57/40/47 78/61/68
f 74/57/64 57/40/47 77/60/66
f 74/57/64 58/41/48 57/40/47
f 79/62/69 69/52/70 73/56/63
f 73/56/63 75/58/56 79/62/69
f 80/21/71 81/22/72 82/20/73
f 80/21/71 82/20/73 83/18/74
f 83/18/74 82/20/73 84/19/75
f 83/18/74 84/19/75 85/23/76
f 85/23/76 84/19/75 86/25/77
f 85/23/76 86/25/77 87/26/38
f 87/26/38 86/25/77 88/27/37
f 85/23/76 89/24/78 83/18/74
f 91/63/79 90/64/80 92/65/81
f 91/63/82 93/66/83 94/67/29
f 91/63/82 94/67/29 95/68/75
f 95/68/75 94/67/29 96/69/28
f 97/70/34 95/68/75 96/69/28
f 98/71/77 95/68/75 97/70/34
f 99/72/84 100/73/85 101/74/86
f 102/75/87 100/73/85 99/72/84
f 103/76/88 104/77/89 105/78/90
f 106/79/86 104/77/89 103/76/88
f 107/80/91 108/81/92 109/82/30
f 110/79/90 108/81/92 107/80/91
f 111/79/93 112/78/94 113/77/87
f 114/76/30 112/78/94 111/79/93
f 115/83/8 116/84/95 117/85/96
f 118/86/6 116/84/95 115/83/8
f 119/87/10 120/88/97 121/89/98
f 122/90/12 120/88/97 119/87/10
f 122/90/12 123/91/99 120/88/97
f 124/92/13 123/91/99 122/90/12
f 124/92/13 125/93/23 123/91/99
f 126/94/22 123/91/99 125/93/23
f 127/95/26 123/91/99 126/94/22
f 127/95/26 120/88/97 123/91/99
f 128/96/100 120/88/97 127/95/26
f 128/96/100 121/89/98 120/88/97
f 129/97/101 130/98/102 131/99/103
f 132/100/104 130/98/102 129/97/101
f 133/26/35 134/25/105 135/23/30
f 136/27/36 134/25/105 133/26/35
f 137/101/37 138/102/105 139/103/36
f 140/104/77 138/102/105 137/101/37
f 141/26/38 142/25/106 143/27/37
f 144/23/71 142/25/106 141/26/38
f 145/101/36 146/102/106 147/104/34
f 148/103/37 146/102/106 145/101/36
f 149/105/107 150/106/32 151/33/33
f 152/107/76 150/106/32 149/105/107
f 153/108/108 154/109/94 155/109/87
f 156/108/109 154/109/94 153/108/108
f 157/110/107 156/108/109 153/108/108
f 158/110/110 156/108/109 157/110/107
f 159/30/111 160/29/37 161/28/36
f 162/31/112 160/29/37 159/30/111
f 162/31/112 159/30/111 163/32/87
f 163/32/87 159/30/111 164/33/113
